# Blender v2.83.5 OBJ File: 'axe02.blend'
# www.blender.org
mtllib axe02.mtl
o Cylinder.001_Cylinder.002
v -0.015733 0.752843 -0.056668
v -0.000000 0.752634 -0.057138
v 0.015733 0.752843 -0.056668
v -0.015733 0.863789 -0.056668
v -0.000000 0.863789 -0.056987
v 0.015733 0.863789 -0.056668
v 0.000000 0.734241 -0.036828
v 0.011840 0.734241 -0.027384
v 0.016744 0.734241 -0.000659
v 0.011840 0.734241 0.022141
v 0.000000 0.734241 0.031585
v -0.011840 0.734241 0.022141
v -0.016744 0.734241 -0.000659
v -0.011840 0.734241 -0.027384
v 0.000000 0.752531 -0.042038
v 0.011840 0.752531 -0.031246
v 0.016744 0.752531 -0.005191
v 0.011840 0.752531 0.020864
v 0.000000 0.752531 0.031656
v -0.011840 0.752531 0.020864
v -0.016744 0.752531 -0.005191
v -0.011840 0.752531 -0.031246
v 0.022250 0.752531 -0.001571
v 0.015733 0.754113 0.060253
v 0.000000 0.753739 0.060442
v -0.015733 0.754113 0.060253
v -0.022249 0.752531 -0.001571
v 0.007593 0.735373 0.139220
v 0.000000 0.725205 0.180530
v -0.007593 0.735373 0.139220
v 0.011840 0.863789 -0.023459
v 0.000000 0.863789 -0.032903
v 0.016744 0.863789 -0.000659
v 0.011840 0.863789 0.022141
v 0.000000 0.863789 0.031585
v -0.011840 0.863789 0.022141
v -0.016744 0.863789 -0.000659
v -0.011840 0.863789 -0.023459
v 0.022250 0.863789 -0.000659
v 0.015733 0.863789 0.060253
v 0.000000 0.866271 0.060571
v -0.015733 0.863789 0.060253
v -0.022249 0.863789 -0.000659
v 0.000000 0.892697 0.180530
v 0.007593 0.882529 0.139220
v -0.007593 0.882529 0.139220
v 0.011840 0.856987 -0.023459
v 0.000000 0.856987 -0.032903
v 0.016744 0.856987 -0.000659
v 0.011840 0.856987 0.022141
v 0.000000 0.856987 0.031585
v -0.011840 0.856987 0.022141
v -0.016744 0.856987 -0.000659
v -0.011840 0.856987 -0.023459
v 0.000000 0.881545 0.139538
v 0.000000 0.738640 0.139452
v 0.000000 0.808951 0.193922
v 0.000000 0.767078 0.192126
v 0.000000 0.850824 0.192126
v 0.011012 0.697521 -0.021890
v -0.000000 0.697521 -0.030674
v 0.015573 0.697521 -0.000659
v 0.011012 0.697521 0.020547
v -0.000000 0.697521 0.029331
v -0.011012 0.697521 0.020547
v -0.015573 0.697521 -0.000659
v -0.011012 0.697521 -0.021890
v 0.009192 0.640920 -0.015677
v -0.000000 0.640920 -0.023009
v 0.013000 0.640920 0.002025
v 0.009192 0.640920 0.019727
v -0.000000 0.640920 0.027059
v -0.009192 0.640920 0.019727
v -0.013000 0.640920 0.002025
v -0.009192 0.640920 -0.015677
v 0.007903 0.320216 -0.013194
v -0.000000 0.320216 -0.019498
v 0.011176 0.320216 0.002025
v 0.007903 0.320216 0.017244
v -0.000000 0.320216 0.023547
v -0.007903 0.320216 0.017244
v -0.011177 0.320216 0.002025
v -0.007903 0.320216 -0.013194
v 0.008273 0.033989 -0.019863
v -0.000000 0.034479 -0.026444
v 0.011700 0.032807 -0.003975
v 0.008273 0.031625 0.011913
v -0.000000 0.031135 0.018494
v -0.008273 0.031625 0.011913
v -0.011700 0.032807 -0.003975
v -0.008273 0.033989 -0.019863
v 0.008664 0.011987 -0.024458
v -0.000000 0.012499 -0.031349
v 0.012253 0.010749 -0.007819
v 0.008664 0.009511 0.008820
v -0.000000 0.008998 0.015711
v -0.008664 0.009511 0.008820
v -0.012253 0.010749 -0.007819
v -0.008664 0.011987 -0.024458
v -0.006360 0.005335 -0.020504
v -0.008995 0.004426 -0.008289
v -0.006360 0.003517 0.003925
v -0.000000 0.003141 0.008985
v 0.006360 0.003517 0.003925
v 0.008995 0.004426 -0.008289
v -0.000000 0.005711 -0.025563
v 0.006360 0.005335 -0.020504
vt 0.621093 0.124213
vt 0.621093 0.124213
vt 0.621093 0.124213
vt 0.621093 0.124213
vt 0.621093 0.124213
vt 0.621093 0.124213
vt 0.621093 0.124213
vt 0.621093 0.124213
vt 0.621093 0.124213
vt 0.621093 0.124213
vt 0.621093 0.124213
vt 0.621093 0.124213
vt 0.621093 0.124213
vt 0.621093 0.124213
vt 0.621093 0.124213
vt 0.621093 0.124213
vt 0.621093 0.124213
vt 0.621093 0.124213
vt 0.621093 0.124213
vt 0.621093 0.124213
vt 0.621093 0.124213
vt 0.621093 0.124213
vt 0.621093 0.124213
vt 0.621093 0.124213
vt 0.621093 0.124213
vt 0.621093 0.124213
vt 0.096432 0.125961
vt 0.096432 0.125961
vt 0.096432 0.125961
vt 0.096432 0.125961
vt 0.096432 0.125961
vt 0.096432 0.125961
vt 0.096432 0.125961
vt 0.096432 0.125961
vt 0.621093 0.124213
vt 0.621093 0.124213
vt 0.621093 0.124213
vt 0.621093 0.124213
vt 0.621093 0.124213
vt 0.100655 0.121067
vt 0.100655 0.121067
vt 0.100655 0.121067
vt 0.100655 0.121067
vt 0.100655 0.121067
vt 0.100655 0.121067
vt 0.621093 0.124213
vt 0.621093 0.124213
vt 0.100655 0.121067
vt 0.100655 0.121067
vt 0.100655 0.121067
vt 0.100655 0.121067
vt 0.621093 0.124213
vt 0.621093 0.124213
vt 0.100655 0.121067
vt 0.100655 0.121067
vt 0.100655 0.121067
vt 0.100655 0.121067
vt 0.100655 0.121067
vt 0.100655 0.121067
vt 0.621093 0.124213
vt 0.621093 0.124213
vt 0.621093 0.124213
vt 0.621093 0.124213
vt 0.623498 0.122861
vt 0.623498 0.122861
vt 0.623498 0.122861
vt 0.621093 0.124213
vt 0.621093 0.124213
vt 0.623498 0.122861
vt 0.621093 0.124213
vt 0.621093 0.124213
vt 0.623498 0.122861
vt 0.621093 0.124213
vt 0.621093 0.124213
vt 0.623498 0.122861
vt 0.621093 0.124213
vt 0.621093 0.124213
vt 0.623498 0.122861
vt 0.621093 0.124213
vt 0.621093 0.124213
vt 0.623498 0.122861
vt 0.621093 0.124213
vt 0.621093 0.124213
vt 0.100655 0.121067
vt 0.100655 0.121067
vt 0.100655 0.121067
vt 0.100655 0.121067
vt 0.100655 0.121067
vt 0.100655 0.121067
vt 0.100655 0.121067
vt 0.100655 0.121067
vt 0.100655 0.121067
vt 0.100655 0.121067
vt 0.100655 0.121067
vt 0.100655 0.121067
vt 0.100655 0.121067
vt 0.100655 0.121067
vt 0.100655 0.121067
vt 0.100655 0.121067
vt 0.100655 0.121067
vt 0.100655 0.121067
vt 0.100655 0.121067
vt 0.100655 0.121067
vt 0.100655 0.121067
vt 0.100655 0.121067
vt 0.100655 0.121067
vt 0.100655 0.121067
vt 0.100655 0.121067
vt 0.100655 0.121067
vt 0.100655 0.121067
vt 0.100655 0.121067
vt 0.100655 0.121067
vt 0.100655 0.121067
vt 0.100655 0.121067
vt 0.100655 0.121067
vt 0.100655 0.121067
vt 0.100655 0.121067
vt 0.100655 0.121067
vt 0.100655 0.121067
vt 0.100655 0.121067
vt 0.100655 0.121067
vt 0.100655 0.121067
vt 0.100655 0.121067
vt 0.100655 0.121067
vt 0.100655 0.121067
vt 0.100655 0.121067
vt 0.100655 0.121067
vt 0.100655 0.121067
vt 0.100655 0.121067
vt 0.100655 0.121067
vt 0.100655 0.121067
vn 0.0000 0.0007 -1.0000
vn 0.0000 0.9999 -0.0103
vn -0.9932 0.0005 -0.1165
vn 0.9947 0.0000 0.1025
vn -0.9944 -0.0004 0.1056
vn -0.9947 0.0000 0.1025
vn 0.1349 0.9561 -0.2601
vn -0.1349 0.9561 -0.2601
vn 0.9932 0.0005 -0.1165
vn 0.9891 0.0000 0.1471
vn 0.9944 -0.0004 0.1056
vn -0.9891 0.0000 0.1471
vn -0.1241 -0.9689 -0.2139
vn -0.3861 -0.8768 -0.2868
vn 0.3861 -0.8768 -0.2868
vn 0.1241 -0.9689 -0.2139
vn 0.0000 1.0000 -0.0000
vn 0.0571 0.9766 -0.2074
vn -0.0571 0.9766 -0.2074
vn 0.0292 -0.9988 0.0392
vn 0.0538 -0.9982 0.0250
vn 0.0183 -0.9998 -0.0064
vn 0.9823 -0.0419 -0.1825
vn 0.6384 -0.1853 -0.7471
vn 0.0113 -0.9999 -0.0092
vn -0.0113 -0.9999 -0.0092
vn -0.6384 -0.1853 -0.7471
vn -0.9823 -0.0419 -0.1826
vn -0.0183 -0.9998 -0.0064
vn -0.0538 -0.9982 0.0250
vn -0.0292 -0.9988 0.0392
vn -0.6495 0.0251 0.7600
vn -0.9800 0.0312 0.1967
vn 0.6495 0.0251 0.7600
vn 0.9800 0.0312 0.1967
vn 0.9776 -0.0000 -0.2103
vn -0.0751 0.9963 -0.0412
vn 0.6236 -0.0000 -0.7818
vn 0.0751 0.9963 -0.0412
vn -0.6236 0.0000 -0.7818
vn -0.9776 0.0000 -0.2103
vn -0.9776 0.0000 0.2103
vn -0.6236 0.0000 0.7818
vn 0.6236 -0.0000 0.7818
vn 0.9776 -0.0000 0.2103
vn 0.9802 -0.0411 -0.1935
vn -0.9762 -0.0544 -0.2098
vn -0.9802 -0.0411 -0.1935
vn -0.6229 -0.0479 0.7809
vn 0.9772 -0.0312 0.2102
vn 0.6183 -0.1299 -0.7751
vn -0.6183 -0.1299 -0.7751
vn -0.9772 -0.0312 0.2102
vn 0.6229 -0.0479 0.7809
vn 0.6236 -0.0086 0.7817
vn -0.6233 -0.0314 0.7814
vn 0.9771 -0.0345 0.2102
vn 0.6201 -0.1053 -0.7774
vn -0.6201 -0.1053 -0.7774
vn -0.9771 -0.0345 0.2102
vn 0.6233 -0.0314 0.7814
vn 0.9762 -0.0544 -0.2098
vn -0.6233 0.0190 -0.7818
vn 0.9776 -0.0056 -0.2103
vn -0.9776 -0.0056 -0.2103
vn -0.6236 -0.0086 0.7817
vn 0.9776 -0.0056 0.2103
vn 0.6236 -0.0086 -0.7817
vn -0.6236 -0.0086 -0.7817
vn -0.9776 -0.0056 0.2103
vn -0.6231 -0.0976 0.7760
vn -0.9776 -0.0026 0.2105
vn 0.6232 -0.0137 0.7819
vn 0.9776 0.0062 -0.2103
vn -0.9776 0.0062 -0.2103
vn -0.6232 -0.0137 0.7819
vn 0.9776 -0.0026 0.2105
vn 0.6233 0.0190 -0.7818
vn -0.0000 -0.9972 -0.0742
vn 0.9776 -0.0121 0.2100
vn 0.6195 0.1710 -0.7661
vn -0.6195 0.1710 -0.7661
vn -0.9776 -0.0121 0.2100
vn 0.6231 -0.0976 0.7760
vn 0.9767 0.0604 -0.2062
vn -0.9767 0.0604 -0.2062
vn 0.4932 -0.5643 -0.6620
vn -0.8736 -0.4616 0.1541
vn -0.4932 -0.5643 -0.6620
vn 0.8736 -0.4337 -0.2207
vn -0.4932 -0.6561 0.5712
vn -0.8736 -0.4337 -0.2207
vn 0.8736 -0.4616 0.1541
vn 0.4932 -0.6561 0.5712
usemtl Material.001
s off
f 2/1/1 1/2/1 4/3/1 5/4/1 6/5/1 3/6/1
f 3/6/2 2/1/2 1/2/2 27/7/2 26/8/2 25/9/2 24/10/2 23/11/2
f 27/7/3 43/12/3 4/3/3 1/2/3
f 28/13/4 24/10/4 40/14/4 45/15/4
f 26/8/5 42/16/5 43/12/5 27/7/5
f 26/8/6 30/17/6 46/18/6 42/16/6
f 55/19/7 46/18/7 44/20/7
f 45/15/8 55/19/8 44/20/8
f 3/6/9 6/5/9 39/21/9 23/11/9
f 29/22/10 28/13/10 45/15/10 44/20/10 59/23/10 57/24/10 58/25/10
f 23/11/11 39/21/11 40/14/11 24/10/11
f 30/17/12 29/22/12 58/25/12 57/24/12 59/23/12 44/20/12 46/18/12
f 25/9/13 24/10/13 28/13/13 56/26/13
f 28/13/14 29/22/14 56/26/14
f 29/22/15 30/17/15 56/26/15
f 25/9/16 56/26/16 30/17/16 26/8/16
f 49/27/17 47/28/17 48/29/17 54/30/17 53/31/17 52/32/17 51/33/17 50/34/17
f 40/14/18 41/35/18 55/19/18 45/15/18
f 41/35/19 42/16/19 46/18/19 55/19/19
f 24/10/20 25/9/20 19/36/20 18/37/20
f 18/37/21 17/38/21 23/11/21 24/10/21
f 17/38/22 16/39/22 3/6/22 23/11/22
f 9/40/23 8/41/23 16/42/23 17/43/23
f 7/44/24 15/45/24 16/42/24 8/41/24
f 3/6/25 16/39/25 15/46/25 2/1/25
f 15/46/26 22/47/26 1/2/26 2/1/26
f 7/44/27 14/48/27 22/49/27 15/45/27
f 21/50/28 22/49/28 14/48/28 13/51/28
f 22/47/29 21/52/29 27/7/29 1/2/29
f 21/52/30 20/53/30 26/8/30 27/7/30
f 20/53/31 19/36/31 25/9/31 26/8/31
f 12/54/32 11/55/32 19/56/32 20/57/32
f 13/51/33 12/54/33 20/57/33 21/50/33
f 11/55/34 10/58/34 18/59/34 19/56/34
f 10/58/35 9/40/35 17/43/35 18/59/35
f 53/60/36 37/61/36 36/62/36 52/63/36
f 43/64/17 42/65/17 36/62/17 37/61/17
f 41/66/37 35/67/37 36/62/37 42/65/37
f 51/68/38 52/63/38 36/62/38 35/67/38
f 41/66/39 40/69/39 34/70/39 35/67/39
f 51/68/40 35/67/40 34/70/40 50/71/40
f 39/72/17 33/73/17 34/70/17 40/69/17
f 49/74/41 50/71/41 34/70/41 33/73/41
f 39/72/17 6/75/17 31/76/17 33/73/17
f 49/74/42 33/73/42 31/76/42 47/77/42
f 6/75/17 5/78/17 32/79/17 31/76/17
f 47/77/43 31/76/43 32/79/43 48/80/43
f 4/81/17 38/82/17 32/79/17 5/78/17
f 54/83/44 48/80/44 32/79/44 38/82/44
f 43/64/17 37/61/17 38/82/17 4/81/17
f 53/60/45 54/83/45 38/82/45 37/61/45
f 8/41/46 9/40/46 62/84/46 60/85/46
f 66/86/47 67/87/47 75/88/47 74/89/47
f 13/51/48 14/48/48 67/87/48 66/86/48
f 11/55/49 12/54/49 65/90/49 64/91/49
f 9/40/50 10/58/50 63/92/50 62/84/50
f 7/44/51 8/41/51 60/85/51 61/93/51
f 14/48/52 7/44/52 61/93/52 67/87/52
f 12/54/53 13/51/53 66/86/53 65/90/53
f 10/58/54 11/55/54 64/91/54 63/92/54
f 71/94/55 72/95/55 80/96/55 79/97/55
f 64/91/56 65/90/56 73/98/56 72/95/56
f 62/84/57 63/92/57 71/94/57 70/99/57
f 61/93/58 60/85/58 68/100/58 69/101/58
f 67/87/59 61/93/59 69/101/59 75/88/59
f 65/90/60 66/86/60 74/89/60 73/98/60
f 63/92/61 64/91/61 72/95/61 71/94/61
f 60/85/62 62/84/62 70/99/62 68/100/62
f 83/102/63 77/103/63 85/104/63 91/105/63
f 68/100/64 70/99/64 78/106/64 76/107/64
f 74/89/65 75/88/65 83/102/65 82/108/65
f 72/95/66 73/98/66 81/109/66 80/96/66
f 70/99/67 71/94/67 79/97/67 78/106/67
f 69/101/68 68/100/68 76/107/68 77/103/68
f 75/88/69 69/101/69 77/103/69 83/102/69
f 73/98/70 74/89/70 82/108/70 81/109/70
f 88/110/71 89/111/71 97/112/71 96/113/71
f 81/109/72 82/108/72 90/114/72 89/111/72
f 79/97/73 80/96/73 88/110/73 87/115/73
f 76/107/74 78/106/74 86/116/74 84/117/74
f 82/108/75 83/102/75 91/105/75 90/114/75
f 80/96/76 81/109/76 89/111/76 88/110/76
f 78/106/77 79/97/77 87/115/77 86/116/77
f 77/103/78 76/107/78 84/117/78 85/104/78
f 107/118/79 105/119/79 104/120/79 103/121/79 102/122/79 101/123/79 100/124/79 106/125/79
f 86/116/80 87/115/80 95/126/80 94/127/80
f 85/104/81 84/117/81 92/128/81 93/129/81
f 91/105/82 85/104/82 93/129/82 99/130/82
f 89/111/83 90/114/83 98/131/83 97/112/83
f 87/115/84 88/110/84 96/113/84 95/126/84
f 84/117/85 86/116/85 94/127/85 92/128/85
f 90/114/86 91/105/86 99/130/86 98/131/86
f 93/129/87 92/128/87 107/118/87 106/125/87
f 97/112/88 98/131/88 101/123/88 102/122/88
f 99/130/89 93/129/89 106/125/89 100/124/89
f 92/128/90 94/127/90 105/119/90 107/118/90
f 96/113/91 97/112/91 102/122/91 103/121/91
f 98/131/92 99/130/92 100/124/92 101/123/92
f 94/127/93 95/126/93 104/120/93 105/119/93
f 95/126/94 96/113/94 103/121/94 104/120/94
