# Blender v2.83.5 OBJ File: 'bucket01.blend'
# www.blender.org
mtllib bucket01.mtl
o Cylinder.001_Cylinder.002
v -0.076325 0.181935 -0.141816
v 0.076325 0.181935 -0.141816
v -0.076325 0.177856 -0.136875
v 0.076325 0.177856 -0.136875
v -0.076325 0.178466 -0.130497
v 0.076325 0.178466 -0.130497
v -0.076325 0.183407 -0.126417
v 0.076325 0.183407 -0.126417
v -0.076325 0.189786 -0.127027
v 0.076325 0.189786 -0.127027
v -0.076325 0.193865 -0.131969
v 0.076325 0.193865 -0.131969
v -0.076325 0.193255 -0.138347
v 0.076325 0.193255 -0.138347
v -0.076325 0.188313 -0.142426
v 0.076325 0.188313 -0.142426
v -0.139163 0.181852 -0.141973
v -0.136659 0.175475 -0.135753
v 0.136659 0.175475 -0.135753
v 0.139163 0.181852 -0.141973
v -0.130615 0.175182 -0.128753
v 0.130615 0.175182 -0.128753
v -0.124570 0.181144 -0.125074
v 0.124570 0.181144 -0.125074
v -0.122066 0.189869 -0.126871
v 0.122066 0.189869 -0.126871
v -0.124570 0.196245 -0.133091
v 0.124570 0.196245 -0.133091
v -0.130615 0.196539 -0.140090
v 0.130615 0.196539 -0.140090
v -0.136659 0.190577 -0.143769
v 0.136659 0.190577 -0.143769
v -0.142704 0.194919 -0.117358
v -0.139163 0.187368 -0.113349
v 0.139163 0.187368 -0.113349
v 0.142704 0.194919 -0.117358
v -0.130615 0.184240 -0.111689
v 0.130615 0.184240 -0.111689
v -0.122066 0.187368 -0.113349
v 0.122066 0.187368 -0.113349
v -0.118525 0.194919 -0.117358
v 0.118525 0.194919 -0.117358
v -0.122066 0.202469 -0.121366
v 0.122066 0.202469 -0.121366
v -0.130615 0.205597 -0.123026
v 0.130615 0.205597 -0.123026
v -0.139163 0.202469 -0.121366
v 0.139163 0.202469 -0.121366
v -0.134348 0.194919 -0.117358
v -0.133254 0.192587 -0.116120
v 0.133254 0.192587 -0.116120
v 0.134348 0.194919 -0.117358
v -0.130615 0.191621 -0.115607
v 0.130615 0.191621 -0.115607
v -0.127975 0.192587 -0.116120
v 0.127975 0.192587 -0.116120
v -0.126881 0.194919 -0.117358
v 0.126881 0.194919 -0.117358
v -0.127975 0.197250 -0.118595
v 0.127975 0.197250 -0.118595
v -0.130615 0.198216 -0.119108
v 0.130615 0.198216 -0.119108
v -0.133254 0.197250 -0.118595
v 0.133254 0.197250 -0.118595
v -0.134348 0.253402 -0.007185
v -0.133254 0.251071 -0.005947
v 0.133254 0.251071 -0.005947
v 0.134348 0.253402 -0.007185
v -0.130615 0.250105 -0.005434
v 0.130615 0.250105 -0.005434
v -0.127975 0.251071 -0.005947
v 0.127975 0.251071 -0.005947
v -0.126882 0.253402 -0.007185
v 0.126882 0.253402 -0.007185
v -0.127975 0.255734 -0.008422
v 0.127975 0.255734 -0.008422
v -0.130615 0.256700 -0.008935
v 0.130615 0.256700 -0.008935
v -0.133254 0.255734 -0.008422
v 0.133254 0.255734 -0.008422
v -0.133254 0.257852 0.001198
v -0.132481 0.255158 0.001753
v 0.132481 0.255158 0.001753
v 0.133254 0.257852 0.001198
v -0.130615 0.253317 0.000617
v 0.130615 0.253317 0.000617
v -0.128748 0.253408 -0.001545
v 0.128748 0.253408 -0.001545
v -0.127975 0.255377 -0.003465
v 0.127975 0.255377 -0.003465
v -0.128748 0.258071 -0.004020
v 0.128748 0.258071 -0.004020
v -0.130615 0.259912 -0.002884
v 0.130615 0.259912 -0.002884
v -0.132481 0.259821 -0.000723
v 0.132481 0.259821 -0.000723
v -0.121410 0.258652 0.002705
v -0.121410 0.255808 0.002976
v 0.121410 0.255808 0.002976
v 0.121410 0.258652 0.002705
v -0.121410 0.253604 0.001158
v 0.121410 0.253604 0.001158
v -0.121410 0.253332 -0.001687
v 0.121410 0.253332 -0.001687
v -0.121410 0.255151 -0.003890
v 0.121410 0.255151 -0.003890
v -0.121410 0.257995 -0.004162
v 0.121410 0.257995 -0.004162
v -0.121410 0.260199 -0.002343
v 0.121410 0.260199 -0.002343
v -0.121410 0.260471 0.000501
v 0.121410 0.260471 0.000501
v -0.077040 0.178261 -0.148737
v 0.077040 0.178261 -0.148737
v -0.077040 0.170365 -0.139171
v 0.077040 0.170365 -0.139171
v -0.077040 0.171545 -0.126823
v 0.077040 0.171545 -0.126823
v -0.077040 0.181111 -0.118926
v 0.077040 0.181111 -0.118926
v -0.077040 0.193459 -0.120107
v 0.077040 0.193459 -0.120107
v -0.077040 0.201356 -0.129673
v 0.077040 0.201356 -0.129673
v -0.077040 0.200175 -0.142021
v 0.077040 0.200175 -0.142021
v -0.077040 0.190609 -0.149917
v 0.077040 0.190609 -0.149917
v -0.037264 0.008746 -0.089964
v -0.052786 0.285607 -0.127436
v 0.037264 0.008746 -0.089964
v 0.052786 0.285607 -0.127436
v 0.089964 0.008746 -0.037264
v 0.127436 0.285607 -0.052786
v 0.089964 0.008746 0.037264
v 0.127436 0.285607 0.052786
v 0.037264 0.008746 0.089964
v 0.052786 0.285607 0.127436
v -0.037264 0.008746 0.089964
v -0.052786 0.285607 0.127436
v -0.089964 0.008746 0.037264
v -0.127436 0.285607 0.052786
v -0.089964 0.008746 -0.037264
v -0.127436 0.285607 -0.052786
v -0.048429 0.285607 -0.116919
v 0.048429 0.285607 -0.116919
v 0.116919 0.285607 -0.048429
v 0.116919 0.285607 0.048429
v 0.048429 0.285607 0.116919
v -0.048429 0.285607 0.116919
v -0.116919 0.285607 0.048429
v -0.116919 0.285607 -0.048429
v -0.034787 0.018116 -0.083982
v 0.034787 0.018116 -0.083982
v 0.083982 0.018116 -0.034787
v 0.083982 0.018116 0.034787
v 0.034787 0.018116 0.083982
v -0.034787 0.018116 0.083982
v -0.083982 0.018116 0.034787
v -0.083982 0.018116 -0.034787
vt 0.372039 0.135883
vt 0.372039 0.135883
vt 0.372039 0.135883
vt 0.372039 0.135883
vt 0.372039 0.135883
vt 0.372039 0.135883
vt 0.372039 0.135883
vt 0.372039 0.135883
vt 0.372039 0.135883
vt 0.372039 0.135883
vt 0.386804 0.116196
vt 0.386804 0.116196
vt 0.386804 0.116196
vt 0.386804 0.116196
vt 0.386804 0.116196
vt 0.386804 0.116196
vt 0.386804 0.116196
vt 0.386804 0.116196
vt 0.386804 0.116196
vt 0.386804 0.116196
vt 0.642725 0.121118
vt 0.642725 0.121118
vt 0.642725 0.121118
vt 0.642725 0.121118
vt 0.372039 0.135883
vt 0.372039 0.135883
vt 0.372039 0.135883
vt 0.372039 0.135883
vt 0.386804 0.116196
vt 0.386804 0.116196
vt 0.386804 0.116196
vt 0.386804 0.116196
vt 0.642725 0.121118
vt 0.642725 0.121118
vt 0.642725 0.121118
vt 0.642725 0.121118
vt 0.642725 0.121118
vt 0.642725 0.121118
vt 0.642725 0.121118
vt 0.642725 0.121118
vt 0.642725 0.121118
vt 0.642725 0.121118
vt 0.642725 0.121118
vt 0.642725 0.121118
vt 0.642725 0.121118
vt 0.642725 0.121118
vt 0.642725 0.121118
vt 0.642725 0.121118
vt 0.642725 0.121118
vt 0.642725 0.121118
vt 0.642725 0.121118
vt 0.642725 0.121118
vt 0.642725 0.121118
vt 0.642725 0.121118
vt 0.642725 0.121118
vt 0.642725 0.121118
vt 0.642725 0.121118
vt 0.642725 0.121118
vt 0.642725 0.121118
vt 0.642725 0.121118
vt 0.642725 0.121118
vt 0.642725 0.121118
vt 0.642725 0.121118
vt 0.642725 0.121118
vt 0.642725 0.121118
vt 0.642725 0.121118
vt 0.642725 0.121118
vt 0.642725 0.121118
vt 0.642725 0.121118
vt 0.642725 0.121118
vt 0.642725 0.121118
vt 0.642725 0.121118
vt 0.642725 0.121118
vt 0.642725 0.121118
vt 0.642725 0.121118
vt 0.642725 0.121118
vt 0.642725 0.121118
vt 0.642725 0.121118
vt 0.642725 0.121118
vt 0.642725 0.121118
vt 0.876000 0.126039
vt 0.876000 0.126039
vt 0.876000 0.126039
vt 0.876000 0.126039
vt 0.876000 0.126039
vt 0.876000 0.126039
vt 0.876000 0.126039
vt 0.876000 0.126039
vt 0.642725 0.121118
vt 0.642725 0.121118
vt 0.642725 0.121118
vt 0.642725 0.121118
vt 0.642725 0.121118
vt 0.642725 0.121118
vt 0.642725 0.121118
vt 0.642725 0.121118
vt 0.642725 0.121118
vt 0.642725 0.121118
vt 0.642725 0.121118
vt 0.642725 0.121118
vt 0.876000 0.126039
vt 0.876000 0.126039
vt 0.876000 0.126039
vt 0.876000 0.126039
vt 0.876000 0.126039
vt 0.876000 0.126039
vt 0.876000 0.126039
vt 0.876000 0.126039
vt 0.876000 0.126039
vt 0.876000 0.126039
vt 0.876000 0.126039
vt 0.876000 0.126039
vt 0.876000 0.126039
vt 0.876000 0.126039
vt 0.876000 0.126039
vt 0.876000 0.126039
vt 0.876000 0.126039
vt 0.876000 0.126039
vt 0.876000 0.126039
vt 0.876000 0.126039
vt 0.876000 0.126039
vt 0.876000 0.126039
vt 0.876000 0.126039
vt 0.876000 0.126039
vt 0.876000 0.126039
vt 0.876000 0.126039
vt 0.876000 0.126039
vt 0.876000 0.126039
vt 0.876000 0.126039
vt 0.876000 0.126039
vt 0.876000 0.126039
vt 0.876000 0.126039
vt 0.876000 0.126039
vt 0.876000 0.126039
vt 0.876000 0.126039
vt 0.876000 0.126039
vt 0.876000 0.126039
vt 0.876000 0.126039
vt 0.876000 0.126039
vt 0.876000 0.126039
vt 0.876000 0.126039
vt 0.876000 0.126039
vt 0.876000 0.126039
vt 0.876000 0.126039
vt 0.876000 0.126039
vt 0.876000 0.126039
vt 0.876000 0.126039
vt 0.876000 0.126039
vt 0.876000 0.126039
vt 0.876000 0.126039
vt 0.876000 0.126039
vt 0.876000 0.126039
vt 0.876000 0.126039
vt 0.876000 0.126039
vt 0.876000 0.126039
vt 0.876000 0.126039
vt 0.372039 0.135883
vt 0.372039 0.135883
vt 0.372039 0.135883
vt 0.372039 0.135883
vt 0.372039 0.135883
vt 0.372039 0.135883
vt 0.372039 0.135883
vt 0.372039 0.135883
vt 0.372039 0.135883
vt 0.386804 0.116196
vt 0.386804 0.116196
vt 0.372039 0.135883
vt 0.892725 0.121118
vt 0.892725 0.121118
vt 0.892725 0.121118
vt 0.892725 0.121118
vt 0.892725 0.121118
vt 0.892725 0.121118
vt 0.892725 0.121118
vt 0.892725 0.121118
vt 0.892725 0.121118
vt 0.892725 0.121118
vt 0.892725 0.121118
vt 0.892725 0.121118
vt 0.892725 0.121118
vt 0.892725 0.121118
vt 0.892725 0.121118
vt 0.892725 0.121118
vt 0.892725 0.121118
vt 0.892725 0.121118
vt 0.892725 0.121118
vt 0.892725 0.121118
vt 0.892725 0.121118
vt 0.892725 0.121118
vt 0.876000 0.126039
vt 0.876000 0.126039
vt 0.876000 0.126039
vt 0.876000 0.126039
vt 0.876000 0.126039
vt 0.876000 0.126039
vt 0.876000 0.126039
vt 0.876000 0.126039
vt 0.876000 0.126039
vt 0.876000 0.126039
vt 0.876000 0.126039
vt 0.876000 0.126039
vt 0.876000 0.126039
vt 0.876000 0.126039
vt 0.892725 0.121118
vt 0.892725 0.121118
vt 0.892725 0.121118
vt 0.892725 0.121118
vt 0.892725 0.121118
vt 0.892725 0.121118
vt 0.892725 0.121118
vt 0.892725 0.121118
vt 0.892725 0.121118
vt 0.892725 0.121118
vn 0.9952 0.0758 0.0625
vn 0.9952 0.0093 0.0978
vn 0.9952 0.0625 -0.0758
vn -0.9952 0.0758 0.0625
vn -0.9952 0.0093 0.0978
vn -0.9952 0.0625 -0.0758
vn 0.0494 -0.9988 0.0013
vn 0.9952 -0.0758 -0.0625
vn -0.9952 -0.0758 -0.0625
vn -0.0122 0.1554 0.9878
vn -0.4284 -0.8091 0.4023
vn -0.9271 0.1501 -0.3435
vn 0.0494 0.5607 -0.8265
vn -0.0494 -0.9988 0.0013
vn -0.0494 0.5607 -0.8265
vn 0.0122 0.7311 0.6822
vn -0.0122 0.7311 0.6822
vn 0.0565 -0.5994 0.7984
vn 0.0092 -0.1588 -0.9873
vn 0.0092 -0.7287 -0.6847
vn -0.0565 -0.5994 0.7984
vn -0.0092 -0.1588 -0.9873
vn -0.0092 -0.7287 -0.6847
vn 0.0565 0.9972 -0.0491
vn -0.0565 0.9972 -0.0491
vn 0.0122 0.1554 0.9878
vn -0.0000 0.4689 0.8833
vn 0.4478 0.7730 -0.4493
vn 0.4284 -0.8091 0.4023
vn -0.4478 0.7730 -0.4493
vn 0.4478 -0.8053 0.3885
vn -0.4284 0.7866 -0.4447
vn -0.4478 -0.8053 0.3885
vn 0.4284 0.7866 -0.4447
vn 0.9271 -0.3686 -0.0682
vn -0.9325 0.2553 -0.2554
vn -0.9271 -0.3686 -0.0682
vn -0.9325 -0.3546 0.0683
vn 0.9325 0.2553 -0.2554
vn 0.9271 0.1501 -0.3435
vn 0.9325 -0.3546 0.0683
vn -0.3827 0.8160 -0.4332
vn 0.3827 -0.8160 0.4332
vn -0.4293 -0.7875 0.4422
vn -0.9341 0.3561 0.0256
vn -0.3827 -0.8160 0.4332
vn 0.3827 0.8160 -0.4332
vn 0.9239 -0.3380 0.1794
vn -0.9239 0.3380 -0.1794
vn -0.9239 -0.3380 0.1794
vn 0.9239 0.3380 -0.1794
vn -0.0416 -0.6019 0.7975
vn 0.0436 -0.1534 -0.9872
vn 0.4462 0.8037 -0.3937
vn 0.4293 -0.7875 0.4422
vn -0.4461 0.8037 -0.3937
vn 0.4461 -0.7764 0.4451
vn -0.4293 0.8075 -0.4045
vn -0.4462 -0.7764 0.4451
vn 0.4293 0.8075 -0.4045
vn 0.9341 -0.1783 0.3093
vn -0.9340 0.3489 -0.0768
vn -0.9341 -0.1783 0.3093
vn -0.9340 -0.2592 0.2460
vn 0.9340 0.3489 -0.0768
vn 0.9341 0.3561 0.0257
vn 0.9340 -0.2592 0.2460
vn -1.0000 0.0000 -0.0000
vn 1.0000 0.0000 0.0000
vn 0.0118 0.5934 -0.8048
vn 0.0416 -0.6019 0.7975
vn -0.0118 0.5934 -0.8048
vn 0.0118 -0.9991 0.0406
vn -0.0416 0.9978 -0.0517
vn -0.0118 -0.9991 0.0406
vn 0.0416 0.9978 -0.0517
vn -0.0436 -0.7317 -0.6802
vn -0.1254 0.7423 0.6583
vn 0.0436 -0.7317 -0.6802
vn -0.1254 0.1293 0.9836
vn 0.1254 0.7423 0.6583
vn -0.0436 -0.1534 -0.9872
vn 0.1254 0.1293 0.9836
vn -0.0000 -0.7712 -0.6366
vn -0.0000 -0.9955 0.0952
vn -0.0000 -0.6366 0.7712
vn 0.0000 0.0952 0.9955
vn -0.0000 0.7712 0.6366
vn 0.0000 0.9955 -0.0952
vn 0.0000 0.6366 -0.7712
vn 0.0000 -0.0952 -0.9955
vn -0.9952 -0.0978 0.0093
vn 0.9952 -0.0978 0.0093
vn -0.9952 -0.0093 -0.0978
vn 0.9952 -0.0093 -0.0978
vn -0.9952 0.0978 -0.0093
vn -0.9952 -0.0625 0.0758
vn 0.9952 0.0978 -0.0093
vn 0.9952 -0.0625 0.0758
vn -0.0000 -0.1341 -0.9910
vn 0.7007 -0.1341 -0.7007
vn 0.9910 -0.1341 -0.0000
vn 0.7007 -0.1341 0.7007
vn -0.0000 -0.1341 0.9910
vn -0.7007 -0.1341 0.7007
vn 0.0000 1.0000 -0.0000
vn -0.9910 -0.1341 0.0000
vn -0.7007 -0.1341 -0.7007
vn -0.0000 -1.0000 -0.0000
vn 0.9925 0.1222 -0.0000
vn -0.0000 0.1222 -0.9925
vn -0.9925 0.1222 0.0000
vn 0.0000 0.1222 0.9925
vn 0.7018 0.1222 0.7018
vn 0.7018 0.1222 -0.7018
vn -0.7018 0.1222 -0.7018
vn -0.7018 0.1222 0.7018
usemtl Material
s off
f 2/1/1 4/2/1 116/3/1 114/4/1
f 16/5/2 2/1/2 114/4/2 128/6/2
f 6/7/3 8/8/3 120/9/3 118/10/3
f 3/11/4 1/12/4 113/13/4 115/14/4
f 1/12/5 15/15/5 127/16/5 113/13/5
f 7/17/6 5/18/6 117/19/6 119/20/6
f 3/21/7 5/22/7 21/23/7 18/24/7
f 10/25/8 12/26/8 124/27/8 122/28/8
f 11/29/9 9/30/9 121/31/9 123/32/9
f 10/33/10 8/34/10 24/35/10 26/36/10
f 18/24/11 21/23/11 37/37/11 34/38/11
f 28/39/12 26/36/12 42/40/12 44/41/12
f 13/42/13 15/43/13 31/44/13 29/45/13
f 6/46/14 4/47/14 19/48/14 22/49/14
f 16/50/15 14/51/15 30/52/15 32/53/15
f 9/54/16 11/55/16 27/56/16 25/57/16
f 12/58/17 10/33/17 26/36/17 28/39/17
f 5/22/18 7/59/18 23/60/18 21/23/18
f 15/43/19 1/61/19 17/62/19 31/44/19
f 1/61/20 3/21/20 18/24/20 17/62/20
f 8/34/21 6/46/21 22/49/21 24/35/21
f 2/63/22 16/50/22 32/53/22 20/64/22
f 4/47/23 2/63/23 20/64/23 19/48/23
f 11/55/24 13/42/24 29/45/24 27/56/24
f 14/51/25 12/58/25 28/39/25 30/52/25
f 7/59/26 9/54/26 25/57/26 23/60/26
f 42/40/27 40/65/27 56/66/27 58/67/27
f 47/68/27 33/69/27 49/70/27 63/71/27
f 27/56/28 29/45/28 45/72/28 43/73/28
f 22/49/29 19/48/29 35/74/29 38/75/29
f 30/52/30 28/39/30 44/41/30 46/76/30
f 21/23/31 23/60/31 39/77/31 37/37/31
f 29/45/32 31/44/32 47/68/32 45/72/32
f 24/35/33 22/49/33 38/75/33 40/65/33
f 32/53/34 30/52/34 46/76/34 48/78/34
f 23/60/35 25/57/35 41/79/35 39/77/35
f 31/44/36 17/62/36 33/69/36 47/68/36
f 26/36/37 24/35/37 40/65/37 42/40/37
f 17/62/38 18/24/38 34/38/38 33/69/38
f 20/64/39 32/53/39 48/78/39 36/80/39
f 25/57/40 27/56/40 43/73/40 41/79/40
f 19/48/41 20/64/41 36/80/41 35/74/41
f 61/81/42 63/82/42 79/83/42 77/84/42
f 53/85/43 55/86/43 71/87/43 69/88/43
f 33/69/27 34/38/27 50/89/27 49/70/27
f 36/80/27 48/78/27 64/90/27 52/91/27
f 41/79/27 43/73/27 59/92/27 57/93/27
f 35/74/27 36/80/27 52/91/27 51/94/27
f 44/41/27 42/40/27 58/67/27 60/95/27
f 34/38/27 37/37/27 53/96/27 50/89/27
f 43/73/27 45/72/27 61/97/27 59/92/27
f 38/75/27 35/74/27 51/94/27 54/98/27
f 46/76/27 44/41/27 60/95/27 62/99/27
f 37/37/27 39/77/27 55/100/27 53/96/27
f 45/72/27 47/68/27 63/71/27 61/97/27
f 40/65/27 38/75/27 54/98/27 56/66/27
f 48/78/27 46/76/27 62/99/27 64/90/27
f 39/77/27 41/79/27 57/93/27 55/100/27
f 66/101/44 69/88/44 85/102/44 82/103/44
f 76/104/45 74/105/45 90/106/45 92/107/45
f 56/108/46 54/109/46 70/110/46 72/111/46
f 64/112/47 62/113/47 78/114/47 80/115/47
f 55/86/48 57/116/48 73/117/48 71/87/48
f 63/82/49 49/118/49 65/119/49 79/83/49
f 58/120/50 56/108/50 72/111/50 74/105/50
f 49/118/50 50/121/50 66/101/50 65/119/50
f 52/122/51 64/112/51 80/115/51 68/123/51
f 57/116/51 59/124/51 75/125/51 73/117/51
f 51/126/48 52/122/48 68/123/48 67/127/48
f 60/128/49 58/120/49 74/105/49 76/104/49
f 50/121/46 53/85/46 69/88/46 66/101/46
f 59/124/47 61/81/47 77/84/47 75/125/47
f 54/109/43 51/126/43 67/127/43 70/110/43
f 62/113/42 60/128/42 76/104/42 78/114/42
f 82/103/52 85/102/52 101/129/52 98/130/52
f 92/107/53 90/106/53 106/131/53 108/132/53
f 75/125/54 77/84/54 93/133/54 91/134/54
f 70/110/55 67/127/55 83/135/55 86/136/55
f 78/114/56 76/104/56 92/107/56 94/137/56
f 69/88/57 71/87/57 87/138/57 85/102/57
f 77/84/58 79/83/58 95/139/58 93/133/58
f 72/111/59 70/110/59 86/136/59 88/140/59
f 80/115/60 78/114/60 94/137/60 96/141/60
f 71/87/61 73/117/61 89/142/61 87/138/61
f 79/83/62 65/119/62 81/143/62 95/139/62
f 74/105/63 72/111/63 88/140/63 90/106/63
f 65/119/64 66/101/64 82/103/64 81/143/64
f 68/123/65 80/115/65 96/141/65 84/144/65
f 73/117/66 75/125/66 91/134/66 89/142/66
f 67/127/67 68/123/67 84/144/67 83/135/67
f 99/145/68 100/146/68 112/147/68 110/148/68 108/132/68 106/131/68 104/149/68 102/150/68
f 97/151/69 98/130/69 101/129/69 103/152/69 105/153/69 107/154/69 109/155/69 111/156/69
f 91/134/70 93/133/70 109/155/70 107/154/70
f 86/136/71 83/135/71 99/145/71 102/150/71
f 94/137/72 92/107/72 108/132/72 110/148/72
f 85/102/73 87/138/73 103/152/73 101/129/73
f 93/133/74 95/139/74 111/156/74 109/155/74
f 88/140/75 86/136/75 102/150/75 104/149/75
f 96/141/76 94/137/76 110/148/76 112/147/76
f 87/138/77 89/142/77 105/153/77 103/152/77
f 95/139/78 81/143/78 97/151/78 111/156/78
f 90/106/79 88/140/79 104/149/79 106/131/79
f 81/143/80 82/103/80 98/130/80 97/151/80
f 84/144/81 96/141/81 112/147/81 100/146/81
f 89/142/82 91/134/82 107/154/82 105/153/82
f 83/135/83 84/144/83 100/146/83 99/145/83
f 113/157/84 114/4/84 116/3/84 115/158/84
f 115/158/85 116/3/85 118/10/85 117/159/85
f 117/159/86 118/10/86 120/9/86 119/160/86
f 119/160/87 120/9/87 122/28/87 121/161/87
f 121/161/88 122/28/88 124/27/88 123/162/88
f 123/162/89 124/27/89 126/163/89 125/164/89
f 125/164/90 126/163/90 128/6/90 127/165/90
f 127/165/91 128/6/91 114/4/91 113/157/91
f 13/166/92 11/29/92 123/32/92 125/167/92
f 12/26/93 14/168/93 126/163/93 124/27/93
f 9/30/94 7/17/94 119/20/94 121/31/94
f 8/8/95 10/25/95 122/28/95 120/9/95
f 5/18/96 3/11/96 115/14/96 117/19/96
f 15/15/97 13/166/97 125/167/97 127/16/97
f 4/2/98 6/7/98 118/10/98 116/3/98
f 14/168/99 16/5/99 128/6/99 126/163/99
f 129/169/100 130/170/100 132/171/100 131/172/100
f 131/172/101 132/171/101 134/173/101 133/174/101
f 133/174/102 134/173/102 136/175/102 135/176/102
f 135/176/103 136/175/103 138/177/103 137/178/103
f 137/178/104 138/177/104 140/179/104 139/180/104
f 139/180/105 140/179/105 142/181/105 141/182/105
f 130/170/106 144/183/106 152/184/106 145/185/106
f 141/182/107 142/181/107 144/183/107 143/186/107
f 143/186/108 144/183/108 130/170/108 129/169/108
f 129/169/109 131/172/109 133/174/109 135/176/109 137/178/109 139/180/109 141/182/109 143/186/109
f 152/184/110 151/187/110 159/188/110 160/189/110
f 132/171/106 130/170/106 145/185/106 146/190/106
f 136/191/106 134/192/106 147/193/106 148/194/106
f 142/195/106 140/196/106 150/197/106 151/198/106
f 138/199/106 136/191/106 148/194/106 149/200/106
f 144/201/106 142/195/106 151/198/106 152/202/106
f 134/192/106 132/203/106 146/204/106 147/193/106
f 140/179/106 138/177/106 149/205/106 150/206/106
f 154/207/106 153/208/106 160/189/106 159/188/106 158/209/106 157/210/106 156/211/106 155/212/106
f 150/206/111 149/205/111 157/210/111 158/209/111
f 148/213/112 147/214/112 155/212/112 156/211/112
f 146/190/113 145/185/113 153/208/113 154/207/113
f 145/185/114 152/184/114 160/189/114 153/208/114
f 151/187/115 150/206/115 158/209/115 159/188/115
f 149/205/116 148/213/116 156/211/116 157/210/116
f 147/214/117 146/190/117 154/207/117 155/212/117
