# Blender v2.83.5 OBJ File: 'chisel03.blend'
# www.blender.org
mtllib chisel03.mtl
o Cylinder_Cylinder.002
v -0.000000 -0.011303 -0.013818
v -0.000000 0.001538 -0.013818
v 0.009771 -0.011303 -0.009771
v 0.009771 0.001538 -0.009771
v 0.013818 -0.011303 0.000000
v 0.013818 0.001538 0.000000
v 0.009771 -0.011303 0.009771
v 0.009771 0.001538 0.009771
v -0.000000 -0.011303 0.013818
v -0.000000 0.001538 0.013818
v -0.009771 -0.011303 0.009771
v -0.009771 0.001538 0.009771
v -0.013818 -0.011303 -0.000000
v -0.013818 0.001538 -0.000000
v -0.009771 -0.011303 -0.009771
v -0.009771 0.001538 -0.009771
v -0.000000 0.021127 -0.011254
v 0.007958 0.021127 -0.007958
v 0.011254 0.021127 0.000000
v 0.007958 0.021127 0.007958
v -0.000000 0.021127 0.011254
v -0.007958 0.021127 0.007958
v -0.011254 0.021127 -0.000000
v -0.007958 0.021127 -0.007958
v -0.000000 0.051405 -0.008218
v 0.005811 0.051405 -0.005811
v 0.008218 0.051405 0.000000
v 0.005811 0.051405 0.005811
v -0.000000 0.051405 0.008218
v -0.005811 0.051405 0.005811
v -0.008218 0.051405 -0.000000
v -0.005811 0.051405 -0.005811
v 0.000000 0.056321 -0.010011
v 0.007079 0.056321 -0.007079
v 0.010011 0.056321 0.000000
v 0.007079 0.056321 0.007079
v -0.000000 0.056321 0.010011
v -0.007079 0.056321 0.007079
v -0.010011 0.056321 -0.000000
v -0.007079 0.056321 -0.007079
v 0.000000 0.059607 -0.009664
v 0.006834 0.059607 -0.006834
v 0.009664 0.059607 0.000000
v 0.006834 0.059607 0.006834
v -0.000000 0.059607 0.009664
v -0.006834 0.059607 0.006834
v -0.009664 0.059607 -0.000000
v -0.006834 0.059607 -0.006834
v 0.000000 0.067350 -0.009664
v 0.006834 0.067350 -0.006834
v 0.009664 0.067350 0.000000
v 0.006834 0.067350 0.006834
v -0.000000 0.067350 0.009664
v -0.006834 0.067350 0.006834
v -0.009664 0.067350 -0.000000
v -0.006834 0.067350 -0.006834
v 0.000000 0.068253 -0.009234
v 0.006530 0.068253 -0.006530
v 0.009234 0.068253 0.000000
v 0.006530 0.068253 0.006530
v -0.000000 0.068253 0.009234
v -0.006530 0.068253 0.006530
v -0.009234 0.068253 -0.000000
v -0.006530 0.068253 -0.006530
v 0.000000 0.079137 -0.003423
v 0.002447 0.079137 -0.002421
v 0.003460 0.079137 -0.000000
v 0.002447 0.079137 0.002421
v 0.000000 0.079137 0.003423
v -0.002447 0.079137 0.002421
v -0.003460 0.079137 -0.000000
v -0.002447 0.079137 -0.002421
v 0.000000 -0.015822 -0.010394
v 0.007349 -0.015822 -0.007349
v 0.010394 -0.015822 0.000000
v 0.007349 -0.015822 0.007349
v -0.000000 -0.015822 0.010394
v -0.007349 -0.015822 0.007349
v -0.010394 -0.015822 -0.000000
v -0.007349 -0.015822 -0.007349
v -0.002447 0.120460 -0.002421
v -0.003460 0.120460 -0.000000
v -0.002447 0.120460 0.002421
v 0.000000 0.120460 0.003423
v 0.002447 0.120460 0.002421
v 0.003460 0.120460 -0.000000
v 0.002447 0.120460 -0.002421
v 0.000000 0.120460 -0.003423
v 0.002447 0.126885 -0.003697
v 0.003460 0.126885 -0.000000
v 0.002447 0.126885 0.000583
v 0.000000 0.126885 -0.000052
v -0.002447 0.126885 0.000583
v -0.003460 0.126885 -0.000000
v -0.002447 0.126885 -0.003697
v 0.001545 0.130674 -0.002117
v 0.003090 0.130674 -0.004448
v 0.004371 0.130674 0.000000
v -0.001545 0.130674 -0.002117
v -0.003090 0.130674 -0.001836
v -0.004371 0.130674 -0.000000
v -0.003090 0.130674 -0.004448
v 0.000000 0.126885 -0.004700
v 0.001223 0.126885 0.000301
v -0.001223 0.126885 0.000301
v 0.001223 0.120460 0.002922
v -0.001223 0.120460 0.002922
v -0.001223 0.124738 0.002116
v 0.001223 0.124738 0.002116
v 0.000000 0.124738 -0.004091
v 0.002447 0.124738 -0.003088
v 0.003460 0.124738 -0.000000
v 0.002447 0.124738 0.001614
v 0.000000 0.124738 0.002617
v -0.002447 0.124738 0.001614
v -0.003460 0.124738 -0.000000
v -0.002447 0.124738 -0.003088
v 0.007070 0.059708 -0.007070
v 0.000000 0.059708 -0.009999
v 0.009999 0.059708 0.000000
v 0.007070 0.059708 0.007070
v -0.000000 0.059708 0.009999
v -0.007070 0.059708 0.007070
v -0.009999 0.059708 -0.000000
v -0.007070 0.059708 -0.007070
v 0.007070 0.067248 -0.007070
v 0.000000 0.067248 -0.009999
v 0.009999 0.067248 0.000000
v 0.007070 0.067248 0.007070
v -0.000000 0.067248 0.009999
v -0.007070 0.067248 0.007070
v -0.009999 0.067248 -0.000000
v -0.007070 0.067248 -0.007070
v 0.000000 0.130674 -0.005451
v 0.000000 0.130674 -0.002470
v 0.003090 0.130674 -0.001836
v 0.001838 0.134588 -0.004338
v 0.003676 0.134588 -0.004832
v 0.005199 0.134588 0.000058
v -0.001838 0.134588 -0.004338
v -0.003676 0.134588 -0.001779
v -0.005199 0.134588 0.000058
v -0.003676 0.134588 -0.004832
v 0.000000 0.134588 -0.006003
v 0.000000 0.134588 -0.004751
v 0.003676 0.134588 -0.001779
v 0.001838 0.147171 -0.004297
v 0.003676 0.147171 -0.004790
v 0.005199 0.147171 0.000898
v -0.001838 0.147171 -0.004297
v -0.003676 0.147171 -0.001737
v -0.005199 0.147171 0.000898
v -0.003676 0.147171 -0.004790
v 0.000000 0.147171 -0.005961
v 0.000000 0.147171 -0.004709
v 0.003676 0.147171 -0.001737
v 0.001838 0.150658 -0.003478
v 0.003676 0.150762 -0.003961
v 0.005199 0.149562 0.001600
v -0.001838 0.150658 -0.003478
v -0.003676 0.150118 -0.000977
v -0.005199 0.149562 0.001600
v -0.003676 0.150762 -0.003961
v 0.000000 0.151010 -0.005106
v 0.000000 0.150745 -0.003881
v 0.003676 0.150118 -0.000977
v 0.001838 0.155162 -0.001018
v 0.003676 0.154565 0.000493
v 0.005199 0.153252 0.003813
v -0.001838 0.155162 -0.001018
v -0.003676 0.154221 0.001362
v -0.005199 0.153252 0.003813
v -0.003676 0.154565 0.000493
v 0.000000 0.155492 -0.001851
v 0.000000 0.155314 -0.001402
v 0.003676 0.154221 0.001362
v 0.001838 0.155276 -0.001306
v -0.001838 0.155276 -0.001306
v -0.001838 0.150886 -0.004533
v 0.001838 0.150886 -0.004533
vt 0.125000 0.130000
vt 0.125000 0.130000
vt 0.125000 0.130000
vt 0.125000 0.130000
vt 0.125000 0.130000
vt 0.125000 0.130000
vt 0.125000 0.130000
vt 0.125000 0.130000
vt 0.125000 0.130000
vt 0.125000 0.130000
vt 0.125000 0.130000
vt 0.125000 0.130000
vt 0.125000 0.130000
vt 0.125000 0.130000
vt 0.125000 0.130000
vt 0.125000 0.130000
vt 0.125000 0.130000
vt 0.125000 0.130000
vt 0.125000 0.130000
vt 0.125000 0.130000
vt 0.125000 0.130000
vt 0.125000 0.130000
vt 0.125000 0.130000
vt 0.125000 0.130000
vt 0.125000 0.130000
vt 0.125000 0.130000
vt 0.125000 0.130000
vt 0.125000 0.130000
vt 0.125000 0.130000
vt 0.125000 0.130000
vt 0.125000 0.130000
vt 0.125000 0.130000
vt 0.125000 0.130000
vt 0.125000 0.130000
vt 0.125000 0.130000
vt 0.125000 0.130000
vt 0.125000 0.130000
vt 0.125000 0.130000
vt 0.125000 0.130000
vt 0.125000 0.130000
vt 0.125000 0.130000
vt 0.125000 0.130000
vt 0.125000 0.130000
vt 0.125000 0.130000
vt 0.875000 0.130000
vt 0.875000 0.130000
vt 0.875000 0.130000
vt 0.875000 0.130000
vt 0.125000 0.130000
vt 0.125000 0.130000
vt 0.125000 0.130000
vt 0.125000 0.130000
vt 0.125000 0.130000
vt 0.125000 0.130000
vt 0.125000 0.130000
vt 0.125000 0.130000
vt 0.125000 0.130000
vt 0.125000 0.130000
vt 0.875000 0.130000
vt 0.875000 0.130000
vt 0.875000 0.130000
vt 0.875000 0.130000
vt 0.875000 0.130000
vt 0.875000 0.130000
vt 0.875000 0.130000
vt 0.875000 0.130000
vt 0.875000 0.130000
vt 0.875000 0.130000
vt 0.875000 0.130000
vt 0.875000 0.130000
vt 0.875000 0.130000
vt 0.875000 0.130000
vt 0.875000 0.130000
vt 0.875000 0.130000
vt 0.875000 0.130000
vt 0.875000 0.130000
vt 0.875000 0.130000
vt 0.875000 0.130000
vt 0.125000 0.130000
vt 0.125000 0.130000
vt 0.125000 0.130000
vt 0.125000 0.130000
vt 0.125000 0.130000
vt 0.125000 0.130000
vt 0.125000 0.130000
vt 0.125000 0.130000
vt 0.125000 0.130000
vt 0.125000 0.130000
vt 0.125000 0.130000
vt 0.125000 0.130000
vt 0.875000 0.130000
vt 0.875000 0.130000
vt 0.875000 0.130000
vt 0.875000 0.130000
vt 0.875000 0.130000
vt 0.875000 0.130000
vt 0.875000 0.130000
vt 0.875000 0.130000
vt 0.875000 0.130000
vt 0.875000 0.130000
vt 0.875000 0.130000
vt 0.875000 0.130000
vt 0.875000 0.130000
vt 0.875000 0.130000
vt 0.125000 0.130000
vt 0.125000 0.130000
vt 0.125000 0.130000
vt 0.125000 0.130000
vt 0.125000 0.130000
vt 0.125000 0.130000
vt 0.875000 0.130000
vt 0.875000 0.130000
vt 0.875000 0.130000
vt 0.875000 0.130000
vt 0.875000 0.130000
vt 0.875000 0.130000
vt 0.875000 0.130000
vt 0.875000 0.130000
vt 0.875000 0.130000
vt 0.875000 0.130000
vt 0.875000 0.130000
vt 0.875000 0.130000
vt 0.875000 0.130000
vt 0.875000 0.130000
vt 0.875000 0.130000
vt 0.875000 0.130000
vt 0.875000 0.130000
vt 0.875000 0.130000
vt 0.875000 0.130000
vt 0.875000 0.130000
vt 0.875000 0.130000
vt 0.875000 0.130000
vt 0.875000 0.130000
vt 0.875000 0.130000
vt 0.875000 0.130000
vt 0.875000 0.130000
vt 0.875000 0.130000
vt 0.875000 0.130000
vt 0.875000 0.130000
vt 0.875000 0.130000
vt 0.875000 0.130000
vt 0.875000 0.130000
vt 0.875000 0.130000
vt 0.875000 0.130000
vt 0.875000 0.130000
vt 0.875000 0.130000
vt 0.875000 0.130000
vt 0.875000 0.130000
vt 0.875000 0.130000
vt 0.875000 0.130000
vt 0.875000 0.130000
vt 0.875000 0.130000
vt 0.875000 0.130000
vt 0.875000 0.130000
vt 0.875000 0.130000
vt 0.875000 0.130000
vt 0.875000 0.130000
vt 0.875000 0.130000
vt 0.875000 0.130000
vt 0.875000 0.130000
vt 0.875000 0.130000
vt 0.875000 0.130000
vt 0.875000 0.130000
vt 0.875000 0.130000
vt 0.875000 0.130000
vt 0.875000 0.130000
vt 0.875000 0.130000
vt 0.875000 0.130000
vt 0.875000 0.130000
vt 0.875000 0.130000
vt 0.875000 0.130000
vt 0.875000 0.130000
vt 0.875000 0.130000
vt 0.875000 0.130000
vt 0.875000 0.130000
vt 0.875000 0.130000
vt 0.875000 0.130000
vt 0.875000 0.130000
vt 0.875000 0.130000
vt 0.875000 0.130000
vt 0.875000 0.130000
vt 0.875000 0.130000
vt 0.875000 0.130000
vt 0.875000 0.130000
vt 0.875000 0.130000
vt 0.875000 0.130000
vt 0.875000 0.130000
vt 0.875000 0.130000
vt 0.875000 0.130000
vt 0.875000 0.130000
vt 0.875000 0.130000
vt 0.875000 0.130000
vt 0.875000 0.130000
vt 0.875000 0.130000
vt 0.875000 0.130000
vt 0.875000 0.130000
vt 0.875000 0.130000
vt 0.875000 0.130000
vt 0.875000 0.130000
vt 0.875000 0.130000
vt 0.875000 0.130000
vt 0.875000 0.130000
vt 0.875000 0.130000
vt 0.875000 0.130000
vn 0.3827 0.0000 -0.9239
vn 0.9239 0.0000 -0.3827
vn 0.9239 0.0000 0.3827
vn 0.3827 0.0000 0.9239
vn -0.3827 0.0000 0.9239
vn -0.9239 0.0000 0.3827
vn -0.9172 0.1201 -0.3799
vn -0.9239 0.0000 -0.3827
vn -0.3827 0.0000 -0.9239
vn 0.7569 -0.5735 0.3135
vn -0.3811 0.0922 -0.9199
vn 0.9172 0.1201 -0.3799
vn -0.3799 0.1201 0.9172
vn -0.3799 0.1201 -0.9172
vn 0.3799 0.1201 -0.9172
vn 0.9172 0.1201 0.3799
vn -0.9172 0.1201 0.3799
vn 0.3799 0.1201 0.9172
vn 0.8756 -0.3192 0.3627
vn -0.9199 0.0922 0.3811
vn 0.3811 0.0922 0.9199
vn 0.9199 0.0922 -0.3811
vn -0.9199 0.0922 -0.3811
vn -0.3811 0.0922 0.9199
vn 0.9199 0.0922 0.3811
vn 0.3811 0.0922 -0.9199
vn -0.9195 0.0969 -0.3809
vn 0.3627 -0.3192 -0.8756
vn -0.3627 -0.3192 -0.8756
vn -0.8756 -0.3192 0.3627
vn 0.3627 -0.3192 0.8756
vn 0.8756 -0.3192 -0.3627
vn -0.8756 -0.3192 -0.3627
vn -0.3627 -0.3192 0.8756
vn 0.2871 0.9505 -0.1189
vn -0.3809 0.0969 0.9195
vn 0.9195 0.0969 0.3809
vn 0.3809 0.0969 -0.9195
vn -0.3809 0.0969 -0.9195
vn -0.9195 0.0969 0.3809
vn 0.3809 0.0969 0.9195
vn 0.9195 0.0969 -0.3809
vn -0.3504 0.4021 -0.8459
vn 0.2871 -0.9505 0.1189
vn 0.1189 0.9505 -0.2871
vn 0.2871 -0.9505 -0.1189
vn -0.1189 0.9505 -0.2871
vn 0.1189 -0.9505 -0.2871
vn -0.2871 0.9505 -0.1189
vn -0.1189 -0.9505 -0.2871
vn -0.3424 0.4421 0.8290
vn -0.8459 0.4021 0.3504
vn 0.3504 0.4021 0.8459
vn 0.8459 0.4021 -0.3504
vn -0.8459 0.4021 -0.3504
vn -0.3504 0.4021 0.8459
vn 0.8459 0.4021 0.3504
vn 0.3504 0.4021 -0.8459
vn -0.9224 0.0000 -0.3862
vn 0.8291 0.4405 0.3444
vn 0.3424 0.4421 -0.8290
vn -0.3424 0.4421 -0.8290
vn -0.8291 0.4405 0.3444
vn 0.3424 0.4421 0.8290
vn 0.8291 0.4405 -0.3444
vn -0.8291 0.4405 -0.3444
vn 0.0000 -1.0000 0.0000
vn -0.7569 -0.5735 0.3135
vn 0.3135 -0.5735 0.7569
vn -0.7569 -0.5735 -0.3135
vn 0.7569 -0.5735 -0.3135
vn -0.3135 -0.5735 0.7569
vn -0.3135 -0.5735 -0.7569
vn 0.3135 -0.5735 -0.7569
vn -0.3792 0.0000 0.9253
vn 0.3792 -0.0000 -0.9253
vn 0.3792 -0.0000 0.9253
vn -0.9224 0.0000 0.3862
vn -0.3736 0.1718 0.9115
vn 0.9224 -0.0000 0.3862
vn -0.3792 0.0000 -0.9253
vn 0.9574 -0.0405 -0.2860
vn -0.7323 0.4505 0.5107
vn -0.2092 0.5325 0.8202
vn -0.6186 0.2731 0.7367
vn -0.1672 0.5456 0.8212
vn 0.7323 0.4505 0.5107
vn 0.1672 0.5456 0.8212
vn 0.2092 0.5325 0.8202
vn 0.0419 0.7215 0.6912
vn 0.3329 -0.2106 -0.9192
vn -0.3329 -0.2106 -0.9192
vn 0.9392 -0.2189 -0.2645
vn 0.4950 -0.1190 0.8607
vn -0.4950 -0.1190 0.8607
vn 0.3736 0.1718 0.9115
vn 0.7255 0.1607 0.6692
vn 0.0746 0.5508 0.8313
vn -0.7255 0.1607 0.6692
vn -0.9574 -0.0405 -0.2860
vn -0.0746 0.5508 0.8313
vn -0.0419 0.7215 0.6912
vn 0.3668 -0.2537 -0.8950
vn -0.9382 -0.0269 -0.3451
vn -0.8928 0.0423 0.4485
vn -0.3753 -0.1429 -0.9158
vn 0.3753 -0.1429 -0.9158
vn -0.3668 -0.2537 -0.8950
vn 0.8928 0.0423 0.4485
vn -0.9392 -0.2189 -0.2644
vn 0.9224 -0.0000 -0.3862
vn 0.9382 -0.0269 -0.3451
vn 0.1189 -0.9505 0.2871
vn 0.2871 0.9505 0.1189
vn -0.1189 -0.9505 0.2871
vn 0.1189 0.9505 0.2871
vn -0.2871 -0.9505 0.1189
vn -0.1189 0.9505 0.2871
vn -0.2871 -0.9505 -0.1189
vn -0.2871 0.9505 0.1189
vn -0.2190 -0.0032 0.9757
vn -0.3031 -0.1354 -0.9433
vn 0.3031 -0.1354 -0.9433
vn -0.1918 0.4946 0.8477
vn 0.6186 0.2731 0.7367
vn -0.9418 -0.1818 -0.2827
vn -0.7879 0.1335 0.6012
vn 0.1918 0.4946 0.8477
vn 0.9418 -0.1818 -0.2827
vn 0.7879 0.1335 0.6012
vn -0.8618 -0.1340 0.4893
vn -0.8265 -0.0197 0.5626
vn 0.3036 0.0032 -0.9528
vn -0.8122 -0.0019 0.5833
vn -0.3036 0.0032 -0.9528
vn 0.8265 -0.0197 0.5626
vn 0.8122 -0.0019 0.5833
vn 0.2190 -0.0032 0.9757
vn 0.9609 0.0097 -0.2766
vn -0.9609 0.0097 -0.2766
vn 0.2872 0.5650 -0.7735
vn 0.3002 0.2110 -0.9302
vn -0.8081 -0.1404 0.5720
vn -0.3002 0.2110 -0.9302
vn 0.8618 -0.1340 0.4893
vn 0.8081 -0.1404 0.5720
vn 0.2162 -0.2216 0.9509
vn 0.9649 0.0651 -0.2543
vn -0.9649 0.0651 -0.2543
vn -0.2162 -0.2216 0.9509
vn 0.0000 0.9300 0.3676
vn -0.8048 -0.2890 0.5184
vn -0.5306 0.5797 -0.6184
vn 0.8590 -0.2581 0.4421
vn 0.8048 -0.2890 0.5184
vn 0.2139 -0.4671 0.8579
vn 0.9389 0.2288 -0.2572
vn -0.9389 0.2288 -0.2572
vn -0.2139 -0.4671 0.8579
vn -0.8590 -0.2581 0.4421
vn 0.5306 0.5797 -0.6184
vn -0.2872 0.5650 -0.7735
usemtl Material.002
s off
f 1/1/1 2/2/1 4/3/1 3/4/1
f 3/4/2 4/3/2 6/5/2 5/6/2
f 5/6/3 6/5/3 8/7/3 7/8/3
f 7/8/4 8/7/4 10/9/4 9/10/4
f 9/10/5 10/9/5 12/11/5 11/12/5
f 11/12/6 12/11/6 14/13/6 13/14/6
f 16/15/7 14/13/7 23/16/7 24/17/7
f 13/14/8 14/13/8 16/15/8 15/18/8
f 15/18/9 16/15/9 2/2/9 1/1/9
f 5/6/10 7/8/10 76/19/10 75/20/10
f 17/21/11 24/17/11 32/22/11 25/23/11
f 6/5/12 4/3/12 18/24/12 19/25/12
f 12/11/13 10/9/13 21/26/13 22/27/13
f 2/2/14 16/15/14 24/17/14 17/21/14
f 4/3/15 2/2/15 17/21/15 18/24/15
f 8/7/16 6/5/16 19/25/16 20/28/16
f 14/13/17 12/11/17 22/27/17 23/16/17
f 10/9/18 8/7/18 20/28/18 21/26/18
f 28/29/19 27/30/19 35/31/19 36/32/19
f 23/16/20 22/27/20 30/33/20 31/34/20
f 21/26/21 20/28/21 28/29/21 29/35/21
f 19/25/22 18/24/22 26/36/22 27/30/22
f 24/17/23 23/16/23 31/34/23 32/22/23
f 22/27/24 21/26/24 29/35/24 30/33/24
f 20/28/25 19/25/25 27/30/25 28/29/25
f 18/24/26 17/21/26 25/23/26 26/36/26
f 40/37/27 39/38/27 47/39/27 48/40/27
f 26/36/28 25/23/28 33/41/28 34/42/28
f 25/23/29 32/22/29 40/37/29 33/41/29
f 31/34/30 30/33/30 38/43/30 39/38/30
f 29/35/31 28/29/31 36/32/31 37/44/31
f 27/30/32 26/36/32 34/42/32 35/31/32
f 32/22/33 31/34/33 39/38/33 40/37/33
f 30/33/34 29/35/34 37/44/34 38/43/34
f 50/45/35 51/46/35 128/47/35 126/48/35
f 38/43/36 37/44/36 45/49/36 46/50/36
f 36/32/37 35/31/37 43/51/37 44/52/37
f 34/42/38 33/41/38 41/53/38 42/54/38
f 33/41/39 40/37/39 48/40/39 41/53/39
f 39/38/40 38/43/40 46/50/40 47/39/40
f 37/44/41 36/32/41 44/52/41 45/49/41
f 35/31/42 34/42/42 42/54/42 43/51/42
f 49/55/43 56/56/43 64/57/43 57/58/43
f 44/59/44 43/60/44 120/61/44 121/62/44
f 49/63/45 50/45/45 126/48/45 127/64/45
f 43/60/46 42/65/46 118/66/46 120/61/46
f 56/67/47 49/63/47 127/64/47 133/68/47
f 42/65/48 41/69/48 119/70/48 118/66/48
f 55/71/49 56/67/49 133/68/49 132/72/49
f 41/69/50 48/73/50 125/74/50 119/70/50
f 62/75/51 61/76/51 69/77/51 70/78/51
f 55/79/52 54/80/52 62/81/52 63/82/52
f 53/83/53 52/84/53 60/85/53 61/86/53
f 51/87/54 50/88/54 58/89/54 59/90/54
f 56/56/55 55/79/55 63/82/55 64/57/55
f 54/80/56 53/83/56 61/86/56 62/81/56
f 52/84/57 51/87/57 59/90/57 60/85/57
f 50/88/58 49/55/58 57/58/58 58/89/58
f 72/91/59 71/92/59 82/93/59 81/94/59
f 60/95/60 59/96/60 67/97/60 68/98/60
f 58/99/61 57/100/61 65/101/61 66/102/61
f 57/100/62 64/103/62 72/91/62 65/101/62
f 63/104/63 62/75/63 70/78/63 71/92/63
f 61/76/64 60/95/64 68/98/64 69/77/64
f 59/96/65 58/99/65 66/102/65 67/97/65
f 64/103/66 63/104/66 71/92/66 72/91/66
f 73/105/67 74/106/67 75/20/67 76/19/67 77/107/67 78/108/67 79/109/67 80/110/67
f 11/12/68 13/14/68 79/109/68 78/108/68
f 7/8/69 9/10/69 77/107/69 76/19/69
f 13/14/70 15/18/70 80/110/70 79/109/70
f 3/4/71 5/6/71 75/20/71 74/106/71
f 9/10/72 11/12/72 78/108/72 77/107/72
f 15/18/73 1/1/73 73/105/73 80/110/73
f 1/1/74 3/4/74 74/106/74 73/105/74
f 70/78/75 69/77/75 84/111/75 107/112/75 83/113/75
f 66/102/76 65/101/76 88/114/76 87/115/76
f 69/77/77 68/98/77 85/116/77 106/117/77 84/111/77
f 71/92/78 70/78/78 83/113/78 82/93/78
f 107/112/79 84/111/79 114/118/79 108/119/79
f 68/98/80 67/97/80 86/120/80 85/116/80
f 65/101/81 72/91/81 81/94/81 88/114/81
f 112/121/82 111/122/82 89/123/82 90/124/82
f 136/125/83 91/126/83 98/127/83
f 92/128/84 104/129/84 96/130/84 135/131/84
f 96/130/85 136/125/85 146/132/85 137/133/85
f 104/129/86 91/126/86 136/125/86 96/130/86
f 93/134/87 100/135/87 101/136/87
f 93/134/88 105/137/88 99/138/88 100/135/88
f 105/137/89 92/128/89 135/131/89 99/138/89
f 114/118/90 109/139/90 104/129/90 92/128/90
f 89/123/91 103/140/91 134/141/91 97/142/91
f 103/140/92 95/143/92 102/144/92 134/141/92
f 90/124/93 89/123/93 97/142/93 98/127/93
f 91/126/94 90/124/94 98/127/94
f 94/145/95 93/134/95 101/136/95
f 84/111/96 106/117/96 109/139/96 114/118/96
f 113/146/97 112/121/97 90/124/97 91/126/97
f 109/139/98 113/146/98 91/126/98 104/129/98
f 116/147/99 115/148/99 93/134/99 94/145/99
f 117/149/100 116/147/100 94/145/100 95/143/100
f 115/148/101 108/119/101 105/137/101 93/134/101
f 108/119/102 114/118/102 92/128/102 105/137/102
f 111/122/103 110/150/103 103/140/103 89/123/103
f 81/94/104 82/93/104 116/147/104 117/149/104
f 82/93/105 83/113/105 115/148/105 116/147/105
f 88/114/106 81/94/106 117/149/106 110/150/106
f 87/115/107 88/114/107 110/150/107 111/122/107
f 110/150/108 117/149/108 95/143/108 103/140/108
f 85/116/109 86/120/109 112/121/109 113/146/109
f 106/117/96 85/116/96 113/146/96 109/139/96
f 95/143/110 94/145/110 101/136/110 102/144/110
f 83/113/79 107/112/79 108/119/79 115/148/79
f 67/97/111 66/102/111 87/115/111 86/120/111
f 86/120/112 87/115/112 111/122/112 112/121/112
f 122/151/4 121/62/4 129/152/4 130/153/4
f 120/61/2 118/66/2 126/48/2 128/47/2
f 125/74/8 124/154/8 132/72/8 133/68/8
f 123/155/5 122/151/5 130/153/5 131/156/5
f 121/62/3 120/61/3 128/47/3 129/152/3
f 118/66/1 119/70/1 127/64/1 126/48/1
f 119/70/9 125/74/9 133/68/9 127/64/9
f 124/154/6 123/155/6 131/156/6 132/72/6
f 45/157/113 44/59/113 121/62/113 122/151/113
f 51/46/114 52/158/114 129/152/114 128/47/114
f 46/159/115 45/157/115 122/151/115 123/155/115
f 52/158/116 53/160/116 130/153/116 129/152/116
f 47/161/117 46/159/117 123/155/117 124/154/117
f 53/160/118 54/162/118 131/156/118 130/153/118
f 48/73/119 47/161/119 124/154/119 125/74/119
f 54/162/120 55/71/120 132/72/120 131/156/120
f 145/163/121 137/133/121 147/164/121 155/165/121
f 134/141/122 102/144/122 143/166/122 144/167/122
f 97/142/123 134/141/123 144/167/123 138/168/123
f 135/131/124 96/130/124 137/133/124 145/163/124
f 100/135/125 99/138/125 140/169/125 141/170/125
f 102/144/126 101/136/126 142/171/126 143/166/126
f 136/125/127 98/127/127 139/172/127 146/132/127
f 99/138/128 135/131/128 145/163/128 140/169/128
f 98/127/129 97/142/129 138/168/129 139/172/129
f 101/136/130 100/135/130 141/170/130 142/171/130
f 156/173/131 149/174/131 159/175/131 166/176/131
f 146/132/132 139/172/132 149/174/132 156/173/132
f 138/168/133 144/167/133 154/177/133 148/178/133
f 137/133/134 146/132/134 156/173/134 147/164/134
f 144/167/135 143/166/135 153/179/135 154/177/135
f 142/171/136 141/170/136 151/180/136 152/181/136
f 141/170/137 140/169/137 150/182/137 151/180/137
f 140/169/138 145/163/138 155/165/138 150/182/138
f 139/172/139 138/168/139 148/178/139 149/174/139
f 143/166/140 142/171/140 152/181/140 153/179/140
f 180/183/141 164/184/141 174/185/141 177/186/141
f 148/178/142 154/177/142 164/184/142 180/183/142 158/187/142
f 147/164/143 156/173/143 166/176/143 157/188/143
f 154/177/144 153/179/144 163/189/144 179/190/144 164/184/144
f 152/181/145 151/180/145 161/191/145 162/192/145
f 151/180/146 150/182/146 160/193/146 161/191/146
f 150/182/147 155/165/147 165/194/147 160/193/147
f 149/174/148 148/178/148 158/187/148 159/175/148
f 153/179/149 152/181/149 162/192/149 163/189/149
f 155/165/150 147/164/150 157/188/150 165/194/150
f 168/195/151 177/186/151 174/185/151 178/196/151 173/197/151 172/198/151 171/199/151 170/200/151 175/201/151 167/202/151 176/203/151 169/204/151
f 157/188/152 166/176/152 176/203/152 167/202/152
f 179/190/153 163/189/153 173/197/153 178/196/153
f 162/192/154 161/191/154 171/199/154 172/198/154
f 161/191/155 160/193/155 170/200/155 171/199/155
f 160/193/156 165/194/156 175/201/156 170/200/156
f 159/175/157 158/187/157 168/195/157 169/204/157
f 163/189/158 162/192/158 172/198/158 173/197/158
f 165/194/159 157/188/159 167/202/159 175/201/159
f 166/176/160 159/175/160 169/204/160 176/203/160
f 158/187/161 180/183/161 177/186/161 168/195/161
f 164/184/162 179/190/162 178/196/162 174/185/162
