# Blender v2.83.5 OBJ File: 'chisel01.blend'
# www.blender.org
mtllib chisel01.mtl
o Cylinder_Cylinder.002
v 0.000000 -0.015160 -0.015160
v 0.000000 -0.001073 -0.015160
v 0.010720 -0.015160 -0.010720
v 0.010720 -0.001073 -0.010720
v 0.015160 -0.015160 0.000000
v 0.015160 -0.001073 0.000000
v 0.010720 -0.015160 0.010720
v 0.010720 -0.001073 0.010720
v -0.000000 -0.015160 0.015160
v -0.000000 -0.001073 0.015160
v -0.010720 -0.015160 0.010720
v -0.010720 -0.001073 0.010720
v -0.015160 -0.015160 -0.000000
v -0.015160 -0.001073 -0.000000
v -0.010720 -0.015160 -0.010720
v -0.010720 -0.001073 -0.010720
v -0.000000 0.027015 -0.011382
v 0.008048 0.027015 -0.008048
v 0.011382 0.027015 0.000000
v 0.008048 0.027015 0.008048
v -0.000000 0.027015 0.011382
v -0.008048 0.027015 0.008048
v -0.011382 0.027015 -0.000000
v -0.008048 0.027015 -0.008048
v -0.000000 0.049075 -0.008218
v 0.005811 0.049075 -0.005811
v 0.008218 0.049075 0.000000
v 0.005811 0.049075 0.005811
v -0.000000 0.049075 0.008218
v -0.005811 0.049075 0.005811
v -0.008218 0.049075 -0.000000
v -0.005811 0.049075 -0.005811
v 0.000000 0.053991 -0.010011
v 0.007079 0.053991 -0.007079
v 0.010011 0.053991 0.000000
v 0.007079 0.053991 0.007079
v -0.000000 0.053991 0.010011
v -0.007079 0.053991 0.007079
v -0.010011 0.053991 -0.000000
v -0.007079 0.053991 -0.007079
v 0.000000 0.059607 -0.009664
v 0.006834 0.059607 -0.006834
v 0.009664 0.059607 0.000000
v 0.006834 0.059607 0.006834
v -0.000000 0.059607 0.009664
v -0.006834 0.059607 0.006834
v -0.009664 0.059607 -0.000000
v -0.006834 0.059607 -0.006834
v 0.000000 0.067350 -0.009664
v 0.006834 0.067350 -0.006834
v 0.009664 0.067350 0.000000
v 0.006834 0.067350 0.006834
v -0.000000 0.067350 0.009664
v -0.006834 0.067350 0.006834
v -0.009664 0.067350 -0.000000
v -0.006834 0.067350 -0.006834
v 0.000000 0.068253 -0.009234
v 0.006530 0.068253 -0.006530
v 0.009234 0.068253 0.000000
v 0.006530 0.068253 0.006530
v -0.000000 0.068253 0.009234
v -0.006530 0.068253 0.006530
v -0.009234 0.068253 -0.000000
v -0.006530 0.068253 -0.006530
v -0.000000 0.079137 -0.002055
v 0.004421 0.079137 -0.001453
v 0.006252 0.079137 -0.000000
v 0.004421 0.079137 0.001453
v -0.000000 0.079137 0.002055
v -0.004421 0.079137 0.001453
v -0.006252 0.079137 -0.000000
v -0.004421 0.079137 -0.001453
v 0.000000 -0.020119 -0.011403
v 0.008063 -0.020119 -0.008063
v 0.011403 -0.020119 0.000000
v 0.008063 -0.020119 0.008063
v -0.000000 -0.020119 0.011403
v -0.008063 -0.020119 0.008063
v -0.011403 -0.020119 -0.000000
v -0.008063 -0.020119 -0.008063
v -0.000000 0.080832 -0.002174
v 0.004678 0.080832 -0.001537
v 0.006615 0.080832 -0.000000
v 0.004678 0.080832 0.001537
v -0.000000 0.080832 0.002174
v -0.004678 0.080832 0.001537
v -0.006615 0.080832 -0.000000
v -0.004678 0.080832 -0.001537
v -0.000000 0.082833 -0.002754
v 0.005926 0.082833 -0.001948
v 0.008381 0.082833 -0.000000
v 0.005926 0.082833 0.001948
v -0.000000 0.082833 0.002754
v -0.005926 0.082833 0.001948
v -0.008381 0.082833 -0.000000
v -0.005926 0.082833 -0.001948
v 0.000000 0.085720 -0.002980
v 0.007376 0.085720 -0.002463
v 0.012743 0.085720 -0.000000
v 0.007376 0.085720 0.002463
v -0.000000 0.085720 0.002980
v -0.007376 0.085720 0.002463
v -0.012743 0.085720 -0.000000
v -0.007376 0.085720 -0.002463
v 0.000000 0.185481 -0.002450
v 0.009011 0.185481 -0.002463
v 0.012743 0.191773 -0.000000
v 0.009011 0.185481 0.002463
v 0.000000 0.185481 0.002450
v -0.009010 0.185481 0.002463
v -0.012743 0.191773 -0.000000
v -0.009010 0.185481 -0.002463
v 0.000000 0.197408 -0.000000
v 0.009011 0.197408 -0.000000
v 0.012743 0.197408 -0.000000
v -0.009010 0.197408 -0.000000
v -0.012743 0.197408 -0.000000
v 0.007070 0.059708 -0.007070
v 0.000000 0.059708 -0.009999
v 0.009999 0.059708 0.000000
v 0.007070 0.059708 0.007070
v -0.000000 0.059708 0.009999
v -0.007070 0.059708 0.007070
v -0.009999 0.059708 -0.000000
v -0.007070 0.059708 -0.007070
v 0.007070 0.067248 -0.007070
v 0.000000 0.067248 -0.009999
v 0.009999 0.067248 0.000000
v 0.007070 0.067248 0.007070
v -0.000000 0.067248 0.009999
v -0.007070 0.067248 0.007070
v -0.009999 0.067248 -0.000000
v -0.007070 0.067248 -0.007070
vt 0.125000 0.130000
vt 0.125000 0.130000
vt 0.125000 0.130000
vt 0.125000 0.130000
vt 0.125000 0.130000
vt 0.125000 0.130000
vt 0.125000 0.130000
vt 0.125000 0.130000
vt 0.125000 0.130000
vt 0.125000 0.130000
vt 0.125000 0.130000
vt 0.125000 0.130000
vt 0.125000 0.130000
vt 0.125000 0.130000
vt 0.125000 0.130000
vt 0.125000 0.130000
vt 0.125000 0.130000
vt 0.125000 0.130000
vt 0.125000 0.130000
vt 0.125000 0.130000
vt 0.125000 0.130000
vt 0.125000 0.130000
vt 0.125000 0.130000
vt 0.125000 0.130000
vt 0.125000 0.130000
vt 0.125000 0.130000
vt 0.125000 0.130000
vt 0.125000 0.130000
vt 0.125000 0.130000
vt 0.125000 0.130000
vt 0.125000 0.130000
vt 0.125000 0.130000
vt 0.125000 0.130000
vt 0.125000 0.130000
vt 0.125000 0.130000
vt 0.125000 0.130000
vt 0.125000 0.130000
vt 0.125000 0.130000
vt 0.125000 0.130000
vt 0.125000 0.130000
vt 0.125000 0.130000
vt 0.125000 0.130000
vt 0.125000 0.130000
vt 0.125000 0.130000
vt 0.875000 0.130000
vt 0.875000 0.130000
vt 0.875000 0.130000
vt 0.875000 0.130000
vt 0.125000 0.130000
vt 0.125000 0.130000
vt 0.125000 0.130000
vt 0.125000 0.130000
vt 0.125000 0.130000
vt 0.125000 0.130000
vt 0.125000 0.130000
vt 0.125000 0.130000
vt 0.125000 0.130000
vt 0.125000 0.130000
vt 0.875000 0.130000
vt 0.875000 0.130000
vt 0.875000 0.130000
vt 0.875000 0.130000
vt 0.875000 0.130000
vt 0.875000 0.130000
vt 0.875000 0.130000
vt 0.875000 0.130000
vt 0.875000 0.130000
vt 0.875000 0.130000
vt 0.875000 0.130000
vt 0.875000 0.130000
vt 0.875000 0.130000
vt 0.875000 0.130000
vt 0.875000 0.130000
vt 0.875000 0.130000
vt 0.875000 0.130000
vt 0.875000 0.130000
vt 0.875000 0.130000
vt 0.875000 0.130000
vt 0.125000 0.130000
vt 0.125000 0.130000
vt 0.125000 0.130000
vt 0.125000 0.130000
vt 0.125000 0.130000
vt 0.125000 0.130000
vt 0.125000 0.130000
vt 0.125000 0.130000
vt 0.125000 0.130000
vt 0.125000 0.130000
vt 0.125000 0.130000
vt 0.125000 0.130000
vt 0.908760 0.130000
vt 0.908760 0.130000
vt 0.908760 0.130000
vt 0.908760 0.130000
vt 0.875000 0.130000
vt 0.875000 0.130000
vt 0.875000 0.130000
vt 0.875000 0.130000
vt 0.875000 0.130000
vt 0.875000 0.130000
vt 0.875000 0.130000
vt 0.875000 0.130000
vt 0.875000 0.130000
vt 0.875000 0.130000
vt 0.875000 0.130000
vt 0.875000 0.130000
vt 0.125000 0.130000
vt 0.125000 0.130000
vt 0.125000 0.130000
vt 0.125000 0.130000
vt 0.125000 0.130000
vt 0.125000 0.130000
vt 0.596260 0.130000
vt 0.596260 0.130000
vt 0.596260 0.130000
vt 0.596260 0.130000
vt 0.596260 0.130000
vt 0.596260 0.130000
vt 0.596260 0.130000
vt 0.596260 0.130000
vt 0.908760 0.130000
vt 0.908760 0.130000
vt 0.908760 0.130000
vt 0.908760 0.130000
vt 0.596260 0.130000
vt 0.596260 0.130000
vt 0.596260 0.130000
vt 0.596260 0.130000
vt 0.908760 0.130000
vt 0.908760 0.130000
vt 0.596260 0.130000
vt 0.596260 0.130000
vt 0.908760 0.130000
vt 0.908760 0.130000
vt 0.908760 0.130000
vt 0.908760 0.130000
vt 0.908760 0.130000
vt 0.908760 0.130000
vt 0.596260 0.130000
vt 0.908760 0.130000
vt 0.596260 0.130000
vt 0.596260 0.130000
vt 0.908760 0.130000
vt 0.908760 0.130000
vt 0.596260 0.130000
vt 0.908760 0.130000
vt 0.908760 0.130000
vt 0.908760 0.130000
vt 0.908760 0.130000
vt 0.908760 0.130000
vt 0.596260 0.130000
vt 0.596260 0.130000
vt 0.908760 0.130000
vt 0.596260 0.130000
vt 0.596260 0.130000
vt 0.596260 0.130000
vt 0.908760 0.130000
vt 0.596260 0.130000
vt 0.908760 0.130000
vt 0.908760 0.130000
vt 0.908760 0.130000
vt 0.908760 0.130000
vt 0.908760 0.130000
vt 0.596260 0.130000
vt 0.596260 0.130000
vt 0.908760 0.130000
vt 0.596260 0.130000
vt 0.596260 0.130000
vt 0.596260 0.130000
vt 0.908760 0.130000
vt 0.596260 0.130000
vt 0.908760 0.130000
vt 0.908760 0.130000
vt 0.908760 0.130000
vt 0.908760 0.130000
vt 0.875000 0.130000
vt 0.875000 0.130000
vt 0.875000 0.130000
vt 0.875000 0.130000
vt 0.875000 0.130000
vt 0.875000 0.130000
vt 0.875000 0.130000
vt 0.875000 0.130000
vt 0.875000 0.130000
vt 0.875000 0.130000
vt 0.875000 0.130000
vt 0.875000 0.130000
vn 0.3827 0.0000 -0.9239
vn 0.9239 0.0000 -0.3827
vn 0.9239 0.0000 0.3827
vn 0.3827 0.0000 0.9239
vn -0.3827 0.0000 0.9239
vn -0.9239 0.0000 0.3827
vn -0.9168 0.1233 -0.3798
vn -0.9239 0.0000 -0.3827
vn -0.3827 0.0000 -0.9239
vn 0.7569 -0.5735 0.3135
vn -0.3794 0.1313 -0.9159
vn 0.9168 0.1233 -0.3798
vn -0.3798 0.1233 0.9168
vn -0.3798 0.1233 -0.9168
vn 0.3798 0.1233 -0.9168
vn 0.9168 0.1233 0.3798
vn -0.9168 0.1233 0.3798
vn 0.3798 0.1233 0.9168
vn 0.8756 -0.3192 0.3627
vn -0.9159 0.1313 0.3794
vn 0.3794 0.1313 0.9159
vn 0.9159 0.1313 -0.3794
vn -0.9159 0.1313 -0.3794
vn -0.3794 0.1313 0.9159
vn 0.9159 0.1313 0.3794
vn 0.3794 0.1313 -0.9159
vn -0.9224 0.0569 -0.3821
vn 0.3627 -0.3192 -0.8756
vn -0.3627 -0.3192 -0.8756
vn -0.8756 -0.3192 0.3627
vn 0.3627 -0.3192 0.8756
vn 0.8756 -0.3192 -0.3627
vn -0.8756 -0.3192 -0.3627
vn -0.3627 -0.3192 0.8756
vn 0.2871 0.9505 -0.1189
vn -0.3821 0.0569 0.9224
vn 0.9224 0.0569 0.3821
vn 0.3821 0.0569 -0.9224
vn -0.3821 0.0569 -0.9224
vn -0.9224 0.0569 0.3821
vn 0.3821 0.0569 0.9224
vn 0.9224 0.0569 -0.3821
vn -0.3504 0.4021 -0.8459
vn 0.2871 -0.9505 0.1189
vn 0.1189 0.9505 -0.2871
vn 0.2871 -0.9505 -0.1189
vn -0.1189 0.9505 -0.2871
vn 0.1189 -0.9505 -0.2871
vn -0.2871 0.9505 -0.1189
vn -0.1189 -0.9505 -0.2871
vn -0.2514 0.4933 0.8327
vn -0.8459 0.4021 0.3504
vn 0.3504 0.4021 0.8459
vn 0.8459 0.4021 -0.3504
vn -0.8459 0.4021 -0.3504
vn -0.3504 0.4021 0.8459
vn 0.8459 0.4021 0.3504
vn 0.3504 0.4021 -0.8459
vn -0.6161 -0.1321 -0.7765
vn 0.8284 0.3036 0.4707
vn 0.2514 0.4933 -0.8327
vn -0.2514 0.4933 -0.8327
vn -0.8284 0.3036 0.4707
vn 0.2514 0.4933 0.8327
vn 0.8284 0.3036 -0.4707
vn -0.8284 0.3036 -0.4707
vn 0.0000 -1.0000 -0.0000
vn -0.7569 -0.5735 0.3135
vn 0.3135 -0.5735 0.7569
vn -0.7569 -0.5735 -0.3135
vn 0.7569 -0.5735 -0.3135
vn -0.3135 -0.5735 0.7569
vn -0.3135 -0.5735 -0.7569
vn 0.3135 -0.5735 -0.7569
vn 0.1296 -0.2761 -0.9523
vn -0.1346 -0.0696 0.9885
vn 0.6161 -0.1321 0.7765
vn 0.1346 -0.0696 -0.9885
vn -0.1346 -0.0696 -0.9885
vn -0.6161 -0.1321 0.7765
vn 0.1346 -0.0696 0.9885
vn 0.6161 -0.1321 -0.7765
vn -0.4264 -0.4966 -0.7560
vn -0.1296 -0.2761 -0.9524
vn -0.5450 -0.4807 0.6869
vn 0.1296 -0.2761 0.9524
vn 0.5450 -0.4807 -0.6869
vn -0.5450 -0.4807 -0.6869
vn -0.1296 -0.2761 0.9524
vn 0.5450 -0.4807 0.6869
vn 0.4781 -0.0038 -0.8783
vn -0.0979 -0.1508 0.9837
vn 0.4264 -0.4966 0.7560
vn 0.0979 -0.1508 -0.9837
vn -0.0979 -0.1508 -0.9837
vn -0.4264 -0.4966 0.7560
vn 0.0979 -0.1508 0.9837
vn 0.4264 -0.4966 -0.7560
vn 0.0007 0.2017 -0.9794
vn -0.4781 -0.0038 -0.8783
vn -0.0307 0.0024 0.9995
vn 0.4781 -0.0038 0.8783
vn 0.0307 0.0024 -0.9995
vn -0.0307 0.0024 -0.9995
vn -0.4781 -0.0038 0.8783
vn 0.0307 0.0024 0.9995
vn -0.0000 0.2022 0.9793
vn -0.0007 0.2017 0.9794
vn 0.0000 0.2022 -0.9793
vn -0.5508 0.0000 -0.8346
vn 0.0007 0.2017 0.9794
vn 0.5508 0.0000 0.8346
vn -0.0007 0.2017 -0.9794
vn 0.5508 0.0000 -0.8346
vn -0.5508 0.0000 0.8346
vn 0.1189 -0.9505 0.2871
vn 0.2871 0.9505 0.1189
vn -0.1189 -0.9505 0.2871
vn 0.1189 0.9505 0.2871
vn -0.2871 -0.9505 0.1189
vn -0.1189 0.9505 0.2871
vn -0.2871 -0.9505 -0.1189
vn -0.2871 0.9505 0.1189
usemtl Material.002
s off
f 1/1/1 2/2/1 4/3/1 3/4/1
f 3/4/2 4/3/2 6/5/2 5/6/2
f 5/6/3 6/5/3 8/7/3 7/8/3
f 7/8/4 8/7/4 10/9/4 9/10/4
f 9/10/5 10/9/5 12/11/5 11/12/5
f 11/12/6 12/11/6 14/13/6 13/14/6
f 16/15/7 14/13/7 23/16/7 24/17/7
f 13/14/8 14/13/8 16/15/8 15/18/8
f 15/18/9 16/15/9 2/2/9 1/1/9
f 5/6/10 7/8/10 76/19/10 75/20/10
f 17/21/11 24/17/11 32/22/11 25/23/11
f 6/5/12 4/3/12 18/24/12 19/25/12
f 12/11/13 10/9/13 21/26/13 22/27/13
f 2/2/14 16/15/14 24/17/14 17/21/14
f 4/3/15 2/2/15 17/21/15 18/24/15
f 8/7/16 6/5/16 19/25/16 20/28/16
f 14/13/17 12/11/17 22/27/17 23/16/17
f 10/9/18 8/7/18 20/28/18 21/26/18
f 28/29/19 27/30/19 35/31/19 36/32/19
f 23/16/20 22/27/20 30/33/20 31/34/20
f 21/26/21 20/28/21 28/29/21 29/35/21
f 19/25/22 18/24/22 26/36/22 27/30/22
f 24/17/23 23/16/23 31/34/23 32/22/23
f 22/27/24 21/26/24 29/35/24 30/33/24
f 20/28/25 19/25/25 27/30/25 28/29/25
f 18/24/26 17/21/26 25/23/26 26/36/26
f 40/37/27 39/38/27 47/39/27 48/40/27
f 26/36/28 25/23/28 33/41/28 34/42/28
f 25/23/29 32/22/29 40/37/29 33/41/29
f 31/34/30 30/33/30 38/43/30 39/38/30
f 29/35/31 28/29/31 36/32/31 37/44/31
f 27/30/32 26/36/32 34/42/32 35/31/32
f 32/22/33 31/34/33 39/38/33 40/37/33
f 30/33/34 29/35/34 37/44/34 38/43/34
f 50/45/35 51/46/35 128/47/35 126/48/35
f 38/43/36 37/44/36 45/49/36 46/50/36
f 36/32/37 35/31/37 43/51/37 44/52/37
f 34/42/38 33/41/38 41/53/38 42/54/38
f 33/41/39 40/37/39 48/40/39 41/53/39
f 39/38/40 38/43/40 46/50/40 47/39/40
f 37/44/41 36/32/41 44/52/41 45/49/41
f 35/31/42 34/42/42 42/54/42 43/51/42
f 49/55/43 56/56/43 64/57/43 57/58/43
f 44/59/44 43/60/44 120/61/44 121/62/44
f 49/63/45 50/45/45 126/48/45 127/64/45
f 43/60/46 42/65/46 118/66/46 120/61/46
f 56/67/47 49/63/47 127/64/47 133/68/47
f 42/65/48 41/69/48 119/70/48 118/66/48
f 55/71/49 56/67/49 133/68/49 132/72/49
f 41/69/50 48/73/50 125/74/50 119/70/50
f 62/75/51 61/76/51 69/77/51 70/78/51
f 55/79/52 54/80/52 62/81/52 63/82/52
f 53/83/53 52/84/53 60/85/53 61/86/53
f 51/87/54 50/88/54 58/89/54 59/90/54
f 56/56/55 55/79/55 63/82/55 64/57/55
f 54/80/56 53/83/56 61/86/56 62/81/56
f 52/84/57 51/87/57 59/90/57 60/85/57
f 50/88/58 49/55/58 57/58/58 58/89/58
f 72/91/59 71/92/59 87/93/59 88/94/59
f 60/95/60 59/96/60 67/97/60 68/98/60
f 58/99/61 57/100/61 65/101/61 66/102/61
f 57/100/62 64/103/62 72/104/62 65/101/62
f 63/105/63 62/75/63 70/78/63 71/106/63
f 61/76/64 60/95/64 68/98/64 69/77/64
f 59/96/65 58/99/65 66/102/65 67/97/65
f 64/103/66 63/105/66 71/106/66 72/104/66
f 73/107/67 74/108/67 75/20/67 76/19/67 77/109/67 78/110/67 79/111/67 80/112/67
f 11/12/68 13/14/68 79/111/68 78/110/68
f 7/8/69 9/10/69 77/109/69 76/19/69
f 13/14/70 15/18/70 80/112/70 79/111/70
f 3/4/71 5/6/71 75/20/71 74/108/71
f 9/10/72 11/12/72 78/110/72 77/109/72
f 15/18/73 1/1/73 73/107/73 80/112/73
f 1/1/74 3/4/74 74/108/74 73/107/74
f 82/113/75 81/114/75 89/115/75 90/116/75
f 70/117/76 69/118/76 85/119/76 86/120/76
f 68/121/77 67/122/77 83/123/77 84/124/77
f 66/125/78 65/126/78 81/114/78 82/113/78
f 65/126/79 72/127/79 88/128/79 81/114/79
f 71/92/80 70/129/80 86/130/80 87/93/80
f 69/118/81 68/131/81 84/132/81 85/119/81
f 67/122/82 66/133/82 82/134/82 83/123/82
f 96/135/83 95/136/83 103/137/83 104/138/83
f 81/114/84 88/128/84 96/139/84 89/115/84
f 87/93/85 86/130/85 94/140/85 95/136/85
f 85/119/86 84/132/86 92/141/86 93/142/86
f 83/123/87 82/134/87 90/143/87 91/144/87
f 88/94/88 87/93/88 95/136/88 96/135/88
f 86/120/89 85/119/89 93/142/89 94/145/89
f 84/124/90 83/123/90 91/144/90 92/146/90
f 99/147/91 98/148/91 106/149/91 107/150/91
f 94/145/92 93/142/92 101/151/92 102/152/92
f 92/146/93 91/144/93 99/147/93 100/153/93
f 90/116/94 89/115/94 97/154/94 98/155/94
f 89/115/95 96/139/95 104/156/95 97/154/95
f 95/136/96 94/140/96 102/157/96 103/137/96
f 93/142/97 92/141/97 100/158/97 101/151/97
f 91/144/98 90/143/98 98/148/98 99/147/98
f 105/159/99 112/160/99 116/161/99 113/162/99
f 104/138/100 103/137/100 111/163/100 112/160/100
f 102/152/101 101/151/101 109/164/101 110/165/101
f 100/153/102 99/147/102 107/150/102 108/166/102
f 98/155/103 97/154/103 105/167/103 106/168/103
f 97/154/104 104/156/104 112/169/104 105/167/104
f 103/137/105 102/157/105 110/170/105 111/163/105
f 101/151/106 100/158/106 108/171/106 109/164/106
f 114/172/107 108/166/107 115/173/107
f 110/170/107 116/161/107 117/174/107
f 109/175/108 108/166/108 114/172/108 113/162/108
f 106/149/109 114/172/109 115/173/109
f 112/160/110 111/163/110 117/174/110
f 110/170/111 109/175/111 113/162/111 116/161/111
f 108/166/112 107/150/112 115/173/112
f 106/149/113 105/159/113 113/162/113 114/172/113
f 107/150/114 106/149/114 115/173/114
f 116/161/109 112/160/109 117/174/109
f 111/163/115 110/170/115 117/174/115
f 122/176/4 121/62/4 129/177/4 130/178/4
f 120/61/2 118/66/2 126/48/2 128/47/2
f 125/74/8 124/179/8 132/72/8 133/68/8
f 123/180/5 122/176/5 130/178/5 131/181/5
f 121/62/3 120/61/3 128/47/3 129/177/3
f 118/66/1 119/70/1 127/64/1 126/48/1
f 119/70/9 125/74/9 133/68/9 127/64/9
f 124/179/6 123/180/6 131/181/6 132/72/6
f 45/182/116 44/59/116 121/62/116 122/176/116
f 51/46/117 52/183/117 129/177/117 128/47/117
f 46/184/118 45/182/118 122/176/118 123/180/118
f 52/183/119 53/185/119 130/178/119 129/177/119
f 47/186/120 46/184/120 123/180/120 124/179/120
f 53/185/121 54/187/121 131/181/121 130/178/121
f 48/73/122 47/186/122 124/179/122 125/74/122
f 54/187/123 55/71/123 132/72/123 131/181/123
