# Blender v2.83.5 OBJ File: 'clamp02.blend'
# www.blender.org
mtllib clamp02.mtl
o Cylinder_Cylinder.004
v -0.031950 -0.031950 -0.082092
v -0.031950 0.031950 -0.082092
v -0.031950 -0.031950 -0.120019
v -0.031949 0.031950 -0.120019
v 0.031949 -0.031950 -0.082092
v 0.031950 0.031950 -0.082092
v 0.031950 -0.031950 -0.120019
v 0.031950 0.031950 -0.120019
v -0.031950 -0.031950 0.023485
v -0.031950 0.031950 0.023485
v -0.031950 -0.031950 -0.014441
v -0.031950 0.031950 -0.014441
v 0.031950 -0.031950 0.023485
v 0.031950 0.031950 0.023485
v 0.031950 -0.031950 -0.014441
v 0.031950 0.031950 -0.014441
v 0.003344 0.008074 0.028534
v 0.008074 0.003344 0.028534
v 0.008074 -0.003344 0.028534
v 0.003344 -0.008074 0.028534
v -0.003344 -0.008074 0.028534
v -0.008074 -0.003344 0.028534
v -0.008074 0.003344 0.028534
v -0.003344 0.008074 0.028534
v 0.008074 0.003344 0.039662
v 0.003344 0.008074 0.039662
v 0.008074 -0.003344 0.039662
v 0.003344 -0.008074 0.039662
v -0.003344 -0.008074 0.039662
v -0.008074 -0.003344 0.039662
v -0.008074 0.003344 0.039662
v -0.003344 0.008074 0.039662
v 0.008074 0.003344 0.070096
v 0.003344 0.008074 0.070096
v 0.008074 -0.003344 0.070096
v 0.003344 -0.008074 0.070096
v -0.003344 -0.008074 0.070096
v -0.008074 -0.003344 0.070096
v -0.008074 0.003344 0.070096
v -0.003344 0.008074 0.070096
v 0.009716 0.004024 0.027526
v 0.004024 0.009716 0.027526
v 0.009716 -0.004024 0.027526
v 0.004024 -0.009716 0.027526
v -0.004024 -0.009716 0.027526
v -0.009716 -0.004024 0.027526
v -0.009716 0.004024 0.027526
v -0.004024 0.009716 0.027526
v 0.009716 0.004024 0.039452
v 0.004024 0.009716 0.039452
v 0.009716 -0.004024 0.039452
v 0.004024 -0.009716 0.039452
v -0.004024 -0.009716 0.039452
v -0.009716 -0.004024 0.039452
v -0.009716 0.004024 0.039452
v -0.004024 0.009716 0.039452
v 0.010926 0.005234 0.027526
v 0.005234 0.010926 0.027526
v -0.010926 -0.005234 0.027526
v -0.005234 -0.010926 0.027526
v 0.010926 0.005234 0.039452
v 0.005234 0.010926 0.039452
v -0.010926 -0.005234 0.039452
v -0.005234 -0.010926 0.039452
v 0.011987 0.009382 0.030347
v 0.009382 0.011987 0.030347
v -0.012221 -0.009148 0.031401
v -0.009148 -0.012221 0.031401
v 0.011987 0.009382 0.052227
v 0.009382 0.011987 0.052227
v -0.012221 -0.009148 0.051173
v -0.009148 -0.012221 0.051173
v 0.016876 0.014271 0.036358
v 0.014271 0.016876 0.036358
v -0.017110 -0.014037 0.037050
v -0.014037 -0.017110 0.037050
v 0.016876 0.014271 0.053577
v 0.014271 0.016876 0.053577
v -0.017110 -0.014037 0.052886
v -0.014037 -0.017110 0.052886
v 0.019718 0.017113 0.041910
v 0.017113 0.019718 0.041910
v -0.019952 -0.016879 0.042211
v -0.016879 -0.019952 0.042211
v 0.019718 0.017113 0.050468
v 0.017113 0.019718 0.050468
v -0.019952 -0.016879 0.050167
v -0.016879 -0.019952 0.050167
v 0.003344 0.008074 0.023485
v -0.003344 0.008074 0.023485
v -0.008074 0.003344 0.023485
v -0.008074 -0.003344 0.023485
v 0.008074 0.003344 0.023485
v 0.008074 -0.003344 0.023485
v 0.003344 -0.008074 0.023485
v -0.003344 -0.008074 0.023485
v 0.008074 0.003344 -0.082092
v 0.008074 -0.003344 -0.082092
v 0.003344 -0.008074 -0.082092
v -0.003344 -0.008074 -0.082092
v 0.003344 0.008074 -0.082092
v -0.003344 0.008074 -0.082092
v -0.008074 0.003344 -0.082092
v -0.008074 -0.003344 -0.082092
v 0.008074 0.003344 -0.014441
v 0.008074 -0.003344 -0.014441
v 0.003344 0.008074 -0.014441
v -0.003344 0.008074 -0.014441
v 0.003344 -0.008074 -0.014441
v -0.008074 0.003344 -0.014441
v -0.008074 -0.003344 -0.014441
v -0.003344 -0.008074 -0.014441
v 0.000000 0.031950 0.023485
v 0.000000 -0.031949 0.023485
v 0.004645 -0.006773 0.023485
v 0.004526 -0.006892 0.028534
v -0.004522 -0.006896 0.023485
v -0.004539 -0.006879 0.028534
vt 0.125000 0.125000
vt 0.125000 0.125000
vt 0.125000 0.125000
vt 0.125000 0.125000
vt 0.125000 0.125000
vt 0.125000 0.125000
vt 0.125000 0.125000
vt 0.125000 0.125000
vt 0.125000 0.125000
vt 0.125000 0.125000
vt 0.125000 0.125000
vt 0.125000 0.125000
vt 0.125000 0.125000
vt 0.125000 0.125000
vt 0.125000 0.125000
vt 0.125000 0.125000
vt 0.125000 0.125000
vt 0.125000 0.125000
vt 0.125000 0.125000
vt 0.125000 0.125000
vt 0.125000 0.125000
vt 0.125000 0.125000
vt 0.125000 0.125000
vt 0.125000 0.125000
vt 0.125000 0.125000
vt 0.125000 0.125000
vt 0.375000 0.875000
vt 0.375000 0.875000
vt 0.375000 0.875000
vt 0.375000 0.875000
vt 0.625000 0.125000
vt 0.625000 0.125000
vt 0.625000 0.125000
vt 0.625000 0.125000
vt 0.375000 0.875000
vt 0.375000 0.875000
vt 0.375000 0.875000
vt 0.375000 0.875000
vt 0.375000 0.875000
vt 0.375000 0.875000
vt 0.375000 0.875000
vt 0.375000 0.875000
vt 0.375000 0.875000
vt 0.375000 0.875000
vt 0.375000 0.875000
vt 0.375000 0.875000
vt 0.375000 0.875000
vt 0.375000 0.875000
vt 0.375000 0.875000
vt 0.375000 0.875000
vt 0.375000 0.875000
vt 0.375000 0.875000
vt 0.375000 0.875000
vt 0.625000 0.125000
vt 0.625000 0.125000
vt 0.625000 0.125000
vt 0.625000 0.125000
vt 0.625000 0.125000
vt 0.625000 0.125000
vt 0.625000 0.125000
vt 0.625000 0.125000
vt 0.625000 0.125000
vt 0.625000 0.125000
vt 0.625000 0.125000
vt 0.625000 0.125000
vt 0.375000 0.875000
vt 0.375000 0.875000
vt 0.375000 0.875000
vt 0.375000 0.875000
vt 0.375000 0.875000
vt 0.375000 0.875000
vt 0.375000 0.875000
vt 0.375000 0.875000
vt 0.375000 0.875000
vt 0.375000 0.875000
vt 0.375000 0.875000
vt 0.375000 0.875000
vt 0.375000 0.875000
vt 0.375000 0.875000
vt 0.375000 0.875000
vt 0.375000 0.875000
vt 0.375000 0.875000
vt 0.375000 0.875000
vt 0.375000 0.875000
vt 0.375000 0.875000
vt 0.375000 0.875000
vt 0.375000 0.875000
vt 0.375000 0.875000
vt 0.375000 0.875000
vt 0.375000 0.875000
vt 0.375000 0.875000
vt 0.375000 0.875000
vt 0.375000 0.875000
vt 0.375000 0.875000
vt 0.375000 0.875000
vt 0.375000 0.875000
vt 0.375000 0.875000
vt 0.375000 0.875000
vt 0.375000 0.875000
vt 0.375000 0.875000
vt 0.375000 0.875000
vt 0.375000 0.875000
vt 0.375000 0.875000
vt 0.375000 0.875000
vt 0.375000 0.875000
vt 0.375000 0.875000
vt 0.375000 0.875000
vt 0.375000 0.875000
vt 0.125000 0.125000
vt 0.625000 0.125000
vt 0.625000 0.125000
vt 0.625000 0.125000
vt 0.625000 0.125000
vt 0.625000 0.125000
vt 0.625000 0.125000
vt 0.625000 0.125000
vt 0.625000 0.125000
vt 0.625000 0.125000
vt 0.625000 0.125000
vt 0.625000 0.125000
vt 0.625000 0.125000
vt 0.625000 0.125000
vt 0.625000 0.125000
vt 0.625000 0.125000
vt 0.625000 0.125000
vt 0.625000 0.125000
vt 0.625000 0.125000
vt 0.625000 0.125000
vt 0.625000 0.125000
vt 0.625000 0.125000
vt 0.625000 0.125000
vt 0.625000 0.125000
vt 0.625000 0.125000
vt 0.625000 0.125000
vt 0.625000 0.125000
vt 0.125000 0.125000
vt 0.125000 0.125000
vt 0.625000 0.125000
vt 0.625000 0.125000
vt 0.625000 0.125000
vt 0.625000 0.125000
vt 0.625000 0.125000
vt 0.625000 0.125000
vt 0.625000 0.125000
vt 0.625000 0.125000
vt 0.625000 0.125000
vt 0.625000 0.125000
vt 0.125000 0.125000
vt 0.125000 0.125000
vt 0.125000 0.125000
vt 0.125000 0.125000
vt 0.125000 0.125000
vt 0.125000 0.125000
vt 0.125000 0.125000
vt 0.125000 0.125000
vt 0.125000 0.125000
vt 0.125000 0.125000
vt 0.125000 0.125000
vt 0.125000 0.125000
vt 0.125000 0.125000
vt 0.125000 0.125000
vt 0.125000 0.125000
vn -1.0000 0.0000 -0.0000
vn 0.0000 0.0000 -1.0000
vn 1.0000 -0.0000 0.0000
vn -0.0000 0.0000 1.0000
vn 0.0000 -1.0000 0.0000
vn -0.0000 1.0000 -0.0000
vn 0.0000 0.1270 0.9919
vn -0.7071 0.7071 0.0000
vn -0.3699 -0.3699 -0.8523
vn 0.0000 -0.5231 -0.8523
vn -0.3699 0.3699 -0.8523
vn -0.0898 0.0898 0.9919
vn -0.1270 0.0000 0.9919
vn 0.3699 0.3699 -0.8523
vn -0.0898 -0.0898 0.9919
vn -0.7071 -0.7071 0.0000
vn 0.7071 -0.7071 -0.0000
vn 0.7071 0.7071 -0.0000
vn 0.0898 0.0898 0.9919
vn 0.5231 -0.0000 -0.8523
vn 0.1270 0.0000 0.9919
vn 0.0000 0.5231 -0.8523
vn 0.0898 -0.0898 0.9919
vn 0.0000 -0.1270 0.9919
vn -0.5231 0.0000 -0.8523
vn 0.3699 -0.3699 -0.8523
vn -0.2479 0.9688 -0.0000
vn 0.4300 0.4300 -0.7939
vn 0.3142 -0.9494 0.0000
vn 0.6746 0.6746 0.2998
vn -0.5125 -0.5125 -0.6889
vn 0.9688 -0.2479 0.0000
vn -0.9494 0.3142 0.0000
vn -0.6794 -0.6794 0.2770
vn -0.3962 -0.3962 0.8283
vn -0.1354 -0.1354 0.9815
vn 0.4639 0.4639 -0.7547
vn 0.1700 0.1700 0.9707
vn -0.4473 -0.4473 -0.7744
vn -0.5579 -0.5579 -0.6145
vn 0.4326 0.4326 0.7910
vn 0.5727 0.5727 -0.5865
usemtl Material.004
s off
f 1/1/1 2/2/1 4/3/1 3/4/1
f 3/4/2 4/3/2 8/5/2 7/6/2
f 7/6/3 8/5/3 6/7/3 5/8/3
f 1/1/4 100/9/4 104/10/4
f 3/4/5 7/6/5 5/8/5
f 8/5/6 4/3/6 2/2/6 6/7/6
f 9/11/1 10/12/1 12/13/1 11/14/1
f 11/14/2 12/13/2 110/15/2 111/16/2
f 15/17/3 16/18/3 14/19/3 13/20/3
f 114/21/4 115/22/4 95/23/4 96/24/4 117/25/4
f 11/14/5 15/17/5 13/20/5 114/21/5 9/11/5
f 16/18/6 12/13/6 10/12/6 113/26/6 14/19/6
f 32/27/7 26/28/7 50/29/7 56/30/7
f 32/31/8 31/32/8 39/33/8 40/34/8
f 18/35/9 17/36/9 42/37/9 41/38/9
f 17/36/10 24/39/10 48/40/10 42/37/10
f 116/41/11 19/42/11 43/43/11 44/44/11
f 31/45/12 32/27/12 56/30/12 55/46/12
f 30/47/13 31/45/13 55/46/13 54/48/13
f 118/49/14 21/50/14 45/51/14
f 29/52/15 30/47/15 54/48/15 53/53/15
f 33/54/4 34/55/4 40/34/4 39/33/4 38/56/4 37/57/4 36/58/4 35/59/4
f 30/60/16 29/61/16 37/57/16 38/56/16
f 28/62/17 27/63/17 35/59/17 36/58/17
f 25/64/18 26/65/18 34/55/18 33/54/18
f 26/65/6 32/31/6 40/34/6 34/55/6
f 31/32/1 30/60/1 38/56/1 39/33/1
f 29/61/5 28/62/5 36/58/5 37/57/5
f 27/63/3 25/64/3 33/54/3 35/59/3
f 44/44/17 43/43/17 51/66/17 52/67/17
f 47/68/1 46/69/1 54/48/1 55/46/1
f 45/51/5 44/44/5 52/67/5 53/53/5
f 48/40/8 47/68/8 55/46/8 56/30/8
f 43/43/3 41/38/3 49/70/3 51/66/3
f 42/37/6 48/40/6 56/30/6 50/29/6
f 26/28/19 25/71/19 49/70/19 50/29/19
f 23/72/20 22/73/20 46/69/20 47/68/20
f 25/71/21 27/74/21 51/66/21 49/70/21
f 21/50/22 20/75/22 44/44/22 45/51/22
f 27/74/23 28/76/23 52/67/23 51/66/23
f 28/76/24 29/52/24 53/53/24 52/67/24
f 19/42/25 18/35/25 41/38/25 43/43/25
f 24/39/26 23/72/26 47/68/26 48/40/26
f 53/53/4 54/48/4 63/77/4 64/78/4
f 45/51/17 53/53/17 64/78/17 60/79/17
f 58/80/27 62/81/27 70/82/27 66/83/27
f 57/84/28 58/80/28 66/83/28 65/85/28
f 46/69/2 45/51/2 60/79/2 59/86/2
f 49/70/17 41/38/17 57/84/17 61/87/17
f 54/48/8 46/69/8 59/86/8 63/77/8
f 50/29/4 49/70/4 61/87/4 62/81/4
f 41/38/2 42/37/2 58/80/2 57/84/2
f 42/37/8 50/29/8 62/81/8 58/80/8
f 71/88/8 67/89/8 75/90/8 79/91/8
f 69/92/17 65/85/17 73/93/17 77/94/17
f 60/79/29 64/78/29 72/95/29 68/96/29
f 64/78/30 63/77/30 71/88/30 72/95/30
f 59/86/31 60/79/31 68/96/31 67/89/31
f 61/87/32 57/84/32 65/85/32 69/92/32
f 63/77/33 59/86/33 67/89/33 71/88/33
f 62/81/34 61/87/34 69/92/34 70/82/34
f 80/97/35 79/91/35 87/98/35 88/99/35
f 76/100/17 80/97/17 88/99/17 84/101/17
f 70/82/36 69/92/36 77/94/36 78/102/36
f 65/85/37 66/83/37 74/103/37 73/93/37
f 66/83/8 70/82/8 78/102/8 74/103/8
f 68/96/17 72/95/17 80/97/17 76/100/17
f 72/95/38 71/88/38 79/91/38 80/97/38
f 67/89/39 68/96/39 76/100/39 75/90/39
f 83/104/16 84/101/16 88/99/16 87/98/16
f 81/105/18 82/106/18 86/107/18 85/108/18
f 75/90/40 76/100/40 84/101/40 83/104/40
f 77/94/17 73/93/17 81/105/17 85/108/17
f 79/91/8 75/90/8 83/104/8 87/98/8
f 78/102/41 77/94/41 85/108/41 86/107/41
f 73/93/42 74/103/42 82/106/42 81/105/42
f 74/103/8 78/102/8 86/107/8 82/106/8
f 12/13/2 108/109/2 110/15/2
f 97/110/18 101/111/18 107/112/18 105/113/18
f 93/114/18 89/115/18 17/116/18 18/117/18
f 104/118/16 100/119/16 112/120/16 111/121/16
f 117/122/16 96/123/16 21/124/16 118/125/16
f 103/126/1 104/118/1 111/121/1 110/127/1
f 91/128/1 92/129/1 22/130/1 23/131/1
f 100/119/5 99/132/5 109/133/5 112/120/5
f 96/123/5 95/134/5 20/135/5 21/124/5
f 113/26/4 90/136/4 89/137/4
f 99/132/17 98/138/17 106/139/17 109/133/17
f 115/140/17 94/141/17 19/142/17 116/143/17
f 101/111/6 102/144/6 108/145/6 107/112/6
f 89/115/6 90/146/6 24/147/6 17/116/6
f 6/7/4 101/148/4 97/149/4
f 98/138/3 97/110/3 105/113/3 106/139/3
f 94/141/3 93/114/3 18/117/3 19/142/3
f 102/144/8 103/126/8 110/127/8 108/145/8
f 90/146/8 91/128/8 23/131/8 24/147/8
f 10/12/4 91/150/4 90/136/4 113/26/4
f 14/19/4 113/26/4 89/137/4 93/151/4
f 13/20/4 14/19/4 93/151/4 94/152/4
f 95/134/17 115/140/17 116/143/17 20/135/17
f 13/20/4 94/152/4 115/22/4 114/21/4
f 20/75/11 116/41/11 44/44/11
f 92/129/16 117/122/16 118/125/16 22/130/16
f 9/11/4 114/21/4 117/25/4 92/153/4
f 22/73/14 118/49/14 45/51/14 46/69/14
f 10/12/4 9/11/4 92/153/4 91/150/4
f 11/14/2 111/16/2 112/154/2
f 15/17/2 11/14/2 112/154/2 109/155/2
f 106/156/2 15/17/2 109/155/2
f 16/18/2 107/157/2 108/109/2 12/13/2
f 16/18/2 105/158/2 107/157/2
f 15/17/2 106/156/2 105/158/2 16/18/2
f 2/2/4 103/159/4 102/160/4
f 5/8/4 6/7/4 97/149/4 98/161/4
f 6/7/4 2/2/4 102/160/4 101/148/4
f 1/1/5 3/4/5 5/8/5
f 5/8/4 98/161/4 99/162/4 100/9/4 1/1/4
f 2/2/4 1/1/4 104/10/4 103/159/4
