# Blender v2.83.5 OBJ File: 'gardeningfork01.blend'
# www.blender.org
mtllib gardeningfork01.mtl
o Cylinder
v -0.004022 -0.023072 -0.023072
v -0.004022 0.023072 -0.023072
v 0.005333 -0.023072 -0.016315
v 0.005333 0.023072 -0.016315
v 0.009208 -0.023072 0.000000
v 0.009208 0.023072 0.000000
v 0.005333 -0.023072 0.016315
v 0.005333 0.023072 0.016315
v -0.004022 -0.023072 0.023072
v -0.004022 0.023072 0.023072
v -0.013376 -0.023072 0.016315
v -0.013376 0.023072 0.016315
v -0.017251 -0.023072 -0.000000
v -0.017251 0.023072 -0.000000
v -0.013376 -0.023072 -0.016315
v -0.013376 0.023072 -0.016315
v -0.004022 -0.038883 -0.020564
v 0.004316 -0.038883 -0.014541
v 0.007769 -0.038883 0.000000
v 0.004316 -0.038883 0.014541
v -0.004022 -0.038883 0.020564
v -0.012359 -0.038883 0.014541
v -0.015813 -0.038883 -0.000000
v -0.012359 -0.038883 -0.014541
v -0.004022 -0.051426 -0.014298
v 0.001775 -0.051426 -0.010111
v 0.004177 -0.051426 0.000000
v 0.001775 -0.051426 0.010111
v -0.004022 -0.051426 0.014298
v -0.009819 -0.051426 0.010111
v -0.012220 -0.051426 -0.000000
v -0.009819 -0.051426 -0.010111
v -0.004022 0.060747 -0.015432
v 0.002235 0.060747 -0.010912
v 0.004827 0.060747 0.000000
v 0.002235 0.060747 0.010912
v -0.004022 0.060747 0.015432
v -0.010278 0.060747 0.010912
v -0.012870 0.060747 -0.000000
v -0.008874 0.060747 -0.008464
v -0.004033 0.060747 -0.011206
v 0.000502 0.060747 -0.007929
v 0.002381 0.060747 -0.000020
v 0.000502 0.060747 0.007890
v -0.004033 0.060747 0.011167
v -0.008568 0.060747 0.007890
v -0.010447 0.060747 -0.000020
v -0.009882 0.060747 -0.010222
v -0.004022 0.070499 -0.010474
v 0.000225 0.070499 -0.007406
v 0.001984 0.070499 0.000000
v 0.000225 0.070499 0.007406
v -0.004022 0.070499 0.010474
v -0.008268 0.070499 0.007406
v -0.010027 0.070499 -0.000000
v -0.008268 0.070499 -0.007406
v -0.004130 0.086051 -0.010474
v -0.001103 0.086051 -0.007406
v -0.000732 0.086051 0.000000
v -0.001103 0.086051 0.007406
v -0.004130 0.086051 0.010474
v -0.007156 0.086051 0.007406
v -0.008410 0.086051 -0.000000
v -0.007156 0.086051 -0.007406
v -0.005262 0.104848 -0.027806
v -0.003102 0.104848 -0.022596
v -0.002208 0.104848 0.000232
v -0.003102 0.104848 0.023060
v -0.005262 0.104848 0.028270
v -0.007422 0.104848 0.023060
v -0.008316 0.104848 0.000232
v -0.007422 0.104848 -0.022596
v -0.007869 0.104848 0.011646
v -0.002655 0.104848 0.011646
v -0.007869 0.104848 -0.011182
v -0.002655 0.104848 -0.011182
v -0.003102 0.110641 0.023033
v -0.005262 0.110641 0.030895
v -0.007422 0.110641 0.023033
v -0.007869 0.110641 0.015802
v -0.002655 0.110641 0.015802
v -0.003102 0.124924 0.023033
v -0.005262 0.124924 0.030895
v -0.007422 0.124924 0.023033
v -0.005262 0.124924 0.015802
v -0.005262 0.110794 -0.030375
v -0.003102 0.110794 -0.022513
v -0.007422 0.110794 -0.022513
v -0.007869 0.110794 -0.014636
v -0.002655 0.110794 -0.014636
v -0.005262 0.124341 -0.030375
v -0.003102 0.124341 -0.022513
v -0.007422 0.124341 -0.022513
v -0.005262 0.124341 -0.014636
v -0.003348 0.170074 0.023050
v -0.005262 0.170074 0.030017
v -0.007176 0.170074 0.023050
v -0.005262 0.170074 0.016641
v -0.005719 0.204982 0.022326
v -0.005988 0.204982 0.023225
v -0.005719 0.204982 0.024203
v -0.005451 0.204982 0.023225
v -0.005262 0.169490 -0.029481
v -0.003348 0.169490 -0.022513
v -0.007176 0.169490 -0.022513
v -0.005262 0.169490 -0.015532
v -0.004558 0.196526 0.023158
v -0.005615 0.196526 0.027007
v -0.006673 0.196526 0.023158
v -0.005615 0.196526 0.019618
v -0.005262 0.195945 -0.026361
v -0.004205 0.195945 -0.022512
v -0.006320 0.195945 -0.022512
v -0.005262 0.195945 -0.018655
v -0.005262 0.204401 -0.023488
v -0.004994 0.204401 -0.022511
v -0.005531 0.204401 -0.022511
v -0.005262 0.204401 -0.021531
v -0.002208 0.110566 0.000224
v -0.008316 0.110566 0.000224
v -0.007869 0.110211 0.007394
v -0.002655 0.110211 0.007394
v -0.007869 0.110211 -0.007085
v -0.002655 0.110211 -0.007085
v -0.002957 0.124165 0.000220
v -0.007567 0.124165 0.000220
v -0.005262 0.124165 0.007394
v -0.002957 0.170041 0.000220
v -0.005262 0.124165 -0.007085
v -0.007567 0.170041 0.000220
v -0.005262 0.170041 0.007394
v -0.005262 0.170041 -0.007085
v -0.003843 0.196655 0.000210
v -0.006681 0.196655 0.000210
v -0.005262 0.196655 0.004614
v -0.005262 0.196655 -0.004274
v -0.003843 0.205291 0.000197
v -0.006681 0.205291 0.000197
v -0.005262 0.205291 0.001149
v -0.005262 0.205291 -0.000772
vt 0.115551 0.126752
vt 0.115551 0.126752
vt 0.115551 0.126752
vt 0.115551 0.126752
vt 0.115551 0.126752
vt 0.115551 0.126752
vt 0.115551 0.126752
vt 0.115551 0.126752
vt 0.115551 0.126752
vt 0.115551 0.126752
vt 0.115551 0.126752
vt 0.115551 0.126752
vt 0.115551 0.126752
vt 0.115551 0.126752
vt 0.115551 0.126752
vt 0.115551 0.126752
vt 0.115551 0.126752
vt 0.115551 0.126752
vt 0.115551 0.126752
vt 0.115551 0.126752
vt 0.115551 0.126752
vt 0.115551 0.126752
vt 0.115551 0.126752
vt 0.115551 0.126752
vt 0.115551 0.126752
vt 0.115551 0.126752
vt 0.115551 0.126752
vt 0.115551 0.126752
vt 0.115551 0.126752
vt 0.115551 0.126752
vt 0.115551 0.126752
vt 0.115551 0.126752
vt 0.115551 0.126752
vt 0.115551 0.126752
vt 0.115551 0.126752
vt 0.115551 0.126752
vt 0.115551 0.126752
vt 0.115551 0.126752
vt 0.115551 0.126752
vt 0.115551 0.126752
vt 0.115551 0.126752
vt 0.115551 0.126752
vt 0.615551 0.126752
vt 0.615551 0.126752
vt 0.615551 0.126752
vt 0.615551 0.126752
vt 0.115551 0.126752
vt 0.115551 0.126752
vt 0.115551 0.126752
vt 0.115551 0.126752
vt 0.115551 0.126752
vt 0.115551 0.126752
vt 0.615551 0.126752
vt 0.615551 0.126752
vt 0.615551 0.126752
vt 0.615551 0.126752
vt 0.615551 0.126752
vt 0.615551 0.126752
vt 0.615551 0.126752
vt 0.615551 0.126752
vt 0.615551 0.126752
vt 0.615551 0.126752
vt 0.615551 0.126752
vt 0.615551 0.126752
vt 0.615551 0.126752
vt 0.615551 0.126752
vt 0.615551 0.126752
vt 0.615551 0.126752
vt 0.615551 0.126752
vt 0.615551 0.126752
vt 0.615551 0.126752
vt 0.615551 0.126752
vt 0.615551 0.126752
vt 0.615551 0.126752
vt 0.615551 0.126752
vt 0.615551 0.126752
vt 0.615551 0.126752
vt 0.615551 0.126752
vt 0.615551 0.126752
vt 0.615551 0.126752
vt 0.615551 0.126752
vt 0.615551 0.126752
vt 0.615551 0.126752
vt 0.615551 0.126752
vt 0.615551 0.126752
vt 0.615551 0.126752
vt 0.615551 0.126752
vt 0.615551 0.126752
vt 0.615551 0.126752
vt 0.615551 0.126752
vt 0.615551 0.126752
vt 0.615551 0.126752
vt 0.615551 0.126752
vt 0.615551 0.126752
vt 0.615551 0.126752
vt 0.615551 0.126752
vt 0.615551 0.126752
vt 0.615551 0.126752
vt 0.615551 0.126752
vt 0.615551 0.126752
vt 0.615551 0.126752
vt 0.615551 0.126752
vt 0.615551 0.126752
vt 0.615551 0.126752
vt 0.615551 0.126752
vt 0.615551 0.126752
vt 0.615551 0.126752
vt 0.615551 0.126752
vt 0.615551 0.126752
vt 0.615551 0.126752
vt 0.615551 0.126752
vt 0.615551 0.126752
vt 0.615551 0.126752
vt 0.615551 0.126752
vt 0.615551 0.126752
vt 0.615551 0.126752
vt 0.615551 0.126752
vt 0.615551 0.126752
vt 0.615551 0.126752
vt 0.615551 0.126752
vt 0.615551 0.126752
vt 0.615551 0.126752
vt 0.615551 0.126752
vt 0.615551 0.126752
vt 0.615551 0.126752
vt 0.615551 0.126752
vt 0.615551 0.126752
vt 0.615551 0.126752
vt 0.615551 0.126752
vt 0.615551 0.126752
vt 0.615551 0.126752
vt 0.615551 0.126752
vt 0.615551 0.126752
vt 0.615551 0.126752
vt 0.615551 0.126752
vt 0.615551 0.126752
vt 0.615551 0.126752
vt 0.615551 0.126752
vt 0.615551 0.126752
vt 0.615551 0.126752
vt 0.615551 0.126752
vt 0.615551 0.126752
vt 0.615551 0.126752
vt 0.615551 0.126752
vt 0.615551 0.126752
vt 0.615551 0.126752
vt 0.615551 0.126752
vt 0.615551 0.126752
vn 0.5856 0.0000 -0.8106
vn 0.9729 0.0000 -0.2311
vn 0.9729 0.0000 0.2311
vn 0.5856 0.0000 0.8106
vn -0.5856 0.0000 0.8106
vn -0.9729 0.0000 0.2311
vn -0.9434 0.1424 -0.2996
vn -0.9729 0.0000 -0.2311
vn -0.5856 0.0000 -0.8106
vn -0.9372 -0.2685 0.2226
vn 0.9691 -0.0882 -0.2302
vn 0.5808 -0.1275 0.8040
vn -0.9691 -0.0882 -0.2302
vn -0.5808 -0.1275 0.8040
vn -0.5808 -0.1275 -0.8040
vn 0.5808 -0.1275 -0.8040
vn 0.0000 -1.0000 0.0000
vn 0.5428 -0.3753 0.7513
vn 0.9372 -0.2685 -0.2226
vn -0.5428 -0.3753 0.7513
vn 0.9372 -0.2685 0.2226
vn 0.5428 -0.3753 -0.7513
vn -0.5428 -0.3753 -0.7513
vn -0.9372 -0.2685 -0.2226
vn 0.0000 1.0000 0.0000
vn 0.9668 0.1124 0.2296
vn -0.9668 0.1124 0.2296
vn 0.9668 0.1124 -0.2296
vn 0.5778 0.1622 -0.7999
vn -0.6827 0.1861 -0.7066
vn 0.5778 0.1622 0.7999
vn -0.5778 0.1622 0.7999
vn -0.9721 0.0413 0.2309
vn 0.6445 0.0298 -0.7640
vn 0.5846 0.0568 0.8093
vn 0.9722 0.0400 -0.2309
vn -0.9841 0.1215 -0.1298
vn -0.5846 0.0581 0.8092
vn 0.9722 0.0391 0.2309
vn 0.5845 0.0600 -0.8091
vn -0.3652 0.1959 -0.9101
vn -0.9970 -0.0328 -0.0708
vn -0.6447 0.0208 -0.7642
vn -0.9763 0.0857 0.1986
vn 0.6445 0.0298 0.7640
vn 0.9817 0.1277 -0.1412
vn -0.9763 0.0857 -0.1986
vn -0.6447 0.0208 0.7642
vn 0.9817 0.1277 0.1412
vn 0.0000 0.5829 -0.8125
vn -0.7568 -0.4500 0.4741
vn 0.9964 0.0745 0.0417
vn 0.7899 -0.3623 -0.4948
vn -0.7608 -0.4406 -0.4766
vn -0.9969 -0.0345 0.0708
vn 0.7863 -0.3728 0.4926
vn 0.9963 0.0755 -0.0417
vn 0.9988 -0.0131 -0.0463
vn 0.0000 0.5022 0.8647
vn -0.9472 -0.0702 0.3130
vn -0.9987 0.0186 0.0484
vn -0.0000 0.6071 -0.7946
vn -0.9643 0.0000 0.2649
vn 0.0000 0.0000 -1.0000
vn 0.9987 -0.0171 0.0479
vn -0.9987 -0.0171 0.0479
vn 0.9472 -0.0702 0.3130
vn -0.9643 0.0051 0.2649
vn 0.9643 0.0052 -0.2649
vn 0.9890 0.0903 -0.1171
vn -0.9890 0.0903 -0.1171
vn 0.9643 0.0000 0.2649
vn -0.9643 0.0052 -0.2649
vn -0.9644 0.0052 0.2644
vn 0.9643 0.0051 0.2649
vn -0.9582 0.0053 -0.2862
vn -0.9643 0.0000 -0.2649
vn -0.9896 0.0952 0.1076
vn -0.9988 -0.0131 -0.0463
vn 0.9475 -0.0655 -0.3131
vn -0.9475 -0.0655 -0.3131
vn 0.9644 0.0052 0.2644
vn 0.9582 0.0053 -0.2862
vn 0.9643 0.0000 -0.2649
vn 0.0000 0.0000 1.0000
vn 0.9896 0.0952 0.1076
vn 0.9634 0.0430 0.2646
vn 0.9638 0.0312 -0.2648
vn 0.9639 0.0312 0.2643
vn -0.9580 0.0194 -0.2861
vn -0.9638 0.0312 -0.2648
vn -0.9639 0.0312 0.2643
vn 0.9572 0.0449 -0.2859
vn -0.9641 0.0173 0.2648
vn 0.9605 0.0896 0.2633
vn -0.9615 0.0758 0.2641
vn -0.9604 0.0896 -0.2638
vn -0.9605 0.0896 0.2633
vn 0.9531 0.1029 -0.2847
vn -0.9551 0.0796 -0.2853
vn 0.9595 0.0992 0.2636
vn 0.9604 0.0896 -0.2638
vn -0.9752 0.1187 -0.1866
vn -0.9746 0.1187 0.1900
vn -0.9987 0.0177 -0.0481
vn -0.0000 0.6212 0.7836
vn 0.9987 0.0186 0.0484
vn 0.9987 0.0177 -0.0481
vn -0.9536 0.0000 -0.3010
vn -0.9521 0.0000 0.3059
vn 0.9752 0.1188 -0.1866
vn 0.9746 0.1187 0.1900
vn -0.9531 0.0317 -0.3011
vn -0.9515 0.0319 0.3060
vn 0.9536 0.0000 -0.3010
vn 0.9521 0.0000 0.3059
vn -0.8797 0.0938 0.4661
vn 0.8832 0.0929 -0.4596
vn 0.9531 0.0317 -0.3011
vn 0.9515 0.0319 0.3060
vn -0.8832 0.0929 -0.4596
vn 0.8797 0.0938 0.4661
vn -0.9691 -0.0882 0.2302
vn 0.9691 -0.0882 0.2302
usemtl Material.001
s off
f 1/1/1 2/2/1 4/3/1 3/4/1
f 3/4/2 4/3/2 6/5/2 5/6/2
f 5/6/3 6/5/3 8/7/3 7/8/3
f 7/8/4 8/7/4 10/9/4 9/10/4
f 9/10/5 10/9/5 12/11/5 11/12/5
f 11/12/6 12/11/6 14/13/6 13/14/6
f 16/15/7 14/13/7 39/16/7 40/17/7
f 13/14/8 14/13/8 16/15/8 15/18/8
f 15/18/9 16/15/9 2/2/9 1/1/9
f 22/19/10 23/20/10 31/21/10 30/22/10
f 3/4/11 5/6/11 19/23/11 18/24/11
f 7/8/12 9/10/12 21/25/12 20/26/12
f 23/20/13 13/14/13 15/18/13 24/27/13
f 9/10/14 11/12/14 22/19/14 21/25/14
f 15/18/15 1/1/15 17/28/15 24/27/15
f 1/1/16 3/4/16 18/24/16 17/28/16
f 25/29/17 26/30/17 27/31/17 28/32/17 29/33/17 30/22/17 31/21/17 32/34/17
f 20/26/18 21/25/18 29/33/18 28/32/18
f 18/24/19 19/23/19 27/31/19 26/30/19
f 21/25/20 22/19/20 30/22/20 29/33/20
f 27/31/21 19/23/21 20/26/21 28/32/21
f 17/28/22 18/24/22 26/30/22 25/29/22
f 24/27/23 17/28/23 25/29/23 32/34/23
f 23/20/24 24/27/24 32/34/24 31/21/24
f 40/17/25 39/16/25 47/35/25 48/36/25
f 8/7/26 6/5/26 35/37/26 36/38/26
f 14/13/27 12/11/27 38/39/27 39/16/27
f 6/5/28 4/3/28 34/40/28 35/37/28
f 4/3/29 2/2/29 33/41/29 34/40/29
f 2/2/30 16/15/30 40/17/30 33/41/30
f 10/9/31 8/7/31 36/38/31 37/42/31
f 12/11/32 10/9/32 37/42/32 38/39/32
f 47/43/33 46/44/33 54/45/33 55/46/33
f 38/39/25 37/42/25 45/47/25 46/48/25
f 36/38/25 35/37/25 43/49/25 44/50/25
f 34/40/25 33/41/25 41/51/25 42/52/25
f 33/41/25 40/17/25 48/36/25 41/51/25
f 39/16/25 38/39/25 46/48/25 47/35/25
f 37/42/25 36/38/25 44/50/25 45/47/25
f 35/37/25 34/40/25 42/52/25 43/49/25
f 50/53/34 49/54/34 57/55/34 58/56/34
f 45/57/35 44/58/35 52/59/35 53/60/35
f 43/61/36 42/62/36 50/53/36 51/63/36
f 48/64/37 47/43/37 55/46/37 56/65/37
f 46/44/38 45/57/38 53/60/38 54/45/38
f 44/58/39 43/61/39 51/63/39 52/59/39
f 42/62/40 41/66/40 49/54/40 50/53/40
f 41/66/41 48/64/41 56/65/41 49/54/41
f 64/67/42 63/68/42 71/69/42 75/70/42 72/71/42
f 49/54/43 56/65/43 64/67/43 57/55/43
f 55/46/44 54/45/44 62/72/44 63/68/44
f 53/60/45 52/59/45 60/73/45 61/74/45
f 51/63/46 50/53/46 58/56/46 59/75/46
f 56/65/47 55/46/47 63/68/47 64/67/47
f 54/45/48 53/60/48 61/74/48 62/72/48
f 52/59/49 51/63/49 59/75/49 60/73/49
f 74/76/50 73/77/50 80/78/50 81/79/50
f 62/72/51 61/74/51 69/80/51 70/81/51
f 60/73/52 59/75/52 67/82/52 74/76/52 68/83/52
f 58/56/53 57/55/53 65/84/53 66/85/53
f 57/55/54 64/67/54 72/71/54 65/84/54
f 63/68/55 62/72/55 70/81/55 73/77/55 71/69/55
f 61/74/56 60/73/56 68/83/56 69/80/56
f 59/75/57 58/56/57 66/85/57 76/86/57 67/82/57
f 76/86/58 66/85/58 87/87/58 90/88/58
f 75/70/59 76/86/59 90/88/59 89/89/59
f 70/81/60 69/80/60 78/90/60 79/91/60
f 71/69/61 73/77/61 121/92/61 120/93/61
f 76/86/62 75/70/62 123/94/62 124/95/62
f 79/91/63 78/90/63 83/96/63 84/97/63
f 81/79/64 80/78/64 85/98/64
f 68/83/65 74/76/65 81/79/65 77/99/65
f 73/77/66 70/81/66 79/91/66 80/78/66
f 69/80/67 68/83/67 77/99/67 78/90/67
f 84/97/68 83/96/68 96/100/68 97/101/68
f 92/102/69 91/103/69 103/104/69 104/105/69
f 77/99/70 81/79/70 85/98/70 82/106/70
f 80/78/71 79/91/71 84/97/71 85/98/71
f 78/90/72 77/99/72 82/106/72 83/96/72
f 91/103/73 93/107/73 105/108/73 103/104/73
f 93/107/74 94/109/74 106/110/74 105/108/74
f 83/96/75 82/106/75 95/111/75 96/100/75
f 85/98/76 84/97/76 97/101/76 98/112/76
f 86/113/77 88/114/77 93/107/77 91/103/77
f 88/114/78 89/89/78 94/109/78 93/107/78
f 72/71/79 75/70/79 89/89/79 88/114/79
f 66/85/80 65/84/80 86/113/80 87/87/80
f 65/84/81 72/71/81 88/114/81 86/113/81
f 94/109/82 92/102/82 104/105/82 106/110/82
f 82/106/83 85/98/83 98/112/83 95/111/83
f 87/87/84 86/113/84 91/103/84 92/102/84
f 89/89/85 90/88/85 94/109/85
f 90/88/86 87/87/86 92/102/86 94/109/86
f 96/100/87 95/111/87 107/115/87 108/116/87
f 104/105/88 103/104/88 111/117/88 112/118/88
f 106/110/89 104/105/89 112/118/89 114/119/89
f 98/112/90 97/101/90 109/120/90 110/121/90
f 103/104/91 105/108/91 113/122/91 111/117/91
f 105/108/92 106/110/92 114/119/92 113/122/92
f 95/111/93 98/112/93 110/121/93 107/115/93
f 97/101/94 96/100/94 108/116/94 109/120/94
f 114/119/95 112/118/95 116/123/95 118/124/95
f 109/120/96 108/116/96 101/125/96 100/126/96
f 111/117/97 113/122/97 117/127/97 115/128/97
f 113/122/98 114/119/98 118/124/98 117/127/98
f 107/115/99 110/121/99 99/129/99 102/130/99
f 110/121/100 109/120/100 100/126/100 99/129/100
f 108/116/101 107/115/101 102/130/101 101/125/101
f 112/118/102 111/117/102 115/128/102 116/123/102
f 102/130/25 100/126/25 101/125/25
f 99/129/25 100/126/25 102/130/25
f 116/123/25 115/128/25 117/127/25
f 118/124/25 116/123/25 117/127/25
f 123/94/103 120/93/103 126/131/103 129/132/103
f 120/93/104 121/92/104 127/133/104 126/131/104
f 75/70/105 71/69/105 120/93/105 123/94/105
f 73/77/106 74/76/106 122/134/106 121/92/106
f 74/76/107 67/82/107 119/135/107 122/134/107
f 67/82/108 76/86/108 124/95/108 119/135/108
f 129/132/109 126/131/109 130/136/109 132/137/109
f 126/131/110 127/133/110 131/138/110 130/136/110
f 121/92/85 122/134/85 127/133/85
f 119/135/111 124/95/111 129/132/111 125/139/111
f 122/134/112 119/135/112 125/139/112 127/133/112
f 124/95/64 123/94/64 129/132/64
f 132/137/113 130/136/113 134/140/113 136/141/113
f 130/136/114 131/138/114 135/142/114 134/140/114
f 125/139/115 129/132/115 132/137/115 128/143/115
f 127/133/116 125/139/116 128/143/116 131/138/116
f 134/140/117 135/142/117 139/144/117 138/145/117
f 133/146/118 136/141/118 140/147/118 137/148/118
f 128/143/119 132/137/119 136/141/119 133/146/119
f 131/138/120 128/143/120 133/146/120 135/142/120
f 137/148/25 140/147/25 138/145/25
f 137/148/25 138/145/25 139/144/25
f 136/141/121 134/140/121 138/145/121 140/147/121
f 135/142/122 133/146/122 137/148/122 139/144/122
f 11/12/123 13/14/123 23/20/123 22/19/123
f 20/26/124 19/23/124 5/6/124 7/8/124
