# Blender v2.83.5 OBJ File: 'hammer02.blend'
# www.blender.org
mtllib hammer02.mtl
o Cylinder
v -0.000003 0.000740 -0.019446
v -0.000003 0.016645 -0.019446
v 0.013748 0.000740 -0.013750
v 0.013748 0.016645 -0.013750
v 0.019444 0.000740 0.000001
v 0.019444 0.016645 0.000001
v 0.013748 0.000740 0.013752
v 0.013748 0.016645 0.013752
v -0.000003 0.000740 0.019448
v -0.000003 0.016645 0.019448
v -0.013754 0.000740 0.013752
v -0.013754 0.016645 0.013752
v -0.019450 0.000740 0.000001
v -0.019450 0.016645 0.000001
v -0.013754 0.000740 -0.013750
v -0.013754 0.016645 -0.013750
v -0.000003 0.333334 -0.017873
v 0.012636 0.333334 -0.012638
v 0.017871 0.333334 0.000001
v 0.012636 0.333334 0.012639
v -0.000003 0.333334 0.017874
v -0.012641 0.333334 0.012639
v -0.017876 0.333334 0.000001
v -0.012641 0.333334 -0.012638
v -0.000003 0.688118 -0.020529
v 0.014514 0.688118 -0.014516
v 0.020527 0.688118 0.000001
v 0.014514 0.688118 0.014517
v -0.000003 0.688118 0.020530
v -0.014519 0.688118 0.014517
v -0.020532 0.688118 0.000001
v -0.014519 0.688118 -0.014516
v -0.000003 0.754911 -0.020529
v 0.014514 0.754911 -0.014516
v 0.020527 0.754911 0.000001
v 0.014514 0.754911 0.014517
v -0.000003 0.754911 0.020530
v -0.014519 0.754911 0.014517
v -0.020532 0.754911 0.000001
v -0.014519 0.754911 -0.014516
v -0.000004 0.764371 -0.091531
v 0.022751 0.754911 0.000001
v -0.000004 0.764371 0.091533
v -0.022756 0.754911 0.000001
v -0.000004 0.810623 -0.091531
v 0.028747 0.819075 0.000001
v -0.000004 0.810623 0.091533
v -0.028755 0.819075 0.000001
v -0.000004 0.819075 -0.023183
v 0.017989 0.819075 -0.016234
v 0.024266 0.818984 0.000001
v 0.017989 0.819075 0.016236
v -0.000004 0.819075 0.023185
v -0.017997 0.819075 0.016236
v -0.024273 0.818984 0.000001
v -0.017997 0.819075 -0.016234
v -0.000004 0.815765 -0.023183
v 0.017989 0.815765 -0.016234
v 0.024266 0.815857 0.000001
v 0.017989 0.815765 0.016236
v -0.000004 0.815765 0.023185
v -0.017997 0.815765 0.016236
v -0.024273 0.815857 0.000001
v -0.017997 0.815765 -0.016234
v 0.021287 0.778843 -0.091061
v 0.020859 0.763781 -0.082474
v 0.014872 0.768256 -0.091456
v 0.021287 0.778843 0.091063
v 0.014872 0.768256 0.091458
v 0.021316 0.763781 0.082435
v -0.021291 0.778843 0.091063
v -0.021014 0.763928 0.082660
v -0.014876 0.768256 0.091458
v -0.021291 0.778843 -0.091061
v -0.014876 0.768256 -0.091456
v -0.021014 0.763928 -0.082658
v 0.021316 0.811220 -0.082433
v 0.021287 0.796158 -0.091061
v 0.014872 0.806745 -0.091456
v 0.021316 0.811220 0.082435
v 0.014872 0.806745 0.091458
v 0.021287 0.796158 0.091063
v -0.021320 0.811220 0.082435
v -0.021291 0.796158 0.091063
v -0.014876 0.806745 0.091458
v -0.021320 0.811220 -0.082433
v -0.014876 0.806745 -0.091456
v -0.021291 0.796158 -0.091061
v -0.028570 0.819075 0.035836
v -0.028570 0.819075 -0.035835
v -0.028367 0.756015 0.035934
v -0.028367 0.756015 -0.035932
v 0.028258 0.755918 -0.035853
v 0.028562 0.755918 0.035836
v 0.028562 0.819075 0.035836
v 0.028562 0.819075 -0.035835
v 0.021895 0.819075 -0.035835
v -0.000004 0.819075 -0.035835
v -0.021903 0.819075 -0.035835
v 0.021691 0.755918 -0.035862
v -0.000004 0.755918 -0.035893
v -0.021772 0.755987 -0.035923
v 0.021895 0.819075 0.035836
v -0.000004 0.819075 0.035836
v -0.021903 0.819075 0.035836
v 0.021907 0.755918 0.035848
v -0.000004 0.755918 0.035885
v -0.021771 0.755987 0.035922
vt 0.127953 0.108150
vt 0.127953 0.108150
vt 0.127953 0.108150
vt 0.127953 0.108150
vt 0.127953 0.108150
vt 0.127953 0.108150
vt 0.127953 0.108150
vt 0.127953 0.108150
vt 0.127953 0.108150
vt 0.127953 0.108150
vt 0.127953 0.108150
vt 0.127953 0.108150
vt 0.127953 0.108150
vt 0.127953 0.108150
vt 0.127953 0.108150
vt 0.127953 0.108150
vt 0.127953 0.108150
vt 0.127953 0.108150
vt 0.127953 0.108150
vt 0.127953 0.108150
vt 0.127953 0.108150
vt 0.127953 0.108150
vt 0.127953 0.108150
vt 0.127953 0.108150
vt 0.127953 0.108150
vt 0.127953 0.108150
vt 0.127953 0.108150
vt 0.127953 0.108150
vt 0.127953 0.108150
vt 0.127953 0.108150
vt 0.127953 0.108150
vt 0.127953 0.108150
vt 0.127953 0.108150
vt 0.127953 0.108150
vt 0.630216 0.126752
vt 0.630216 0.126752
vt 0.630216 0.126752
vt 0.127953 0.108150
vt 0.127953 0.108150
vt 0.127953 0.108150
vt 0.127953 0.108150
vt 0.127953 0.108150
vt 0.127953 0.108150
vt 0.630216 0.126752
vt 0.630216 0.126752
vt 0.630216 0.126752
vt 0.630216 0.126752
vt 0.630216 0.126752
vt 0.630216 0.126752
vt 0.630216 0.126752
vt 0.630216 0.126752
vt 0.630216 0.126752
vt 0.630216 0.126752
vt 0.630216 0.126752
vt 0.630216 0.126752
vt 0.630216 0.126752
vt 0.630216 0.126752
vt 0.630216 0.126752
vt 0.630216 0.126752
vt 0.630216 0.126752
vt 0.630216 0.126752
vt 0.630216 0.126752
vt 0.630216 0.126752
vt 0.630216 0.126752
vt 0.630216 0.126752
vt 0.630216 0.126752
vt 0.630216 0.126752
vt 0.630216 0.126752
vt 0.630216 0.126752
vt 0.630216 0.126752
vt 0.630216 0.126752
vt 0.630216 0.126752
vt 0.630216 0.126752
vt 0.630216 0.126752
vt 0.630216 0.126752
vt 0.630216 0.126752
vt 0.630216 0.126752
vt 0.630216 0.126752
vt 0.630216 0.126752
vt 0.630216 0.126752
vt 0.630216 0.126752
vt 0.630216 0.126752
vt 0.630216 0.126752
vt 0.630216 0.126752
vt 0.630216 0.126752
vt 0.630216 0.126752
vt 0.630216 0.126752
vt 0.630216 0.126752
vt 0.630216 0.126752
vt 0.630216 0.126752
vt 0.630216 0.126752
vt 0.630216 0.126752
vt 0.630216 0.126752
vt 0.630216 0.126752
vt 0.630216 0.126752
vt 0.630216 0.126752
vt 0.630216 0.126752
vt 0.630216 0.126752
vt 0.630216 0.126752
vt 0.127953 0.108150
vt 0.127953 0.108150
vt 0.127953 0.108150
vt 0.127953 0.108150
vt 0.127953 0.108150
vt 0.127953 0.108150
vt 0.127953 0.108150
vt 0.127953 0.108150
vt 0.630216 0.126752
vt 0.630216 0.126752
vt 0.630216 0.126752
vt 0.630216 0.126752
vt 0.630216 0.126752
vt 0.630216 0.126752
vt 0.630216 0.126752
vt 0.630216 0.126752
vt 0.630216 0.126752
vt 0.630216 0.126752
vt 0.630216 0.126752
vt 0.630216 0.126752
vt 0.630216 0.126752
vt 0.630216 0.126752
vt 0.630216 0.126752
vt 0.630216 0.126752
vt 0.630216 0.126752
vn 0.3827 0.0000 -0.9239
vn 0.9239 0.0000 -0.3827
vn 0.9239 0.0000 0.3827
vn 0.3827 0.0000 0.9239
vn -0.3827 0.0000 0.9239
vn -0.9239 0.0000 0.3827
vn 0.9239 0.0046 0.3827
vn -0.9239 0.0000 -0.3827
vn -0.3827 0.0000 -0.9239
vn 0.0000 -1.0000 0.0000
vn -0.9239 -0.0069 -0.3827
vn -0.9239 0.0046 0.3827
vn 0.3827 0.0046 0.9239
vn -0.9239 0.0046 -0.3827
vn 0.9239 0.0046 -0.3827
vn -0.3827 0.0046 0.9239
vn -0.3827 0.0046 -0.9239
vn 0.3827 0.0046 -0.9239
vn -0.3827 -0.0069 0.9239
vn 0.9239 -0.0069 0.3827
vn 0.3827 -0.0069 -0.9239
vn -0.3827 -0.0069 -0.9239
vn -0.9239 -0.0069 0.3827
vn 0.3827 -0.0069 0.9239
vn 0.9239 -0.0069 -0.3827
vn -0.0040 -0.9859 -0.1676
vn 0.0335 -0.9819 0.1863
vn -0.0372 -0.9819 0.1859
vn -0.0176 -0.0000 0.9998
vn 0.0337 -0.9820 -0.1861
vn -0.0176 0.0000 -0.9998
vn -0.9999 -0.0048 -0.0146
vn 0.0176 0.0000 0.9998
vn 0.9997 -0.0071 0.0232
vn 0.0000 1.0000 0.0000
vn 0.0002 -0.9861 -0.1664
vn -0.9960 -0.0486 0.0746
vn 0.9959 -0.0469 -0.0775
vn 0.0003 -0.9861 0.1664
vn -0.0372 -0.9819 -0.1859
vn -0.0039 -0.9859 0.1676
vn -0.3603 0.0000 -0.9328
vn 0.0000 0.9861 0.1662
vn 0.0000 0.9861 -0.1662
vn 0.0025 1.0000 0.0017
vn -0.0025 1.0000 -0.0017
vn -0.9327 0.0000 0.3606
vn 0.9327 0.0000 0.3606
vn 0.3603 0.0000 -0.9328
vn -0.9327 0.0000 -0.3606
vn -0.3603 0.0000 0.9328
vn 0.3603 0.0000 0.9328
vn 0.9327 0.0000 -0.3606
vn 0.6697 -0.3820 -0.6368
vn 0.6571 -0.3737 0.6546
vn 0.6571 0.3737 -0.6546
vn 0.6571 0.3737 0.6546
vn -0.6571 0.3737 0.6546
vn -0.6571 0.3737 -0.6546
vn 0.0176 0.0000 -0.9998
vn -0.9880 -0.0041 0.1546
vn -0.6622 -0.3771 0.6475
vn -0.9999 -0.0048 0.0146
vn -0.6622 -0.3771 -0.6475
vn 0.9879 -0.0067 -0.1552
vn 1.0000 0.0000 0.0034
vn -0.0331 0.9820 -0.1861
vn 0.0331 0.9820 -0.1861
vn -0.0025 1.0000 0.0017
vn -0.9880 -0.0041 -0.1546
vn -0.0109 -0.9985 -0.0544
vn 0.0089 -0.9986 -0.0530
vn 0.0267 -0.9993 -0.0272
vn -0.0302 -0.9991 -0.0290
vn 0.9961 -0.0493 0.0733
vn -0.0331 0.9820 0.1861
vn 0.0331 0.9820 0.1861
vn 0.0025 1.0000 -0.0017
vn -0.9960 -0.0486 -0.0746
vn -0.0109 -0.9985 0.0544
vn 0.0088 -0.9986 0.0530
vn 0.0264 -0.9993 0.0270
vn -0.0302 -0.9991 0.0290
vn 0.9881 0.0000 0.1537
usemtl Material.003
s off
f 1/1/1 2/2/1 4/3/1 3/4/1
f 3/4/2 4/3/2 6/5/2 5/6/2
f 5/6/3 6/5/3 8/7/3 7/8/3
f 7/8/4 8/7/4 10/9/4 9/10/4
f 9/10/5 10/9/5 12/11/5 11/12/5
f 11/12/6 12/11/6 14/13/6 13/14/6
f 8/7/7 6/5/7 19/15/7 20/16/7
f 13/14/8 14/13/8 16/17/8 15/18/8
f 15/18/9 16/17/9 2/2/9 1/1/9
f 1/1/10 3/4/10 5/6/10 7/8/10 9/10/10 11/12/10 13/14/10 15/18/10
f 24/19/11 23/20/11 31/21/11 32/22/11
f 14/13/12 12/11/12 22/23/12 23/20/12
f 10/9/13 8/7/13 20/16/13 21/24/13
f 16/17/14 14/13/14 23/20/14 24/19/14
f 6/5/15 4/3/15 18/25/15 19/15/15
f 12/11/16 10/9/16 21/24/16 22/23/16
f 2/2/17 16/17/17 24/19/17 17/26/17
f 4/3/18 2/2/18 17/26/18 18/25/18
f 27/27/2 26/28/2 34/29/2 35/30/2
f 22/23/19 21/24/19 29/31/19 30/32/19
f 20/16/20 19/15/20 27/27/20 28/33/20
f 18/25/21 17/26/21 25/34/21 26/28/21
f 17/26/22 24/19/22 32/22/22 25/34/22
f 23/20/23 22/23/23 30/32/23 31/21/23
f 21/24/24 20/16/24 28/33/24 29/31/24
f 19/15/25 18/25/25 26/28/25 27/27/25
f 102/35/26 92/36/26 76/37/26
f 32/22/8 31/21/8 39/38/8 40/39/8
f 30/32/5 29/31/5 37/40/5 38/41/5
f 28/33/3 27/27/3 35/30/3 36/42/3
f 26/28/1 25/34/1 33/43/1 34/29/1
f 25/34/9 32/22/9 40/39/9 33/43/9
f 31/21/6 30/32/6 38/41/6 39/38/6
f 29/31/4 28/33/4 36/42/4 37/40/4
f 107/44/27 106/45/27 70/46/27 69/47/27 43/48/27
f 108/49/28 107/44/28 43/48/28 73/50/28 72/51/28
f 71/52/29 73/50/29 43/48/29 47/53/29 85/54/29 84/55/29
f 100/56/30 101/57/30 41/58/30 67/59/30 66/60/30
f 41/58/31 75/61/31 74/62/31 88/63/31 87/64/31 45/65/31
f 83/66/32 72/51/32 71/52/32 84/55/32
f 43/48/33 69/47/33 68/67/33 82/68/33 81/69/33 47/53/33
f 66/60/34 65/70/34 78/71/34 77/72/34
f 98/73/35 99/74/35 56/75/35 49/76/35
f 93/77/36 100/56/36 66/60/36
f 97/78/35 98/73/35 49/76/35 50/79/35
f 92/36/37 44/80/37 48/81/37 90/82/37
f 94/83/38 42/84/38 46/85/38 95/86/38
f 106/45/39 94/83/39 70/46/39
f 101/57/40 102/35/40 76/37/40 75/61/40 41/58/40
f 91/87/41 108/49/41 72/51/41
f 53/88/42 52/89/42 60/90/42 61/91/42
f 89/92/43 83/66/43 105/93/43
f 104/94/35 103/95/35 52/89/35 53/88/35
f 96/96/44 77/72/44 97/78/44
f 90/82/45 48/81/45 55/97/45 56/75/45 99/74/45
f 105/93/35 104/94/35 53/88/35 54/98/35
f 95/86/46 46/85/46 51/99/46 52/89/46 103/95/46
f 58/100/35 57/101/35 64/102/35 63/103/35 62/104/35 61/105/35 60/106/35 59/107/35
f 51/99/47 50/79/47 58/108/47 59/109/47
f 56/75/48 55/97/48 63/110/48 64/111/48
f 54/98/49 53/88/49 61/91/49 62/112/49
f 52/89/50 51/99/50 59/109/50 60/90/50
f 50/79/51 49/76/51 57/113/51 58/108/51
f 49/76/52 56/75/52 64/111/52 57/113/52
f 55/97/53 54/98/53 62/112/53 63/110/53
f 65/70/54 66/60/54 67/59/54
f 68/67/55 69/47/55 70/46/55
f 77/72/56 78/71/56 79/114/56
f 80/115/57 81/69/57 82/68/57
f 83/66/58 84/55/58 85/54/58
f 86/116/59 87/64/59 88/63/59
f 65/70/60 67/59/60 41/58/60 45/65/60 79/114/60 78/71/60
f 91/87/61 72/51/61 83/66/61 89/92/61
f 71/52/62 72/51/62 73/50/62
f 74/62/63 76/37/63 86/116/63 88/63/63
f 74/62/64 75/61/64 76/37/64
f 93/77/65 66/60/65 77/72/65 96/96/65
f 68/67/66 70/46/66 80/115/66 82/68/66
f 45/65/67 87/64/67 86/116/67 99/74/67 98/73/67
f 77/72/68 79/114/68 45/65/68 98/73/68 97/78/68
f 46/85/69 96/96/69 97/78/69 50/79/69 51/99/69
f 86/116/44 90/82/44 99/74/44
f 76/37/70 92/36/70 90/82/70 86/116/70
f 33/117/71 40/118/71 102/35/71 101/57/71
f 34/119/72 33/117/72 101/57/72 100/56/72
f 35/120/73 34/119/73 100/56/73 93/77/73 42/84/73
f 40/118/74 39/121/74 44/80/74 92/36/74 102/35/74
f 42/84/75 93/77/75 96/96/75 46/85/75
f 83/66/76 85/54/76 47/53/76 104/94/76 105/93/76
f 47/53/77 81/69/77 80/115/77 103/95/77 104/94/77
f 80/115/43 95/86/43 103/95/43
f 48/81/78 89/92/78 105/93/78 54/98/78 55/97/78
f 44/80/79 91/87/79 89/92/79 48/81/79
f 38/122/80 37/123/80 107/44/80 108/49/80
f 37/123/81 36/124/81 106/45/81 107/44/81
f 36/124/82 35/120/82 42/84/82 94/83/82 106/45/82
f 39/121/83 38/122/83 108/49/83 91/87/83 44/80/83
f 70/46/84 94/83/84 95/86/84 80/115/84
