# Blender v2.83.5 OBJ File: 'knife01.blend'
# www.blender.org
mtllib knife01.mtl
o Cylinder.001
v 0.000000 -0.016511 -0.009661
v 0.000000 0.016511 -0.009661
v 0.011675 -0.016511 -0.006832
v 0.011675 0.016511 -0.006832
v 0.016511 -0.016511 0.000000
v 0.016511 0.016511 0.000000
v 0.011675 -0.016511 0.006832
v 0.011675 0.016511 0.006832
v -0.000000 -0.016511 0.009661
v -0.000000 0.016511 0.009661
v -0.011675 -0.016511 0.006832
v -0.011675 0.016511 0.006832
v -0.016511 -0.016511 -0.000000
v -0.016511 0.016511 -0.000000
v -0.011675 -0.016511 -0.006832
v -0.011675 0.016511 -0.006832
v 0.001976 -0.033363 -0.009661
v 0.013651 -0.033363 -0.006832
v 0.018487 -0.033363 0.000000
v 0.013651 -0.033363 0.006832
v 0.001976 -0.033363 0.009661
v -0.009699 -0.033363 0.006832
v -0.014534 -0.033363 -0.000000
v -0.009699 -0.033363 -0.006832
v 0.007958 -0.046762 -0.008370
v 0.018072 -0.046762 -0.005918
v 0.022261 -0.046762 0.000000
v 0.018072 -0.046762 0.005918
v 0.007958 -0.046762 0.008370
v -0.002156 -0.046762 0.005918
v -0.006345 -0.046762 -0.000000
v -0.002156 -0.046762 -0.005918
v 0.013002 -0.052551 -0.005209
v 0.019296 -0.052551 -0.003683
v 0.021904 -0.052551 0.000000
v 0.019296 -0.052551 0.003683
v 0.013002 -0.052551 0.005209
v 0.006707 -0.052551 0.003683
v 0.004100 -0.052551 -0.000000
v 0.006707 -0.052551 -0.003683
v -0.001070 0.043814 -0.009661
v 0.009598 0.043814 -0.006832
v 0.014016 0.043814 0.000000
v 0.009598 0.043814 0.006832
v -0.001070 0.043814 0.009661
v -0.011737 0.043814 0.006832
v -0.016156 0.043814 -0.000000
v -0.011737 0.043814 -0.006832
v -0.002618 0.046575 -0.008130
v 0.008053 0.046575 -0.005749
v 0.012244 0.046575 0.000000
v 0.008053 0.046575 0.005749
v -0.002618 0.046575 0.008130
v -0.011596 0.046575 0.005749
v -0.015314 0.046575 -0.000000
v -0.011596 0.046575 -0.005749
v -0.002066 0.046575 -0.001764
v 0.006399 0.046575 -0.001247
v 0.009905 0.046575 -0.000000
v 0.006399 0.046575 0.001247
v -0.002066 0.046575 0.001764
v -0.013843 0.046575 0.001247
v -0.014038 0.046575 -0.000000
v -0.013843 0.046575 -0.001247
v -0.002066 0.101085 -0.001764
v 0.005047 0.101085 -0.001247
v 0.008554 0.101085 -0.000000
v 0.005047 0.101085 0.001247
v -0.002066 0.101085 0.001764
v -0.013843 0.101085 0.001247
v -0.014038 0.101085 -0.000000
v -0.013843 0.101085 -0.001247
v -0.004160 0.118148 -0.001764
v 0.003512 0.118148 -0.001247
v 0.006180 0.118148 -0.000000
v 0.003512 0.118148 0.001247
v -0.004160 0.118148 0.001764
v -0.013843 0.118148 0.001247
v -0.014038 0.118148 -0.000000
v -0.013843 0.118148 -0.001247
v -0.007514 0.132242 -0.001764
v -0.001783 0.132242 -0.001247
v 0.000885 0.132242 -0.000000
v -0.001783 0.132242 0.001247
v -0.007514 0.132242 0.001764
v -0.013843 0.132242 0.001247
v -0.014038 0.132242 0.000000
v -0.013843 0.132242 -0.001247
v -0.011676 0.145882 -0.001258
v -0.009186 0.145882 -0.001247
v -0.006726 0.145882 -0.000000
v -0.009186 0.145882 0.001247
v -0.011676 0.145882 0.001258
v -0.013843 0.145882 0.001247
v -0.014038 0.145882 -0.000000
v -0.013843 0.145882 -0.001247
v -0.013320 0.152603 -0.000826
v -0.013023 0.152603 -0.000584
v -0.012551 0.152603 -0.000000
v -0.013023 0.152603 0.000584
v -0.013320 0.152603 0.000826
v -0.013916 0.152603 0.000889
v -0.013954 0.152603 -0.000000
v -0.013916 0.152603 -0.000889
v -0.013901 0.154113 -0.000000
vt 0.125000 0.130000
vt 0.125000 0.130000
vt 0.125000 0.130000
vt 0.125000 0.130000
vt 0.125000 0.130000
vt 0.125000 0.130000
vt 0.125000 0.130000
vt 0.125000 0.130000
vt 0.125000 0.130000
vt 0.125000 0.130000
vt 0.125000 0.130000
vt 0.125000 0.130000
vt 0.125000 0.130000
vt 0.125000 0.130000
vt 0.125000 0.130000
vt 0.125000 0.130000
vt 0.125000 0.130000
vt 0.125000 0.130000
vt 0.125000 0.130000
vt 0.125000 0.130000
vt 0.125000 0.130000
vt 0.125000 0.130000
vt 0.125000 0.130000
vt 0.125000 0.130000
vt 0.125000 0.130000
vt 0.125000 0.130000
vt 0.125000 0.130000
vt 0.125000 0.130000
vt 0.125000 0.130000
vt 0.125000 0.130000
vt 0.125000 0.130000
vt 0.125000 0.130000
vt 0.125000 0.130000
vt 0.125000 0.130000
vt 0.125000 0.130000
vt 0.125000 0.130000
vt 0.125000 0.130000
vt 0.125000 0.130000
vt 0.125000 0.130000
vt 0.125000 0.130000
vt 0.125000 0.130000
vt 0.125000 0.130000
vt 0.125000 0.130000
vt 0.125000 0.130000
vt 0.125000 0.130000
vt 0.125000 0.130000
vt 0.125000 0.130000
vt 0.125000 0.130000
vt 0.125000 0.130000
vt 0.125000 0.130000
vt 0.125000 0.130000
vt 0.125000 0.130000
vt 0.125000 0.130000
vt 0.125000 0.130000
vt 0.125000 0.130000
vt 0.125000 0.130000
vt 0.125000 0.130000
vt 0.125000 0.130000
vt 0.639665 0.142402
vt 0.639665 0.142402
vt 0.639665 0.142402
vt 0.639665 0.142402
vt 0.125000 0.130000
vt 0.125000 0.130000
vt 0.125000 0.130000
vt 0.125000 0.130000
vt 0.125000 0.130000
vt 0.125000 0.130000
vt 0.639665 0.142402
vt 0.639665 0.142402
vt 0.639665 0.142402
vt 0.639665 0.142402
vt 0.639665 0.142402
vt 0.639665 0.142402
vt 0.639665 0.142402
vt 0.639665 0.142402
vt 0.889665 0.142402
vt 0.889665 0.142402
vt 0.889665 0.142402
vt 0.889665 0.142402
vt 0.639665 0.142402
vt 0.639665 0.142402
vt 0.889665 0.142402
vt 0.889665 0.142402
vt 0.639665 0.142402
vt 0.639665 0.142402
vt 0.639665 0.142402
vt 0.639665 0.142402
vt 0.639665 0.142402
vt 0.639665 0.142402
vt 0.639665 0.142402
vt 0.639665 0.142402
vt 0.639665 0.142402
vt 0.889665 0.142402
vt 0.889665 0.142402
vt 0.889665 0.142402
vt 0.889665 0.142402
vt 0.889665 0.142402
vt 0.889665 0.142402
vt 0.889665 0.142402
vt 0.639665 0.142402
vt 0.639665 0.142402
vt 0.889665 0.142402
vt 0.639665 0.142402
vt 0.639665 0.142402
vt 0.639665 0.142402
vt 0.639665 0.142402
vt 0.639665 0.142402
vt 0.639665 0.142402
vt 0.639665 0.142402
vt 0.639665 0.142402
vt 0.639665 0.142402
vt 0.639665 0.142402
vt 0.889665 0.142402
vt 0.639665 0.142402
vt 0.639665 0.142402
vt 0.889665 0.142402
vt 0.889665 0.142402
vt 0.889665 0.142402
vt 0.639665 0.142402
vt 0.639665 0.142402
vt 0.639665 0.142402
vt 0.639665 0.142402
vt 0.889665 0.142402
vt 0.639665 0.142402
vt 0.639665 0.142402
vn 0.2356 0.0000 -0.9719
vn 0.8162 0.0000 -0.5778
vn 0.8162 0.0000 0.5778
vn 0.2356 0.0000 0.9719
vn -0.2356 0.0000 0.9719
vn -0.8162 0.0000 0.5778
vn 0.8260 0.0691 0.5595
vn -0.8162 0.0000 -0.5778
vn -0.2356 0.0000 -0.9719
vn 0.2355 0.0276 0.9715
vn -0.7304 -0.4464 -0.5170
vn -0.8125 -0.0953 -0.5751
vn 0.8125 0.0953 -0.5751
vn -0.2355 -0.0276 0.9715
vn -0.2355 -0.0276 -0.9715
vn 0.2355 0.0276 -0.9715
vn 0.8125 0.0953 0.5751
vn -0.8125 -0.0953 0.5751
vn 0.2240 -0.3094 0.9242
vn -0.2310 -0.1950 0.9532
vn 0.7954 0.2241 0.5631
vn 0.2355 0.0115 -0.9718
vn -0.2310 -0.1950 -0.9532
vn -0.7304 -0.4464 0.5170
vn 0.2355 0.0115 0.9718
vn 0.7954 0.2241 -0.5631
vn 0.0000 -1.0000 0.0000
vn 0.8152 -0.0504 -0.5770
vn -0.4586 -0.8273 -0.3246
vn -0.1897 -0.5926 0.7828
vn 0.8152 -0.0504 0.5770
vn 0.2240 -0.3094 -0.9242
vn -0.1897 -0.5926 -0.7828
vn -0.4586 -0.8273 0.3246
vn -0.2387 0.3650 0.8999
vn -0.8279 0.0044 0.5608
vn 0.2455 0.0141 0.9693
vn -0.8279 0.0044 -0.5608
vn 0.8260 0.0691 -0.5595
vn -0.2455 -0.0051 0.9694
vn -0.2455 -0.0051 -0.9694
vn 0.2455 0.0141 -0.9693
vn 0.0000 1.0000 -0.0000
vn 0.7056 0.5186 0.4829
vn 0.2041 0.5098 -0.8357
vn -0.2387 0.3650 -0.8999
vn -0.8134 0.2480 0.5261
vn 0.2041 0.5098 0.8357
vn 0.7056 0.5186 -0.4829
vn -0.8134 0.2480 -0.5261
vn -0.9881 0.0000 0.1540
vn 0.0697 0.0074 -0.9975
vn 0.0662 0.0008 0.9978
vn 0.3351 0.0083 -0.9421
vn -0.9881 0.0000 -0.1540
vn -0.0438 -0.0000 0.9990
vn 0.3351 0.0083 0.9421
vn 0.0662 0.0008 -0.9978
vn -0.0438 -0.0000 -0.9990
vn -0.0481 -0.0029 -0.9988
vn 0.0697 0.0074 0.9975
vn 0.3742 0.0429 -0.9263
vn -0.0481 -0.0029 0.9988
vn 0.3742 0.0429 0.9263
vn 0.4253 0.2341 -0.8743
vn -0.0644 -0.0077 0.9979
vn 0.4182 0.1571 0.8947
vn 0.0768 0.0236 -0.9968
vn -0.0644 -0.0077 -0.9979
vn 0.0768 0.0236 0.9968
vn 0.4182 0.1571 -0.8947
vn 0.0191 0.0611 -0.9980
vn -0.0619 0.0091 0.9980
vn 0.4253 0.2341 0.8743
vn 0.0639 0.0456 -0.9969
vn -0.0619 0.0091 -0.9980
vn 0.0639 0.0456 0.9969
vn 0.6388 0.5707 -0.5160
vn -0.9942 0.0037 0.1078
vn 0.0895 0.1171 0.9891
vn 0.4880 0.3894 -0.7812
vn -0.9942 0.0037 -0.1078
vn 0.0191 0.0611 0.9980
vn 0.4880 0.3894 0.7812
vn 0.0895 0.1171 -0.9891
vn -0.9985 0.0348 -0.0419
vn 0.0911 0.5045 0.8586
vn 0.6388 0.5707 0.5160
vn 0.5259 0.5548 -0.6447
vn 0.0911 0.5045 -0.8586
vn -0.9985 0.0348 0.0419
vn 0.5259 0.5548 0.6447
usemtl Material
s off
f 1/1/1 2/2/1 4/3/1 3/4/1
f 3/4/2 4/3/2 6/5/2 5/6/2
f 5/6/3 6/5/3 8/7/3 7/8/3
f 7/8/4 8/7/4 10/9/4 9/10/4
f 9/10/5 10/9/5 12/11/5 11/12/5
f 11/12/6 12/11/6 14/13/6 13/14/6
f 8/7/7 6/5/7 43/15/7 44/16/7
f 13/14/8 14/13/8 16/17/8 15/18/8
f 15/18/9 16/17/9 2/2/9 1/1/9
f 7/8/10 9/10/10 21/19/10 20/20/10
f 23/21/11 24/22/11 32/23/11 31/24/11
f 13/14/12 15/18/12 24/22/12 23/21/12
f 3/4/13 5/6/13 19/25/13 18/26/13
f 9/10/14 11/12/14 22/27/14 21/19/14
f 15/18/15 1/1/15 17/28/15 24/22/15
f 1/1/16 3/4/16 18/26/16 17/28/16
f 5/6/17 7/8/17 20/20/17 19/25/17
f 11/12/18 13/14/18 23/21/18 22/27/18
f 28/29/19 29/30/19 37/31/19 36/32/19
f 21/19/20 22/27/20 30/33/20 29/30/20
f 19/25/21 20/20/21 28/29/21 27/34/21
f 17/28/22 18/26/22 26/35/22 25/36/22
f 24/22/23 17/28/23 25/36/23 32/23/23
f 22/27/24 23/21/24 31/24/24 30/33/24
f 20/20/25 21/19/25 29/30/25 28/29/25
f 18/26/26 19/25/26 27/34/26 26/35/26
f 33/37/27 34/38/27 35/39/27 36/32/27 37/31/27 38/40/27 39/41/27 40/42/27
f 26/35/28 27/34/28 35/39/28 34/38/28
f 31/24/29 32/23/29 40/42/29 39/41/29
f 29/30/30 30/33/30 38/40/30 37/31/30
f 27/34/31 28/29/31 36/32/31 35/39/31
f 25/36/32 26/35/32 34/38/32 33/37/32
f 32/23/33 25/36/33 33/37/33 40/42/33
f 30/33/34 31/24/34 39/41/34 38/40/34
f 46/43/35 45/44/35 53/45/35 54/46/35
f 14/13/36 12/11/36 46/43/36 47/47/36
f 10/9/37 8/7/37 44/16/37 45/44/37
f 16/17/38 14/13/38 47/47/38 48/48/38
f 6/5/39 4/3/39 42/49/39 43/15/39
f 12/11/40 10/9/40 45/44/40 46/43/40
f 2/2/41 16/17/41 48/48/41 41/50/41
f 4/3/42 2/2/42 41/50/42 42/49/42
f 56/51/43 55/52/43 63/53/43 64/54/43
f 44/16/44 43/15/44 51/55/44 52/56/44
f 42/49/45 41/50/45 49/57/45 50/58/45
f 41/50/46 48/48/46 56/51/46 49/57/46
f 47/47/47 46/43/47 54/46/47 55/52/47
f 45/44/48 44/16/48 52/56/48 53/45/48
f 43/15/49 42/49/49 50/58/49 51/55/49
f 48/48/50 47/47/50 55/52/50 56/51/50
f 63/59/51 62/60/51 70/61/51 71/62/51
f 54/46/43 53/45/43 61/63/43 62/64/43
f 52/56/43 51/55/43 59/65/43 60/66/43
f 50/58/43 49/57/43 57/67/43 58/68/43
f 49/57/43 56/51/43 64/54/43 57/67/43
f 55/52/43 54/46/43 62/64/43 63/53/43
f 53/45/43 52/56/43 60/66/43 61/63/43
f 51/55/43 50/58/43 58/68/43 59/65/43
f 66/69/52 65/70/52 73/71/52 74/72/52
f 61/73/53 60/74/53 68/75/53 69/76/53
f 59/77/54 58/78/54 66/79/54 67/80/54
f 64/81/55 63/59/55 71/62/55 72/82/55
f 62/60/56 61/73/56 69/76/56 70/61/56
f 60/83/57 59/77/57 67/80/57 68/84/57
f 58/85/58 57/86/58 65/70/58 66/69/58
f 57/86/59 64/81/59 72/82/59 65/70/59
f 80/87/55 79/88/55 87/89/55 88/90/55
f 65/70/60 72/82/60 80/87/60 73/71/60
f 71/62/51 70/61/51 78/91/51 79/88/51
f 69/76/61 68/75/61 76/92/61 77/93/61
f 67/80/62 66/79/62 74/94/62 75/95/62
f 72/82/55 71/62/55 79/88/55 80/87/55
f 70/61/63 69/76/63 77/93/63 78/91/63
f 68/84/64 67/80/64 75/95/64 76/96/64
f 83/97/65 82/98/65 90/99/65 91/100/65
f 78/91/66 77/93/66 85/101/66 86/102/66
f 76/96/67 75/95/67 83/97/67 84/103/67
f 74/72/68 73/71/68 81/104/68 82/105/68
f 73/71/69 80/87/69 88/90/69 81/104/69
f 79/88/51 78/91/51 86/102/51 87/89/51
f 77/93/70 76/92/70 84/106/70 85/101/70
f 75/95/71 74/94/71 82/98/71 83/97/71
f 89/107/72 96/108/72 104/109/72 97/110/72
f 88/90/55 87/89/55 95/111/55 96/108/55
f 86/102/73 85/101/73 93/112/73 94/113/73
f 84/103/74 83/97/74 91/100/74 92/114/74
f 82/105/75 81/104/75 89/107/75 90/115/75
f 81/104/76 88/90/76 96/108/76 89/107/76
f 87/89/51 86/102/51 94/113/51 95/111/51
f 85/101/77 84/106/77 92/116/77 93/112/77
f 99/117/78 98/118/78 105/119/78
f 95/111/79 94/113/79 102/120/79 103/121/79
f 93/112/80 92/116/80 100/122/80 101/123/80
f 91/100/81 90/99/81 98/118/81 99/117/81
f 96/108/82 95/111/82 103/121/82 104/109/82
f 94/113/83 93/112/83 101/123/83 102/120/83
f 92/114/84 91/100/84 99/117/84 100/124/84
f 90/115/85 89/107/85 97/110/85 98/125/85
f 104/109/86 103/121/86 105/126/86
f 102/120/87 101/123/87 105/126/87
f 100/124/88 99/117/88 105/119/88
f 98/125/89 97/110/89 105/126/89
f 97/110/90 104/109/90 105/126/90
f 103/121/91 102/120/91 105/126/91
f 101/123/92 100/122/92 105/126/92
