# Blender v2.83.5 OBJ File: 'knife02.blend'
# www.blender.org
mtllib knife02.mtl
o Cylinder.001
v 0.000652 -0.010933 -0.006398
v 0.000000 0.010933 -0.006398
v 0.005885 -0.010933 -0.004524
v 0.005233 0.010933 -0.004524
v 0.009088 -0.010933 0.000000
v 0.008435 0.010933 0.000000
v 0.005885 -0.010933 0.004524
v 0.005233 0.010933 0.004524
v 0.000652 -0.010933 0.006398
v -0.000000 0.010933 0.006398
v -0.007079 -0.010933 0.004524
v -0.007731 0.010933 0.004524
v -0.010281 -0.010933 -0.000000
v -0.010933 0.010933 -0.000000
v -0.007079 -0.010933 -0.004524
v -0.007731 0.010933 -0.004524
v -0.000176 -0.022093 -0.006398
v 0.005057 -0.022093 -0.004524
v 0.008260 -0.022093 0.000000
v 0.005057 -0.022093 0.004524
v -0.000176 -0.022093 0.006398
v -0.007907 -0.022093 0.004524
v -0.011109 -0.022093 -0.000000
v -0.007907 -0.022093 -0.004524
v -0.001828 -0.030965 -0.005542
v 0.002371 -0.030965 -0.003919
v 0.005146 -0.030965 0.000000
v 0.002371 -0.030965 0.003919
v -0.001828 -0.030965 0.005542
v -0.008526 -0.030965 0.003919
v -0.011300 -0.030965 -0.000000
v -0.008526 -0.030965 -0.003919
v -0.005384 -0.038425 -0.003449
v -0.001216 -0.038425 -0.002439
v 0.000511 -0.038425 0.000000
v -0.001216 -0.038425 0.002439
v -0.005384 -0.038425 0.003449
v -0.009552 -0.038425 0.002439
v -0.011279 -0.038425 -0.000000
v -0.009552 -0.038425 -0.002439
v -0.000708 0.028756 -0.006398
v 0.003858 0.028756 -0.004524
v 0.006784 0.028756 0.000000
v 0.003858 0.028756 0.004524
v -0.000708 0.028756 0.006398
v -0.007772 0.028756 0.004524
v -0.010698 0.028756 -0.000000
v -0.007772 0.028756 -0.004524
v -0.002919 0.046509 -0.005036
v 0.002420 0.046509 -0.004524
v 0.004631 0.046509 0.000000
v 0.002420 0.046509 0.004524
v -0.002919 0.046509 0.005036
v -0.008257 0.046509 0.004524
v -0.010469 0.046509 -0.000000
v -0.008257 0.046509 -0.004524
v -0.008257 0.043011 -0.004524
v -0.010469 0.043011 -0.000000
v -0.008257 0.043011 0.004524
v -0.002919 0.043011 0.006398
v 0.002420 0.043011 0.004524
v 0.004631 0.043011 0.000000
v 0.002420 0.043011 -0.004524
v -0.002919 0.043011 -0.006398
v -0.008257 0.050115 -0.001602
v -0.008244 0.050115 -0.000000
v -0.008257 0.050115 0.001602
v -0.002919 0.050115 0.001783
v 0.002420 0.050115 0.001602
v 0.002406 0.050115 0.000000
v 0.002420 0.050115 -0.001602
v -0.002919 0.050115 -0.001783
v -0.008113 -0.044407 -0.001834
v -0.005896 -0.044407 -0.001297
v -0.004978 -0.044407 0.000000
v -0.005896 -0.044407 0.001297
v -0.008113 -0.044407 0.001834
v -0.010329 -0.044407 0.001297
v -0.011248 -0.044407 -0.000000
v -0.010329 -0.044407 -0.001297
v -0.008257 0.052879 -0.000851
v -0.008244 0.052879 -0.000000
v -0.008257 0.052879 0.000851
v -0.000855 0.052879 0.001783
v 0.002420 0.052879 0.000101
v 0.002406 0.052879 0.000000
v 0.002420 0.052879 -0.000101
v -0.000855 0.052879 -0.001783
v -0.008257 0.068302 -0.000643
v -0.008244 0.068302 -0.000000
v -0.008257 0.068302 0.000643
v -0.000552 0.068302 0.000716
v 0.002420 0.068302 0.000101
v 0.002406 0.068302 0.000000
v 0.002420 0.068302 -0.000101
v -0.000552 0.068302 -0.000716
v -0.006660 0.074923 -0.000643
v -0.006646 0.074923 -0.000000
v -0.006660 0.074923 0.000643
v -0.000536 0.074923 0.000716
v 0.002420 0.074923 0.000101
v 0.002406 0.074923 0.000000
v 0.002420 0.074923 -0.000101
v -0.000536 0.074923 -0.000716
v -0.004941 0.080632 -0.000643
v -0.004928 0.080632 -0.000000
v -0.004941 0.080632 0.000643
v 0.000167 0.080632 0.000716
v 0.002420 0.080632 0.000101
v 0.002406 0.080632 0.000000
v 0.002420 0.080632 -0.000101
v 0.000167 0.080632 -0.000716
v -0.002153 0.085127 -0.000643
v -0.002139 0.085127 -0.000000
v -0.002153 0.085127 0.000643
v 0.001588 0.085127 0.000493
v 0.002420 0.085127 0.000101
v 0.002406 0.085127 0.000000
v 0.002420 0.085127 -0.000101
v 0.001588 0.085127 -0.000493
v 0.002163 0.087740 -0.000113
v 0.002166 0.087740 0.000000
v 0.002163 0.087740 0.000113
v 0.002420 0.087740 0.000101
v 0.002406 0.087740 0.000000
v 0.002420 0.087740 -0.000101
vt 0.125000 0.130000
vt 0.125000 0.130000
vt 0.125000 0.130000
vt 0.125000 0.130000
vt 0.125000 0.130000
vt 0.125000 0.130000
vt 0.125000 0.130000
vt 0.125000 0.130000
vt 0.125000 0.130000
vt 0.125000 0.130000
vt 0.125000 0.130000
vt 0.125000 0.130000
vt 0.125000 0.130000
vt 0.125000 0.130000
vt 0.125000 0.130000
vt 0.125000 0.130000
vt 0.125000 0.130000
vt 0.125000 0.130000
vt 0.125000 0.130000
vt 0.125000 0.130000
vt 0.125000 0.130000
vt 0.125000 0.130000
vt 0.125000 0.130000
vt 0.125000 0.130000
vt 0.125000 0.130000
vt 0.125000 0.130000
vt 0.125000 0.130000
vt 0.125000 0.130000
vt 0.125000 0.130000
vt 0.125000 0.130000
vt 0.125000 0.130000
vt 0.125000 0.130000
vt 0.125000 0.130000
vt 0.125000 0.130000
vt 0.125000 0.130000
vt 0.125000 0.130000
vt 0.125000 0.130000
vt 0.125000 0.130000
vt 0.125000 0.130000
vt 0.125000 0.130000
vt 0.125000 0.130000
vt 0.125000 0.130000
vt 0.125000 0.130000
vt 0.125000 0.130000
vt 0.125000 0.130000
vt 0.125000 0.130000
vt 0.125000 0.130000
vt 0.125000 0.130000
vt 0.125000 0.130000
vt 0.125000 0.130000
vt 0.125000 0.130000
vt 0.125000 0.130000
vt 0.125000 0.130000
vt 0.125000 0.130000
vt 0.125000 0.130000
vt 0.125000 0.130000
vt 0.125000 0.130000
vt 0.125000 0.130000
vt 0.125000 0.130000
vt 0.125000 0.130000
vt 0.125000 0.130000
vt 0.125000 0.130000
vt 0.125000 0.130000
vt 0.125000 0.130000
vt 0.125000 0.130000
vt 0.125000 0.130000
vt 0.125000 0.130000
vt 0.125000 0.130000
vt 0.125000 0.130000
vt 0.125000 0.130000
vt 0.125000 0.130000
vt 0.125000 0.130000
vt 0.125000 0.130000
vt 0.125000 0.130000
vt 0.625000 0.130000
vt 0.625000 0.130000
vt 0.625000 0.130000
vt 0.625000 0.130000
vt 0.125000 0.130000
vt 0.125000 0.130000
vt 0.125000 0.130000
vt 0.125000 0.130000
vt 0.125000 0.130000
vt 0.125000 0.130000
vt 0.625000 0.130000
vt 0.625000 0.130000
vt 0.625000 0.130000
vt 0.625000 0.130000
vt 0.625000 0.130000
vt 0.625000 0.130000
vt 0.625000 0.130000
vt 0.625000 0.130000
vt 0.625000 0.130000
vt 0.625000 0.130000
vt 0.625000 0.130000
vt 0.625000 0.130000
vt 0.625000 0.130000
vt 0.625000 0.130000
vt 0.875000 0.130000
vt 0.875000 0.130000
vt 0.875000 0.130000
vt 0.875000 0.130000
vt 0.875000 0.130000
vt 0.875000 0.130000
vt 0.875000 0.130000
vt 0.625000 0.130000
vt 0.875000 0.130000
vt 0.875000 0.130000
vt 0.875000 0.130000
vt 0.875000 0.130000
vt 0.875000 0.130000
vt 0.625000 0.130000
vt 0.625000 0.130000
vt 0.875000 0.130000
vt 0.875000 0.130000
vt 0.875000 0.130000
vt 0.625000 0.130000
vt 0.625000 0.130000
vt 0.875000 0.130000
vt 0.625000 0.130000
vt 0.875000 0.130000
vt 0.625000 0.130000
vt 0.625000 0.130000
vt 0.625000 0.130000
vt 0.625000 0.130000
vt 0.625000 0.130000
vt 0.625000 0.130000
vt 0.625000 0.130000
vt 0.625000 0.130000
vt 0.625000 0.130000
vt 0.875000 0.130000
vt 0.875000 0.130000
vt 0.875000 0.130000
vt 0.625000 0.130000
vt 0.625000 0.130000
vt 0.625000 0.130000
vt 0.875000 0.130000
vt 0.875000 0.130000
vt 0.875000 0.130000
vt 0.875000 0.130000
vt 0.625000 0.130000
vt 0.625000 0.130000
vt 0.875000 0.130000
vt 0.875000 0.130000
vt 0.875000 0.130000
vt 0.875000 0.130000
vt 0.875000 0.130000
vt 0.875000 0.130000
vt 0.875000 0.130000
vt 0.625000 0.130000
vt 0.625000 0.130000
vt 0.625000 0.130000
vn 0.3371 0.0101 -0.9414
vn 0.8160 0.0243 -0.5776
vn 0.8160 0.0243 0.5776
vn 0.3371 0.0101 0.9414
vn -0.2356 -0.0070 0.9718
vn -0.8160 -0.0243 0.5776
vn 0.8259 0.0701 0.5594
vn -0.8160 -0.0243 -0.5776
vn -0.2356 -0.0070 -0.9718
vn 0.3370 -0.0250 0.9412
vn -0.8161 0.0176 -0.5777
vn -0.8147 0.0604 -0.5767
vn 0.8147 -0.0604 -0.5767
vn -0.2355 0.0175 0.9717
vn -0.2355 0.0175 -0.9717
vn 0.3370 -0.0250 -0.9412
vn 0.8147 -0.0604 0.5767
vn -0.8147 0.0604 0.5767
vn 0.2814 -0.3488 0.8940
vn -0.2353 -0.0497 0.9707
vn 0.7846 -0.2754 0.5554
vn 0.3431 -0.1600 -0.9255
vn -0.2353 -0.0497 -0.9707
vn -0.8161 0.0176 0.5777
vn 0.3431 -0.1600 0.9255
vn 0.7846 -0.2754 -0.5554
vn -0.8162 -0.0043 0.5778
vn 0.7280 -0.4523 -0.5153
vn -0.8162 -0.0023 -0.5778
vn -0.2326 -0.1584 0.9596
vn 0.7280 -0.4523 0.5153
vn 0.2814 -0.3488 -0.8940
vn -0.2326 -0.1584 -0.9596
vn -0.8162 -0.0023 0.5778
vn 0.3535 0.0452 0.9343
vn -0.8279 0.0045 0.5608
vn 0.3571 0.0209 0.9338
vn -0.8279 0.0045 -0.5608
vn 0.8259 0.0701 -0.5594
vn -0.2455 -0.0052 0.9694
vn -0.2455 -0.0052 -0.9694
vn 0.3571 0.0209 -0.9338
vn 0.3535 0.0452 -0.9343
vn 0.8644 0.1089 0.4908
vn -0.8984 0.0000 -0.4392
vn -0.2142 0.1866 0.9588
vn -0.2891 -0.0273 -0.9569
vn -0.8696 -0.0078 -0.4938
vn 0.2142 0.1866 -0.9588
vn -0.8984 0.0000 0.4392
vn 0.8644 0.1089 -0.4908
vn 0.0492 0.6496 -0.7587
vn 0.8984 0.0000 -0.4392
vn -0.2142 0.1866 -0.9588
vn -0.8696 -0.0078 0.4938
vn -0.2891 -0.0273 0.9569
vn 0.8984 0.0000 0.4392
vn 0.0492 0.6496 0.7587
vn -0.8656 0.3929 0.3105
vn 0.2142 0.1866 0.9588
vn -0.0492 0.6496 -0.7587
vn 0.8656 0.3929 0.3105
vn -0.8656 0.3929 -0.3105
vn 0.8656 0.3929 -0.3105
vn 0.9999 -0.0044 -0.0161
vn -0.0492 0.6496 0.7587
vn 0.0000 -1.0000 0.0000
vn 0.2209 -0.3469 0.9115
vn 0.6533 -0.5995 -0.4624
vn -0.8162 -0.0043 -0.5778
vn -0.2328 -0.1531 0.9604
vn 0.6533 -0.5995 0.4624
vn 0.2209 -0.3469 -0.9115
vn -0.2328 -0.1531 -0.9604
vn -0.9998 -0.0001 0.0184
vn -0.9999 -0.0015 0.0112
vn 0.9999 -0.0044 0.0161
vn -0.9999 -0.0015 -0.0112
vn 0.4113 0.4348 0.8011
vn 0.0339 -0.0253 -0.9991
vn -0.0858 0.1655 -0.9825
vn -0.0858 0.1655 0.9825
vn 0.0339 -0.0253 0.9991
vn 0.4113 0.4348 -0.8011
vn 0.9910 -0.0000 -0.1342
vn 0.9910 -0.0000 0.1342
vn -0.9998 -0.0001 -0.0184
vn 0.3449 0.0291 -0.9382
vn 0.3449 0.0291 0.9382
vn -0.0663 0.0418 -0.9969
vn -0.0663 0.0418 0.9969
vn 0.2297 -0.0141 0.9731
vn -0.9719 0.2345 0.0207
vn -0.9719 0.2345 -0.0207
vn 0.2031 -0.0003 -0.9792
vn 0.2031 -0.0003 0.9792
vn -0.0105 0.0013 -0.9999
vn -0.0105 0.0013 0.9999
vn -0.8496 0.5271 -0.0181
vn -0.0130 0.0027 -0.9999
vn -0.0130 0.0027 0.9999
vn -0.9574 0.2881 0.0204
vn -0.9574 0.2881 -0.0204
vn 0.2297 -0.0141 -0.9731
vn -0.5189 0.8547 0.0119
vn 0.3100 -0.0254 -0.9504
vn 0.3100 -0.0254 0.9504
vn 0.0088 0.0207 -0.9997
vn 0.0088 0.0207 0.9997
vn -0.8496 0.5271 0.0181
vn 0.0000 1.0000 0.0000
vn -0.5189 0.8547 -0.0119
vn 0.4258 0.0000 -0.9048
vn 0.4258 0.0000 0.9048
vn 0.0402 0.1349 -0.9900
vn 0.0402 0.1349 0.9900
usemtl Material
s off
f 1/1/1 2/2/1 4/3/1 3/4/1
f 3/4/2 4/3/2 6/5/2 5/6/2
f 5/6/3 6/5/3 8/7/3 7/8/3
f 7/8/4 8/7/4 10/9/4 9/10/4
f 9/10/5 10/9/5 12/11/5 11/12/5
f 11/12/6 12/11/6 14/13/6 13/14/6
f 8/7/7 6/5/7 43/15/7 44/16/7
f 13/14/8 14/13/8 16/17/8 15/18/8
f 15/18/9 16/17/9 2/2/9 1/1/9
f 7/8/10 9/10/10 21/19/10 20/20/10
f 23/21/11 24/22/11 32/23/11 31/24/11
f 13/14/12 15/18/12 24/22/12 23/21/12
f 3/4/13 5/6/13 19/25/13 18/26/13
f 9/10/14 11/12/14 22/27/14 21/19/14
f 15/18/15 1/1/15 17/28/15 24/22/15
f 1/1/16 3/4/16 18/26/16 17/28/16
f 5/6/17 7/8/17 20/20/17 19/25/17
f 11/12/18 13/14/18 23/21/18 22/27/18
f 28/29/19 29/30/19 37/31/19 36/32/19
f 21/19/20 22/27/20 30/33/20 29/30/20
f 19/25/21 20/20/21 28/29/21 27/34/21
f 17/28/22 18/26/22 26/35/22 25/36/22
f 24/22/23 17/28/23 25/36/23 32/23/23
f 22/27/24 23/21/24 31/24/24 30/33/24
f 20/20/25 21/19/25 29/30/25 28/29/25
f 18/26/26 19/25/26 27/34/26 26/35/26
f 38/37/27 39/38/27 79/39/27 78/40/27
f 26/35/28 27/34/28 35/41/28 34/42/28
f 31/24/29 32/23/29 40/43/29 39/38/29
f 29/30/30 30/33/30 38/37/30 37/31/30
f 27/34/31 28/29/31 36/32/31 35/41/31
f 25/36/32 26/35/32 34/42/32 33/44/32
f 32/23/33 25/36/33 33/44/33 40/43/33
f 30/33/34 31/24/34 39/38/34 38/37/34
f 45/45/35 44/16/35 61/46/35 60/47/35
f 14/13/36 12/11/36 46/48/36 47/49/36
f 10/9/37 8/7/37 44/16/37 45/45/37
f 16/17/38 14/13/38 47/49/38 48/50/38
f 6/5/39 4/3/39 42/51/39 43/15/39
f 12/11/40 10/9/40 45/45/40 46/48/40
f 2/2/41 16/17/41 48/50/41 41/52/41
f 4/3/42 2/2/42 41/52/42 42/51/42
f 42/51/43 41/52/43 64/53/43 63/54/43
f 44/16/44 43/15/44 62/55/44 61/46/44
f 57/56/45 58/57/45 55/58/45 56/59/45
f 59/60/46 60/47/46 53/61/46 54/62/46
f 41/52/47 48/50/47 57/56/47 64/53/47
f 48/50/48 47/49/48 58/57/48 57/56/48
f 63/54/49 64/53/49 49/63/49 50/64/49
f 58/57/50 59/60/50 54/62/50 55/58/50
f 43/15/51 42/51/51 63/54/51 62/55/51
f 50/64/52 49/63/52 72/65/52 71/66/52
f 62/55/53 63/54/53 50/64/53 51/67/53
f 64/53/54 57/56/54 56/59/54 49/63/54
f 47/49/55 46/48/55 59/60/55 58/57/55
f 46/48/56 45/45/56 60/47/56 59/60/56
f 61/46/57 62/55/57 51/67/57 52/68/57
f 53/61/58 52/68/58 69/69/58 68/70/58
f 55/58/59 54/62/59 67/71/59 66/72/59
f 60/47/60 61/46/60 52/68/60 53/61/60
f 49/63/61 56/59/61 65/73/61 72/65/61
f 52/68/62 51/67/62 70/74/62 69/69/62
f 56/59/63 55/58/63 66/72/63 65/73/63
f 51/67/64 50/64/64 71/66/64 70/74/64
f 69/75/65 70/76/65 86/77/65 85/78/65
f 54/62/66 53/61/66 68/70/66 67/71/66
f 73/79/67 74/80/67 75/81/67 76/82/67 77/83/67 78/40/67 79/39/67 80/84/67
f 36/32/68 37/31/68 77/83/68 76/82/68
f 34/42/69 35/41/69 75/81/69 74/80/69
f 39/38/70 40/43/70 80/84/70 79/39/70
f 37/31/71 38/37/71 78/40/71 77/83/71
f 35/41/72 36/32/72 76/82/72 75/81/72
f 33/44/73 34/42/73 74/80/73 73/79/73
f 40/43/74 33/44/74 73/79/74 80/84/74
f 81/85/75 82/86/75 90/87/75 89/88/75
f 65/89/76 66/90/76 82/86/76 81/85/76
f 70/76/77 71/91/77 87/92/77 86/77/77
f 66/90/78 67/93/78 83/94/78 82/86/78
f 69/75/79 85/78/79 84/95/79
f 71/91/80 72/96/80 88/97/80
f 72/96/81 65/89/81 81/85/81 88/97/81
f 67/93/82 68/98/82 84/95/82 83/94/82
f 68/98/83 69/75/83 84/95/83
f 87/92/84 71/91/84 88/97/84
f 93/99/85 94/100/85 102/101/85 101/102/85
f 86/103/86 87/104/86 95/105/86 94/100/86
f 82/86/87 83/94/87 91/106/87 90/87/87
f 87/104/88 88/107/88 96/108/88 95/105/88
f 84/109/89 85/110/89 93/99/89 92/111/89
f 88/97/90 81/85/90 89/88/90 96/112/90
f 83/94/91 84/95/91 92/113/91 91/106/91
f 85/110/85 86/103/85 94/100/85 93/99/85
f 100/114/92 101/102/92 109/115/92 108/116/92
f 89/88/93 90/87/93 98/117/93 97/118/93
f 94/100/86 95/105/86 103/119/86 102/101/86
f 90/87/94 91/106/94 99/120/94 98/117/94
f 95/105/95 96/108/95 104/121/95 103/119/95
f 92/111/96 93/99/96 101/102/96 100/114/96
f 96/112/97 89/88/97 97/118/97 104/122/97
f 91/106/98 92/113/98 100/123/98 99/120/98
f 106/124/99 107/125/99 115/126/99 114/127/99
f 104/122/100 97/118/100 105/128/100 112/129/100
f 99/120/101 100/123/101 108/130/101 107/125/101
f 101/102/85 102/101/85 110/131/85 109/115/85
f 97/118/102 98/117/102 106/124/102 105/128/102
f 102/101/86 103/119/86 111/132/86 110/131/86
f 98/117/103 99/120/103 107/125/103 106/124/103
f 103/119/104 104/121/104 112/133/104 111/132/104
f 113/134/105 114/127/105 122/135/105 121/136/105
f 111/132/106 112/133/106 120/137/106 119/138/106
f 108/116/107 109/115/107 117/139/107 116/140/107
f 112/129/108 105/128/108 113/134/108 120/141/108
f 107/125/109 108/130/109 116/142/109 115/126/109
f 109/115/85 110/131/85 118/143/85 117/139/85
f 105/128/110 106/124/110 114/127/110 113/134/110
f 110/131/86 111/132/86 119/138/86 118/143/86
f 126/144/111 121/145/111 122/146/111 123/147/111 124/148/111 125/149/111
f 118/143/86 119/138/86 126/144/86 125/149/86
f 114/127/112 115/126/112 123/150/112 122/135/112
f 119/138/113 120/137/113 126/144/113
f 116/140/114 117/139/114 124/148/114
f 120/141/115 113/134/115 121/136/115 126/151/115
f 115/126/116 116/142/116 124/152/116 123/150/116
f 117/139/85 118/143/85 125/149/85 124/148/85
