# Blender v2.83.5 OBJ File: 'pencil04.blend'
# www.blender.org
mtllib pencil04.mtl
o Cylinder_Cylinder.003
v -0.001358 -0.007701 -0.007115
v -0.001358 0.093815 -0.007115
v 0.001358 -0.007701 -0.007115
v 0.001358 0.093815 -0.007115
v 0.003279 -0.007701 -0.002947
v 0.003279 0.093815 -0.002947
v 0.003279 -0.007701 0.002947
v 0.003279 0.093815 0.002947
v 0.001358 -0.007701 0.007115
v 0.001358 0.093815 0.007115
v -0.001358 -0.007701 0.007115
v -0.001358 0.093815 0.007115
v -0.003279 -0.007701 0.002947
v -0.003279 0.093815 0.002947
v -0.003279 -0.007701 -0.002947
v -0.003279 0.093815 -0.002947
v -0.000664 0.099301 -0.003480
v 0.000664 0.099301 -0.003480
v 0.001604 0.099301 -0.001441
v 0.001604 0.099301 0.001441
v 0.000664 0.099301 0.003480
v -0.000664 0.099301 0.003480
v -0.001604 0.099301 0.001441
v -0.001604 0.099301 -0.001441
v -0.000689 -0.007701 -0.003610
v 0.000689 -0.007701 -0.003610
v 0.001664 -0.007701 -0.001495
v 0.001664 -0.007701 0.001495
v 0.000689 -0.007701 0.003610
v -0.000689 -0.007701 0.003610
v -0.001664 -0.007701 0.001495
v -0.001664 -0.007701 -0.001495
v -0.000364 0.102324 -0.001909
v 0.000365 0.102324 -0.001909
v 0.000880 0.102324 -0.000791
v 0.000880 0.102324 0.000791
v 0.000365 0.102324 0.001909
v -0.000364 0.102324 0.001909
v -0.000880 0.102324 0.000791
v -0.000880 0.102324 -0.000791
vt 0.125000 0.630000
vt 0.125000 0.630000
vt 0.125000 0.630000
vt 0.125000 0.630000
vt 0.125000 0.630000
vt 0.125000 0.630000
vt 0.125000 0.630000
vt 0.125000 0.630000
vt 0.125000 0.630000
vt 0.125000 0.630000
vt 0.125000 0.630000
vt 0.125000 0.630000
vt 0.125000 0.630000
vt 0.125000 0.630000
vt 0.875000 0.380000
vt 0.875000 0.380000
vt 0.875000 0.380000
vt 0.875000 0.380000
vt 0.125000 0.630000
vt 0.125000 0.630000
vt 0.875000 0.380000
vt 0.875000 0.380000
vt 0.875000 0.380000
vt 0.875000 0.380000
vt 0.625000 0.380000
vt 0.625000 0.380000
vt 0.625000 0.380000
vt 0.625000 0.380000
vt 0.875000 0.380000
vt 0.875000 0.380000
vt 0.875000 0.380000
vt 0.875000 0.380000
vt 0.875000 0.380000
vt 0.875000 0.380000
vt 0.875000 0.380000
vt 0.875000 0.380000
vt 0.875000 0.380000
vt 0.875000 0.380000
vt 0.875000 0.380000
vt 0.875000 0.380000
vt 0.625000 0.380000
vt 0.625000 0.380000
vt 0.625000 0.380000
vt 0.625000 0.380000
vt 0.625000 0.380000
vt 0.625000 0.380000
vt 0.625000 0.380000
vt 0.625000 0.380000
vt 0.875000 0.380000
vt 0.875000 0.380000
vt 0.875000 0.380000
vt 0.875000 0.380000
vt 0.875000 0.380000
vt 0.875000 0.380000
vt 0.875000 0.380000
vt 0.875000 0.380000
vt 0.875000 0.380000
vt 0.875000 0.380000
vt 0.875000 0.380000
vt 0.875000 0.380000
vt 0.625000 0.380000
vt 0.625000 0.380000
vt 0.625000 0.380000
vt 0.625000 0.380000
vt 0.625000 0.380000
vt 0.625000 0.380000
vt 0.625000 0.380000
vt 0.625000 0.380000
vt 0.625000 0.380000
vt 0.625000 0.380000
vt 0.625000 0.380000
vt 0.625000 0.380000
vn 0.0000 0.0000 -1.0000
vn 0.9082 0.0000 -0.4185
vn 1.0000 0.0000 0.0000
vn 0.9082 0.0000 0.4185
vn -0.0000 0.0000 1.0000
vn -0.9082 0.0000 0.4185
vn 0.8455 0.3651 0.3897
vn -1.0000 0.0000 0.0000
vn -0.9082 0.0000 -0.4185
vn 0.0000 -1.0000 0.0000
vn 0.8681 0.2939 0.4001
vn -0.9564 0.2920 0.0000
vn 0.8455 0.3651 -0.3897
vn -0.0000 0.5523 0.8337
vn -0.8455 0.3651 -0.3897
vn 0.0000 0.5523 -0.8337
vn 0.9564 0.2920 0.0000
vn -0.8455 0.3651 0.3897
vn 0.0000 1.0000 0.0000
vn 0.8681 0.2939 -0.4001
vn -0.9725 0.2329 0.0000
vn -0.0000 0.4610 0.8874
vn 0.9725 0.2329 0.0000
vn 0.0000 0.4610 -0.8874
vn -0.8681 0.2940 -0.4001
vn -0.8681 0.2940 0.4001
usemtl Material.001
s off
f 1/1/1 2/2/1 4/3/1 3/4/1
f 3/4/2 4/3/2 6/5/2 5/6/2
f 5/6/3 6/5/3 8/7/3 7/8/3
f 7/8/4 8/7/4 10/9/4 9/10/4
f 9/10/5 10/9/5 12/11/5 11/12/5
f 11/12/6 12/11/6 14/13/6 13/14/6
f 10/15/7 8/16/7 20/17/7 21/18/7
f 13/14/8 14/13/8 16/19/8 15/20/8
f 15/20/9 16/19/9 2/2/9 1/1/9
f 15/21/10 1/22/10 25/23/10 32/24/10
f 21/25/11 20/26/11 36/27/11 37/28/11
f 16/29/12 14/30/12 23/31/12 24/32/12
f 6/33/13 4/34/13 18/35/13 19/36/13
f 12/37/14 10/15/14 21/18/14 22/38/14
f 2/39/15 16/29/15 24/32/15 17/40/15
f 4/34/16 2/39/16 17/40/16 18/35/16
f 8/16/17 6/33/17 19/36/17 20/17/17
f 14/30/18 12/37/18 22/38/18 23/31/18
f 25/41/10 26/42/10 27/43/10 28/44/10 29/45/10 30/46/10 31/47/10 32/48/10
f 1/22/10 3/49/10 26/50/10 25/23/10
f 5/51/10 7/52/10 28/53/10 27/54/10
f 11/55/10 13/56/10 31/57/10 30/58/10
f 7/52/10 9/59/10 29/60/10 28/53/10
f 13/56/10 15/21/10 32/24/10 31/57/10
f 3/49/10 5/51/10 27/54/10 26/50/10
f 9/59/10 11/55/10 30/58/10 29/60/10
f 34/61/19 33/62/19 40/63/19 39/64/19 38/65/19 37/28/19 36/27/19 35/66/19
f 19/67/20 18/68/20 34/61/20 35/66/20
f 24/69/21 23/70/21 39/64/21 40/63/21
f 22/71/22 21/25/22 37/28/22 38/65/22
f 20/26/23 19/67/23 35/66/23 36/27/23
f 18/68/24 17/72/24 33/62/24 34/61/24
f 17/72/25 24/69/25 40/63/25 33/62/25
f 23/70/26 22/71/26 38/65/26 39/64/26
