# Blender v2.83.5 OBJ File: 'fork01.blend'
# www.blender.org
mtllib fork01.mtl
o Cylinder
v 0.000000 0.362089 -0.013440
v 0.000000 1.202356 -0.013440
v 0.009503 0.362089 -0.009503
v 0.009503 1.202356 -0.009503
v 0.013440 0.362089 0.000000
v 0.013440 1.202356 0.000000
v 0.009503 0.362089 0.009503
v 0.009503 1.202356 0.009503
v -0.000000 0.362089 0.013440
v -0.000000 1.202356 0.013440
v -0.009503 0.362089 0.009503
v -0.009503 1.202356 0.009503
v -0.013440 0.362089 -0.000000
v -0.013440 1.202356 -0.000000
v -0.009503 0.362089 -0.009503
v -0.009503 1.202356 -0.009503
v 0.000000 1.206971 -0.010219
v 0.007226 1.206971 -0.007226
v 0.010219 1.206971 0.000000
v 0.007226 1.206971 0.007226
v 0.000000 1.206971 0.010219
v -0.007226 1.206971 0.007226
v -0.010219 1.206971 -0.000000
v -0.007226 1.206971 -0.007226
v 0.000000 1.209508 -0.004049
v 0.002863 1.209508 -0.002863
v 0.004049 1.209508 0.000000
v 0.002863 1.209508 0.002863
v 0.000000 1.209508 0.004049
v -0.002863 1.209508 0.002863
v -0.004049 1.209508 -0.000000
v -0.002863 1.209508 -0.002863
v 0.000000 0.362089 -0.016943
v 0.011981 0.362089 -0.011981
v 0.016943 0.362089 0.000000
v 0.011981 0.362089 0.011981
v -0.000000 0.362089 0.016943
v -0.011981 0.362089 0.011981
v -0.016943 0.362089 -0.000000
v -0.011981 0.362089 -0.011981
v -0.000000 0.256538 -0.010450
v 0.007389 0.256538 -0.007389
v 0.010450 0.256538 0.000000
v 0.007389 0.256538 0.007389
v -0.000000 0.256538 0.010450
v -0.007389 0.256538 0.007389
v -0.010450 0.256538 -0.000000
v -0.007389 0.256538 -0.007389
v -0.000000 0.243649 -0.003832
v 0.007389 0.243649 -0.002709
v 0.010450 0.243649 0.000000
v 0.007389 0.243649 0.002709
v -0.000000 0.243649 0.003832
v -0.007389 0.243649 0.002709
v -0.010450 0.243649 -0.000000
v -0.007389 0.243649 -0.002709
v 0.023339 0.051263 -0.009172
v 0.023339 0.106910 -0.007500
v 0.030179 0.051009 -0.007369
v 0.031591 0.106910 -0.005303
v 0.033012 0.050395 -0.003016
v 0.035009 0.106910 0.000000
v 0.030179 0.049782 0.001337
v 0.031591 0.106910 0.005303
v 0.023339 0.049528 0.003140
v 0.023339 0.106910 0.007500
v 0.016499 0.049782 0.001337
v 0.015087 0.106910 0.005303
v 0.013666 0.050395 -0.003016
v 0.011670 0.106910 -0.000000
v 0.016499 0.051009 -0.007369
v 0.015087 0.106910 -0.005303
v 0.023339 -0.025921 -0.015683
v 0.027438 -0.025921 -0.014591
v 0.029136 -0.025921 -0.011957
v 0.027438 -0.025921 -0.009322
v 0.023339 -0.025921 -0.008231
v 0.019240 -0.025921 -0.009322
v 0.017542 -0.025921 -0.011957
v 0.019240 -0.025921 -0.014591
v 0.023339 0.227322 -0.007500
v 0.031591 0.227322 -0.005303
v 0.035009 0.227322 0.000000
v 0.031591 0.227322 0.005303
v 0.023339 0.227322 0.007500
v 0.015088 0.227322 0.005303
v 0.011670 0.227322 -0.000000
v 0.015088 0.227322 -0.005303
v -0.023339 0.051263 -0.009172
v -0.023339 0.106910 -0.007500
v -0.016499 0.051009 -0.007369
v -0.015088 0.106910 -0.005303
v -0.013666 0.050395 -0.003016
v -0.011670 0.106910 0.000000
v -0.016499 0.049782 0.001337
v -0.015088 0.106910 0.005303
v -0.023339 0.049528 0.003140
v -0.023339 0.106910 0.007500
v -0.030179 0.049782 0.001337
v -0.031591 0.106910 0.005303
v -0.033012 0.050395 -0.003016
v -0.035009 0.106910 -0.000000
v -0.030179 0.051009 -0.007369
v -0.031591 0.106910 -0.005303
v -0.023339 -0.025921 -0.015683
v -0.019240 -0.025921 -0.014591
v -0.017542 -0.025921 -0.011957
v -0.019240 -0.025921 -0.009322
v -0.023339 -0.025921 -0.008231
v -0.027438 -0.025921 -0.009322
v -0.029136 -0.025921 -0.011957
v -0.027438 -0.025921 -0.014591
v -0.023339 0.227322 -0.007500
v -0.015087 0.227322 -0.005303
v -0.011670 0.227322 0.000000
v -0.015087 0.227322 0.005303
v -0.023339 0.227322 0.007500
v -0.031591 0.227322 0.005303
v -0.035009 0.227322 -0.000000
v -0.031591 0.227322 -0.005303
v -0.070017 0.051263 -0.009172
v -0.070017 0.106910 -0.007500
v -0.063178 0.051009 -0.007369
v -0.061766 0.106910 -0.005303
v -0.060344 0.050395 -0.003016
v -0.058348 0.106910 0.000000
v -0.063178 0.049782 0.001337
v -0.061766 0.106910 0.005303
v -0.070017 0.049528 0.003140
v -0.070017 0.106910 0.007500
v -0.076857 0.049782 0.001337
v -0.078269 0.106910 0.005303
v -0.079690 0.050395 -0.003016
v -0.081687 0.106910 -0.000000
v -0.076857 0.051009 -0.007369
v -0.078269 0.106910 -0.005303
v -0.070017 -0.025921 -0.015683
v -0.065918 -0.025921 -0.014591
v -0.064220 -0.025921 -0.011957
v -0.065918 -0.025921 -0.009322
v -0.070017 -0.025921 -0.008231
v -0.074117 -0.025921 -0.009322
v -0.075815 -0.025921 -0.011957
v -0.074117 -0.025921 -0.014591
v -0.070017 0.227322 -0.007500
v -0.061766 0.227322 -0.005303
v -0.058348 0.227322 0.000000
v -0.061766 0.227322 0.005303
v -0.070017 0.227322 0.007500
v -0.078269 0.227322 0.005303
v -0.081687 0.227322 -0.000000
v -0.078269 0.227322 -0.005303
v 0.070017 0.051263 -0.009172
v 0.070017 0.106910 -0.007500
v 0.076857 0.051009 -0.007369
v 0.078269 0.106910 -0.005303
v 0.079690 0.050395 -0.003016
v 0.081687 0.106910 0.000000
v 0.076857 0.049782 0.001337
v 0.078269 0.106910 0.005303
v 0.070017 0.049528 0.003140
v 0.070017 0.106910 0.007500
v 0.063178 0.049782 0.001337
v 0.061766 0.106910 0.005303
v 0.060344 0.050395 -0.003016
v 0.058348 0.106910 -0.000000
v 0.063178 0.051009 -0.007369
v 0.061766 0.106910 -0.005303
v 0.070017 -0.025921 -0.015683
v 0.074117 -0.025921 -0.014591
v 0.075815 -0.025921 -0.011957
v 0.074117 -0.025921 -0.009322
v 0.070017 -0.025921 -0.008231
v 0.065918 -0.025921 -0.009322
v 0.064220 -0.025921 -0.011957
v 0.065918 -0.025921 -0.014591
v 0.070017 0.227322 -0.007500
v 0.078269 0.227322 -0.005303
v 0.081687 0.227322 0.000000
v 0.078269 0.227322 0.005303
v 0.070017 0.227322 0.007500
v 0.061766 0.227322 0.005303
v 0.058348 0.227322 -0.000000
v 0.061766 0.227322 -0.005303
v -0.078269 0.237637 0.005303
v -0.081687 0.234600 -0.000000
v -0.078269 0.237637 -0.005303
v 0.078269 0.237637 -0.005303
v 0.081687 0.234600 0.000000
v 0.078269 0.237637 0.005303
v 0.000000 0.240459 -0.005303
v 0.039135 0.240459 -0.005303
v -0.039134 0.240459 -0.005303
v 0.062677 0.239185 -0.005303
v -0.022923 0.240459 -0.005303
v 0.022923 0.240459 -0.005303
v -0.062677 0.239185 -0.005303
v 0.000000 0.240459 0.005303
v 0.039135 0.240459 0.005303
v -0.039134 0.240459 0.005303
v 0.061838 0.239185 0.005303
v -0.022736 0.240459 0.005303
v 0.022736 0.240459 0.005303
v -0.061838 0.239185 0.005303
vt 0.125961 0.121118
vt 0.125961 0.121118
vt 0.125961 0.121118
vt 0.125961 0.121118
vt 0.125961 0.121118
vt 0.125961 0.121118
vt 0.125961 0.121118
vt 0.125961 0.121118
vt 0.125961 0.121118
vt 0.125961 0.121118
vt 0.125961 0.121118
vt 0.125961 0.121118
vt 0.125961 0.121118
vt 0.125961 0.121118
vt 0.125961 0.121118
vt 0.125961 0.121118
vt 0.125961 0.121118
vt 0.125961 0.121118
vt 0.593510 0.135883
vt 0.593510 0.135883
vt 0.593510 0.135883
vt 0.593510 0.135883
vt 0.125961 0.121118
vt 0.125961 0.121118
vt 0.125961 0.121118
vt 0.125961 0.121118
vt 0.125961 0.121118
vt 0.125961 0.121118
vt 0.125961 0.121118
vt 0.125961 0.121118
vt 0.125961 0.121118
vt 0.125961 0.121118
vt 0.125961 0.121118
vt 0.125961 0.121118
vt 0.125961 0.121118
vt 0.125961 0.121118
vt 0.593510 0.135883
vt 0.593510 0.135883
vt 0.593510 0.135883
vt 0.593510 0.135883
vt 0.593510 0.135883
vt 0.593510 0.135883
vt 0.593510 0.135883
vt 0.593510 0.135883
vt 0.593510 0.135883
vt 0.593510 0.135883
vt 0.593510 0.135883
vt 0.593510 0.135883
vt 0.593510 0.135883
vt 0.593510 0.135883
vt 0.627961 0.121039
vt 0.627961 0.121039
vt 0.627961 0.121039
vt 0.627961 0.121039
vt 0.593510 0.135883
vt 0.593510 0.135883
vt 0.593510 0.135883
vt 0.593510 0.135883
vt 0.593510 0.135883
vt 0.593510 0.135883
vt 0.627961 0.121039
vt 0.627961 0.121039
vt 0.627961 0.121039
vt 0.627961 0.121039
vt 0.627961 0.121039
vt 0.627961 0.121039
vt 0.627961 0.121039
vt 0.627961 0.121039
vt 0.627961 0.121039
vt 0.627961 0.121039
vt 0.627961 0.121039
vt 0.627961 0.121039
vt 0.627961 0.121039
vt 0.627961 0.121039
vt 0.627961 0.121039
vt 0.627961 0.121039
vt 0.627961 0.121039
vt 0.627961 0.121039
vt 0.627961 0.121039
vt 0.627961 0.121039
vt 0.627961 0.121039
vt 0.627961 0.121039
vt 0.627961 0.121039
vt 0.627961 0.121039
vt 0.627961 0.121039
vt 0.627961 0.121039
vt 0.627961 0.121039
vt 0.627961 0.121039
vt 0.627961 0.121039
vt 0.627961 0.121039
vt 0.627961 0.121039
vt 0.627961 0.121039
vt 0.627961 0.121039
vt 0.627961 0.121039
vt 0.627961 0.121039
vt 0.627961 0.121039
vt 0.627961 0.121039
vt 0.627961 0.121039
vt 0.627961 0.121039
vt 0.627961 0.121039
vt 0.627961 0.121039
vt 0.627961 0.121039
vt 0.627961 0.121039
vt 0.627961 0.121039
vt 0.627961 0.121039
vt 0.627961 0.121039
vt 0.627961 0.121039
vt 0.627961 0.121039
vt 0.627961 0.121039
vt 0.627961 0.121039
vt 0.627961 0.121039
vt 0.627961 0.121039
vt 0.627961 0.121039
vt 0.627961 0.121039
vt 0.627961 0.121039
vt 0.627961 0.121039
vt 0.627961 0.121039
vt 0.627961 0.121039
vt 0.627961 0.121039
vt 0.627961 0.121039
vt 0.627961 0.121039
vt 0.627961 0.121039
vt 0.627961 0.121039
vt 0.627961 0.121039
vt 0.627961 0.121039
vt 0.627961 0.121039
vt 0.627961 0.121039
vt 0.627961 0.121039
vt 0.627961 0.121039
vt 0.627961 0.121039
vt 0.627961 0.121039
vt 0.627961 0.121039
vt 0.627961 0.121039
vt 0.627961 0.121039
vt 0.627961 0.121039
vt 0.627961 0.121039
vt 0.627961 0.121039
vt 0.627961 0.121039
vt 0.627961 0.121039
vt 0.627961 0.121039
vt 0.627961 0.121039
vt 0.627961 0.121039
vt 0.627961 0.121039
vt 0.627961 0.121039
vt 0.627961 0.121039
vt 0.627961 0.121039
vt 0.627961 0.121039
vt 0.627961 0.121039
vt 0.627961 0.121039
vt 0.627961 0.121039
vt 0.627961 0.121039
vt 0.627961 0.121039
vt 0.627961 0.121039
vt 0.627961 0.121039
vt 0.627961 0.121039
vt 0.627961 0.121039
vt 0.627961 0.121039
vt 0.627961 0.121039
vt 0.627961 0.121039
vt 0.627961 0.121039
vt 0.627961 0.121039
vt 0.627961 0.121039
vt 0.627961 0.121039
vt 0.627961 0.121039
vt 0.627961 0.121039
vt 0.627961 0.121039
vt 0.627961 0.121039
vt 0.627961 0.121039
vt 0.627961 0.121039
vt 0.627961 0.121039
vt 0.627961 0.121039
vt 0.627961 0.121039
vt 0.627961 0.121039
vt 0.627961 0.121039
vt 0.627961 0.121039
vt 0.627961 0.121039
vt 0.627961 0.121039
vt 0.627961 0.121039
vt 0.627961 0.121039
vt 0.627961 0.121039
vt 0.627961 0.121039
vt 0.627961 0.121039
vt 0.627961 0.121039
vt 0.627961 0.121039
vt 0.627961 0.121039
vt 0.627961 0.121039
vt 0.627961 0.121039
vt 0.627961 0.121039
vt 0.627961 0.121039
vt 0.627961 0.121039
vt 0.627961 0.121039
vt 0.627961 0.121039
vt 0.627961 0.121039
vt 0.627961 0.121039
vt 0.627961 0.121039
vt 0.627961 0.121039
vt 0.627961 0.121039
vt 0.627961 0.121039
vt 0.627961 0.121039
vt 0.627961 0.121039
vt 0.627961 0.121039
vt 0.627961 0.121039
vt 0.627961 0.121039
vt 0.627961 0.121039
vt 0.627961 0.121039
vt 0.627961 0.121039
vt 0.627961 0.121039
vt 0.627961 0.121039
vt 0.627961 0.121039
vt 0.627961 0.121039
vt 0.627961 0.121039
vt 0.627961 0.121039
vt 0.627961 0.121039
vt 0.627961 0.121039
vt 0.627961 0.121039
vt 0.627961 0.121039
vt 0.627961 0.121039
vt 0.627961 0.121039
vt 0.627961 0.121039
vt 0.627961 0.121039
vn 0.3827 0.0000 -0.9239
vn 0.9239 0.0000 -0.3827
vn 0.9239 0.0000 0.3827
vn 0.3827 0.0000 0.9239
vn -0.3827 0.0000 0.9239
vn -0.9239 0.0000 0.3827
vn 0.3216 0.5419 0.7765
vn -0.9239 0.0000 -0.3827
vn -0.3827 0.0000 -0.9239
vn 0.0000 1.0000 0.0000
vn 0.3757 0.9136 0.1556
vn -0.7765 0.5419 -0.3216
vn 0.7765 0.5419 -0.3216
vn -0.3216 0.5419 0.7765
vn -0.3216 0.5419 -0.7765
vn 0.3216 0.5419 -0.7765
vn 0.7765 0.5419 0.3216
vn -0.7765 0.5419 0.3216
vn 0.1556 0.9136 -0.3757
vn -0.1556 0.9136 -0.3757
vn -0.3757 0.9136 0.1556
vn 0.1556 0.9136 0.3757
vn 0.3757 0.9136 -0.1556
vn -0.3757 0.9136 -0.1556
vn -0.1556 0.9136 0.3757
vn -0.9224 -0.0567 -0.3821
vn 0.8514 -0.0937 -0.5161
vn -0.3821 -0.0567 0.9224
vn 0.9224 -0.0567 0.3821
vn 0.3821 -0.0567 -0.9224
vn -0.3821 -0.0567 -0.9224
vn -0.9224 -0.0567 0.3821
vn 0.3821 -0.0567 0.9224
vn 0.9224 -0.0567 -0.3821
vn -0.8514 -0.0937 -0.5161
vn -0.2509 -0.3886 0.8866
vn 0.8514 -0.0937 0.5161
vn 0.2509 -0.3886 -0.8866
vn -0.2509 -0.3886 -0.8866
vn -0.8514 -0.0937 0.5161
vn 0.2509 -0.3886 0.8866
vn 0.0000 -1.0000 0.0000
vn 0.2565 0.0291 -0.9661
vn 0.8394 -0.0009 -0.5435
vn 0.8397 -0.0584 0.5399
vn 0.2567 -0.0732 0.9637
vn -0.2567 -0.0732 0.9637
vn -0.8397 -0.0584 0.5399
vn 0.2573 -0.0000 0.9663
vn -0.8394 -0.0009 -0.5435
vn -0.2565 0.0291 -0.9661
vn -0.8386 -0.1054 0.5345
vn 0.2562 -0.1440 0.9558
vn -0.8397 0.0210 -0.5427
vn 0.8397 0.0210 -0.5427
vn -0.2562 -0.1440 0.9558
vn -0.2567 0.0813 -0.9631
vn 0.2567 0.0813 -0.9631
vn 0.8386 -0.1054 0.5345
vn -0.8406 0.0000 -0.5417
vn 0.8406 -0.0000 -0.5417
vn -0.2573 0.0000 0.9663
vn -0.2573 0.0000 -0.9663
vn 0.2573 -0.0000 -0.9663
vn 0.8406 -0.0000 0.5417
vn -0.8406 0.0000 0.5417
vn -0.0994 0.1306 -0.9864
vn 0.0994 0.1306 -0.9864
vn 0.0000 0.0283 -0.9996
vn -0.0026 0.0192 -0.9998
vn 0.0026 0.0192 -0.9998
vn 0.0961 0.1332 0.9864
vn -0.0961 0.1332 0.9864
vn 0.0026 0.0180 0.9998
vn -0.0026 0.0180 0.9998
vn 0.0000 0.0277 0.9996
vn 0.0000 0.6309 0.7759
vn -0.1366 0.4150 0.8995
vn 0.1366 0.4150 0.8995
vn 0.1705 0.9853 0.0034
vn 0.0550 0.9985 0.0022
vn 0.0575 0.9088 0.4133
vn 0.1105 0.9939 0.0000
vn 0.0578 0.9097 -0.4112
vn 0.0000 0.6309 -0.7759
vn 0.1366 0.4150 -0.8995
vn -0.1366 0.4150 -0.8995
vn -0.0575 0.9088 0.4133
vn -0.1105 0.9939 0.0000
vn -0.0578 0.9097 -0.4112
vn -0.0550 0.9985 0.0022
vn -0.1705 0.9853 0.0034
usemtl Material.001
s off
f 1/1/1 2/2/1 4/3/1 3/4/1
f 3/4/2 4/3/2 6/5/2 5/6/2
f 5/6/3 6/5/3 8/7/3 7/8/3
f 7/8/4 8/7/4 10/9/4 9/10/4
f 9/10/5 10/9/5 12/11/5 11/12/5
f 11/12/6 12/11/6 14/13/6 13/14/6
f 10/9/7 8/7/7 20/15/7 21/16/7
f 13/14/8 14/13/8 16/17/8 15/18/8
f 15/18/9 16/17/9 2/2/9 1/1/9
f 5/19/10 7/20/10 36/21/10 35/22/10
f 20/15/11 19/23/11 27/24/11 28/25/11
f 16/17/12 14/13/12 23/26/12 24/27/12
f 6/5/13 4/3/13 18/28/13 19/23/13
f 12/11/14 10/9/14 21/16/14 22/29/14
f 2/2/15 16/17/15 24/27/15 17/30/15
f 4/3/16 2/2/16 17/30/16 18/28/16
f 8/7/17 6/5/17 19/23/17 20/15/17
f 14/13/18 12/11/18 22/29/18 23/26/18
f 26/31/10 25/32/10 32/33/10 31/34/10 30/35/10 29/36/10 28/25/10 27/24/10
f 18/28/19 17/30/19 25/32/19 26/31/19
f 17/30/20 24/27/20 32/33/20 25/32/20
f 23/26/21 22/29/21 30/35/21 31/34/21
f 21/16/22 20/15/22 28/25/22 29/36/22
f 19/23/23 18/28/23 26/31/23 27/24/23
f 24/27/24 23/26/24 31/34/24 32/33/24
f 22/29/25 21/16/25 29/36/25 30/35/25
f 39/37/26 40/38/26 48/39/26 47/40/26
f 11/41/10 13/42/10 39/37/10 38/43/10
f 7/20/10 9/44/10 37/45/10 36/21/10
f 13/42/10 15/46/10 40/38/10 39/37/10
f 3/47/10 5/19/10 35/22/10 34/48/10
f 9/44/10 11/41/10 38/43/10 37/45/10
f 15/46/10 1/49/10 33/50/10 40/38/10
f 1/49/10 3/47/10 34/48/10 33/50/10
f 42/51/27 43/52/27 51/53/27 50/54/27
f 37/45/28 38/43/28 46/55/28 45/56/28
f 35/22/29 36/21/29 44/57/29 43/58/29
f 33/50/30 34/48/30 42/59/30 41/60/30
f 40/38/31 33/50/31 41/60/31 48/39/31
f 38/43/32 39/37/32 47/40/32 46/55/32
f 36/21/33 37/45/33 45/56/33 44/57/33
f 34/48/34 35/22/34 43/58/34 42/59/34
f 47/61/35 48/62/35 56/63/35 55/64/35
f 45/65/36 46/66/36 54/67/36 53/68/36
f 43/52/37 44/69/37 52/70/37 51/53/37
f 41/71/38 42/51/38 50/54/38 49/72/38
f 48/62/39 41/71/39 49/72/39 56/63/39
f 46/66/40 47/61/40 55/64/40 54/67/40
f 44/69/41 45/65/41 53/68/41 52/70/41
f 49/72/42 50/54/42 51/53/42 52/70/42 53/68/42 54/67/42 55/64/42 56/63/42
f 57/73/43 58/74/43 60/75/43 59/76/43
f 59/76/44 60/75/44 62/77/44 61/78/44
f 61/78/45 62/77/45 64/79/45 63/80/45
f 63/80/46 64/79/46 66/81/46 65/82/46
f 65/82/47 66/81/47 68/83/47 67/84/47
f 67/84/48 68/83/48 70/85/48 69/86/48
f 66/81/49 64/79/49 84/87/49 85/88/49
f 69/86/50 70/85/50 72/89/50 71/90/50
f 71/90/51 72/89/51 58/74/51 57/73/51
f 67/84/52 69/86/52 79/91/52 78/92/52
f 73/93/42 74/94/42 75/95/42 76/96/42 77/97/42 78/92/42 79/91/42 80/98/42
f 63/80/53 65/82/53 77/97/53 76/96/53
f 69/86/54 71/90/54 80/98/54 79/91/54
f 59/76/55 61/78/55 75/95/55 74/94/55
f 65/82/56 67/84/56 78/92/56 77/97/56
f 71/90/57 57/73/57 73/93/57 80/98/57
f 57/73/58 59/76/58 74/94/58 73/93/58
f 61/78/59 63/80/59 76/96/59 75/95/59
f 82/99/10 81/100/10 88/101/10 87/102/10 86/103/10 85/88/10 84/87/10 83/104/10
f 72/89/60 70/85/60 87/102/60 88/101/60
f 62/77/61 60/75/61 82/99/61 83/104/61
f 68/83/62 66/81/62 85/88/62 86/103/62
f 58/74/63 72/89/63 88/101/63 81/100/63
f 60/75/64 58/74/64 81/100/64 82/99/64
f 64/79/65 62/77/65 83/104/65 84/87/65
f 70/85/66 68/83/66 86/103/66 87/102/66
f 89/105/43 90/106/43 92/107/43 91/108/43
f 91/108/44 92/107/44 94/109/44 93/110/44
f 93/110/45 94/109/45 96/111/45 95/112/45
f 95/112/46 96/111/46 98/113/46 97/114/46
f 97/114/47 98/113/47 100/115/47 99/116/47
f 99/116/48 100/115/48 102/117/48 101/118/48
f 98/113/49 96/111/49 116/119/49 117/120/49
f 101/118/50 102/117/50 104/121/50 103/122/50
f 103/122/51 104/121/51 90/106/51 89/105/51
f 99/116/52 101/118/52 111/123/52 110/124/52
f 105/125/42 106/126/42 107/127/42 108/128/42 109/129/42 110/124/42 111/123/42 112/130/42
f 95/112/53 97/114/53 109/129/53 108/128/53
f 101/118/54 103/122/54 112/130/54 111/123/54
f 91/108/55 93/110/55 107/127/55 106/126/55
f 97/114/56 99/116/56 110/124/56 109/129/56
f 103/122/57 89/105/57 105/125/57 112/130/57
f 89/105/58 91/108/58 106/126/58 105/125/58
f 93/110/59 95/112/59 108/128/59 107/127/59
f 114/131/10 113/132/10 120/133/10 119/134/10 118/135/10 117/120/10 116/119/10 115/136/10
f 104/121/60 102/117/60 119/134/60 120/133/60
f 94/109/61 92/107/61 114/131/61 115/136/61
f 100/115/62 98/113/62 117/120/62 118/135/62
f 90/106/63 104/121/63 120/133/63 113/132/63
f 92/107/64 90/106/64 113/132/64 114/131/64
f 96/111/65 94/109/65 115/136/65 116/119/65
f 102/117/66 100/115/66 118/135/66 119/134/66
f 121/137/43 122/138/43 124/139/43 123/140/43
f 123/140/44 124/139/44 126/141/44 125/142/44
f 125/142/45 126/141/45 128/143/45 127/144/45
f 127/144/46 128/143/46 130/145/46 129/146/46
f 129/146/47 130/145/47 132/147/47 131/148/47
f 131/148/48 132/147/48 134/149/48 133/150/48
f 130/145/49 128/143/49 148/151/49 149/152/49
f 133/150/50 134/149/50 136/153/50 135/154/50
f 135/154/51 136/153/51 122/138/51 121/137/51
f 131/148/52 133/150/52 143/155/52 142/156/52
f 137/157/42 138/158/42 139/159/42 140/160/42 141/161/42 142/156/42 143/155/42 144/162/42
f 127/144/53 129/146/53 141/161/53 140/160/53
f 133/150/54 135/154/54 144/162/54 143/155/54
f 123/140/55 125/142/55 139/159/55 138/158/55
f 129/146/56 131/148/56 142/156/56 141/161/56
f 135/154/57 121/137/57 137/157/57 144/162/57
f 121/137/58 123/140/58 138/158/58 137/157/58
f 125/142/59 127/144/59 140/160/59 139/159/59
f 146/163/10 145/164/10 152/165/10 151/166/10 150/167/10 149/152/10 148/151/10 147/168/10
f 136/153/60 134/149/60 151/166/60 152/165/60
f 126/141/61 124/139/61 146/163/61 147/168/61
f 132/147/62 130/145/62 149/152/62 150/167/62
f 122/138/63 136/153/63 152/165/63 145/164/63
f 124/139/64 122/138/64 145/164/64 146/163/64
f 128/143/65 126/141/65 147/168/65 148/151/65
f 134/149/66 132/147/66 150/167/66 151/166/66
f 153/169/43 154/170/43 156/171/43 155/172/43
f 155/172/44 156/171/44 158/173/44 157/174/44
f 157/174/45 158/173/45 160/175/45 159/176/45
f 159/176/46 160/175/46 162/177/46 161/178/46
f 161/178/47 162/177/47 164/179/47 163/180/47
f 163/180/48 164/179/48 166/181/48 165/182/48
f 162/177/49 160/175/49 180/183/49 181/184/49
f 165/182/50 166/181/50 168/185/50 167/186/50
f 167/186/51 168/185/51 154/170/51 153/169/51
f 163/180/52 165/182/52 175/187/52 174/188/52
f 169/189/42 170/190/42 171/191/42 172/192/42 173/193/42 174/188/42 175/187/42 176/194/42
f 159/176/53 161/178/53 173/193/53 172/192/53
f 165/182/54 167/186/54 176/194/54 175/187/54
f 155/172/55 157/174/55 171/191/55 170/190/55
f 161/178/56 163/180/56 174/188/56 173/193/56
f 167/186/57 153/169/57 169/189/57 176/194/57
f 153/169/58 155/172/58 170/190/58 169/189/58
f 157/174/59 159/176/59 172/192/59 171/191/59
f 178/195/10 177/196/10 184/197/10 183/198/10 182/199/10 181/184/10 180/183/10 179/200/10
f 168/185/60 166/181/60 183/198/60 184/197/60
f 158/173/61 156/171/61 178/195/61 179/200/61
f 164/179/62 162/177/62 181/184/62 182/199/62
f 154/170/63 168/185/63 184/197/63 177/196/63
f 156/171/64 154/170/64 177/196/64 178/195/64
f 160/175/65 158/173/65 179/200/65 180/183/65
f 166/181/66 164/179/66 182/199/66 183/198/66
f 152/165/60 151/166/60 186/201/60 187/202/60
f 179/200/61 178/195/61 188/203/61 189/204/61
f 151/166/66 150/167/66 185/205/66 186/201/66
f 180/183/65 179/200/65 189/204/65 190/206/65
f 182/199/42 84/87/42 83/104/42 183/198/42
f 183/198/42 83/104/42 82/99/42 184/197/42
f 114/131/42 88/101/42 87/102/42 115/136/42
f 115/136/42 87/102/42 86/103/42 116/119/42
f 146/163/42 120/133/42 119/134/42 147/168/42
f 147/168/42 119/134/42 118/135/42 148/151/42
f 197/207/67 145/164/67 152/165/67 187/202/67
f 177/196/68 194/208/68 188/203/68 178/195/68
f 196/209/69 81/100/69 88/101/69 114/131/69 113/132/69 195/210/69 191/211/69
f 195/210/70 113/132/70 120/133/70 146/163/70 145/164/70 197/207/70 193/212/70
f 184/197/71 82/99/71 81/100/71 196/209/71 192/213/71 194/208/71 177/196/71
f 201/214/72 181/184/72 180/183/72 190/206/72
f 149/152/73 204/215/73 185/205/73 150/167/73
f 85/88/74 84/87/74 182/199/74 181/184/74 201/214/74 199/216/74 203/217/74
f 117/120/75 202/218/75 200/219/75 204/215/75 149/152/75 148/151/75 118/135/75
f 86/103/76 85/88/76 203/217/76 198/220/76 202/218/76 117/120/76 116/119/76
f 202/218/77 198/220/77 54/67/77
f 198/220/78 53/68/78 54/67/78
f 198/220/79 52/70/79 53/68/79
f 198/220/77 203/217/77 52/70/77
f 189/204/80 188/203/80 194/208/80 201/214/80 190/206/80
f 194/208/81 192/213/81 199/216/81 201/214/81
f 199/216/82 51/53/82 52/70/82 203/217/82
f 199/216/83 192/213/83 51/53/83
f 196/209/84 50/54/84 51/53/84 192/213/84
f 196/209/85 191/211/85 50/54/85
f 191/211/86 49/72/86 50/54/86
f 191/211/87 56/63/87 49/72/87
f 191/211/85 195/210/85 56/63/85
f 202/218/88 54/67/88 55/64/88 200/219/88
f 55/64/89 193/212/89 200/219/89
f 193/212/90 55/64/90 56/63/90 195/210/90
f 193/212/91 197/207/91 204/215/91 200/219/91
f 185/205/92 204/215/92 197/207/92 187/202/92 186/201/92
