# Blender v2.83.5 OBJ File: 'saw01.blend'
# www.blender.org
mtllib saw01.mtl
o Cube
v -0.000904 0.002792 0.661034
v -0.009378 0.130598 0.661034
v -0.000904 0.002792 -0.661034
v -0.009378 0.130598 -0.661034
v 0.000904 0.002792 0.661034
v 0.009378 0.130598 0.661034
v 0.000904 0.002792 -0.661034
v 0.009378 0.130598 -0.661034
v 0.000904 -0.044870 0.000000
v 0.000904 -0.029181 -0.330517
v 0.000904 -0.029181 0.330517
v 0.000904 -0.010298 -0.495776
v 0.000904 -0.044870 0.165259
v 0.000904 -0.044870 -0.165259
v 0.000904 -0.010298 0.495776
v 0.000904 0.002792 -0.578405
v 0.000904 -0.044870 0.082629
v 0.000904 -0.036488 -0.247888
v 0.000904 -0.019710 0.413146
v 0.000904 -0.019710 -0.413146
v 0.000904 -0.036488 0.247888
v 0.000904 -0.044870 -0.082629
v 0.000904 0.002792 0.578405
v 0.000904 0.031928 -0.619720
v 0.000904 -0.015735 0.041315
v 0.000904 -0.007353 -0.289202
v 0.000904 -0.000045 0.371832
v 0.000904 0.009425 -0.454461
v 0.000904 -0.015735 0.206573
v 0.000904 -0.015735 -0.123944
v 0.000904 0.018838 0.537090
v 0.000904 0.018838 -0.537090
v 0.000904 -0.015735 0.123944
v 0.000904 -0.015735 -0.206573
v 0.000904 0.009425 0.454461
v 0.000904 -0.000045 -0.371832
v 0.000904 -0.007353 0.289202
v 0.000904 -0.015735 -0.041315
v 0.000904 0.031928 0.619720
v -0.000904 -0.044870 0.000000
v -0.000904 -0.029181 0.330517
v -0.000904 -0.029181 -0.330517
v -0.000904 -0.010298 0.495776
v -0.000904 -0.044870 -0.165259
v -0.000904 -0.044870 0.165259
v -0.000904 -0.010298 -0.495776
v -0.000904 0.002792 0.578405
v -0.000904 -0.044870 -0.082629
v -0.000904 -0.036488 0.247888
v -0.000904 -0.019710 -0.413146
v -0.000904 -0.019710 0.413146
v -0.000904 -0.036488 -0.247888
v -0.000904 -0.044870 0.082629
v -0.000904 0.002792 -0.578405
v -0.000904 0.031928 0.619720
v -0.000904 -0.015735 -0.041315
v -0.000904 -0.007353 0.289202
v -0.000904 -0.000045 -0.371832
v -0.000904 0.009425 0.454461
v -0.000904 -0.015735 -0.206573
v -0.000904 -0.015735 0.123944
v -0.000904 0.018838 -0.537090
v -0.000904 0.018838 0.537090
v -0.000904 -0.015735 -0.123944
v -0.000904 -0.015735 0.206573
v -0.000904 0.009425 -0.454461
v -0.000904 -0.000045 0.371832
v -0.000904 -0.007353 -0.289202
v -0.000904 -0.015735 0.041315
v -0.000904 0.031928 -0.619720
v -0.000904 0.002792 0.700000
v -0.009378 0.130598 0.700000
v -0.009378 0.130598 -0.700000
v -0.000904 0.002792 -0.700000
v 0.000904 0.002792 -0.700000
v 0.009378 0.130598 -0.700000
v 0.009378 0.130598 0.700000
v 0.000904 0.002792 0.700000
v 0.000000 0.000889 0.674002
v 0.000000 0.253907 0.674002
v 0.010832 0.000889 0.678489
v 0.010832 0.253907 0.678489
v 0.015319 0.000889 0.689322
v 0.015319 0.253907 0.689322
v 0.010832 0.000889 0.700154
v 0.010832 0.253907 0.700154
v -0.000000 0.000889 0.704641
v -0.000000 0.253907 0.704641
v -0.010832 0.000889 0.700154
v -0.010832 0.253907 0.700154
v -0.015319 0.000889 0.689322
v -0.015319 0.253907 0.689322
v -0.010832 0.000889 0.678489
v -0.010832 0.253907 0.678489
v -0.000000 0.000889 -0.674507
v -0.000000 0.253907 -0.674507
v -0.010833 0.000889 -0.678994
v -0.010833 0.253907 -0.678994
v -0.015319 0.000889 -0.689827
v -0.015319 0.253907 -0.689827
v -0.010833 0.000889 -0.700659
v -0.010833 0.253907 -0.700659
v -0.000000 0.000889 -0.705146
v -0.000000 0.253907 -0.705146
v 0.010832 0.000889 -0.700659
v 0.010832 0.253907 -0.700659
v 0.015319 0.000889 -0.689827
v 0.015319 0.253907 -0.689827
v 0.010832 0.000889 -0.678994
v 0.010832 0.253907 -0.678994
v -0.005141 0.039477 -0.661034
v -0.003683 0.044713 -0.700000
v 0.003557 0.042809 -0.700000
v 0.004448 0.036954 -0.661034
v -0.005141 0.046999 0.661034
v 0.005141 0.046999 0.661034
vt 0.625000 0.125000
vt 0.625000 0.125000
vt 0.625000 0.125000
vt 0.625000 0.125000
vt 0.625000 0.125000
vt 0.625000 0.125000
vt 0.625000 0.125000
vt 0.625000 0.125000
vt 0.625000 0.125000
vt 0.625000 0.125000
vt 0.625000 0.125000
vt 0.625000 0.125000
vt 0.625000 0.125000
vt 0.625000 0.125000
vt 0.625000 0.125000
vt 0.625000 0.125000
vt 0.625000 0.125000
vt 0.625000 0.125000
vt 0.625000 0.125000
vt 0.625000 0.125000
vt 0.625000 0.125000
vt 0.625000 0.125000
vt 0.625000 0.125000
vt 0.625000 0.125000
vt 0.625000 0.125000
vt 0.625000 0.125000
vt 0.625000 0.125000
vt 0.625000 0.125000
vt 0.625000 0.125000
vt 0.625000 0.125000
vt 0.625000 0.125000
vt 0.625000 0.125000
vt 0.625000 0.125000
vt 0.625000 0.125000
vt 0.625000 0.125000
vt 0.625000 0.125000
vt 0.625000 0.125000
vt 0.625000 0.125000
vt 0.625000 0.125000
vt 0.625000 0.125000
vt 0.625000 0.125000
vt 0.625000 0.125000
vt 0.625000 0.125000
vt 0.625000 0.125000
vt 0.625000 0.125000
vt 0.625000 0.125000
vt 0.625000 0.125000
vt 0.625000 0.125000
vt 0.625000 0.125000
vt 0.625000 0.125000
vt 0.625000 0.125000
vt 0.625000 0.125000
vt 0.625000 0.125000
vt 0.625000 0.125000
vt 0.625000 0.125000
vt 0.625000 0.125000
vt 0.625000 0.125000
vt 0.625000 0.125000
vt 0.625000 0.125000
vt 0.625000 0.125000
vt 0.625000 0.125000
vt 0.625000 0.125000
vt 0.625000 0.125000
vt 0.625000 0.125000
vt 0.625000 0.125000
vt 0.625000 0.125000
vt 0.625000 0.125000
vt 0.625000 0.125000
vt 0.625000 0.125000
vt 0.625000 0.125000
vt 0.625000 0.125000
vt 0.625000 0.125000
vt 0.625000 0.125000
vt 0.625000 0.125000
vt 0.625000 0.125000
vt 0.625000 0.125000
vt 0.625000 0.125000
vt 0.625000 0.125000
vt 0.625000 0.125000
vt 0.625000 0.125000
vt 0.625000 0.125000
vt 0.625000 0.125000
vt 0.625000 0.125000
vt 0.625000 0.125000
vt 0.125000 0.125000
vt 0.125000 0.125000
vt 0.125000 0.125000
vt 0.125000 0.125000
vt 0.125000 0.125000
vt 0.125000 0.125000
vt 0.125000 0.125000
vt 0.125000 0.125000
vt 0.125000 0.125000
vt 0.125000 0.125000
vt 0.125000 0.125000
vt 0.125000 0.125000
vt 0.125000 0.125000
vt 0.125000 0.125000
vt 0.125000 0.125000
vt 0.125000 0.125000
vt 0.625000 0.125000
vt 0.625000 0.125000
vt 0.625000 0.125000
vt 0.625000 0.125000
vt 0.625000 0.125000
vt 0.625000 0.125000
vt 0.625000 0.125000
vt 0.625000 0.125000
vt 0.125000 0.125000
vt 0.125000 0.125000
vt 0.125000 0.125000
vt 0.125000 0.125000
vt 0.125000 0.125000
vt 0.125000 0.125000
vt 0.125000 0.125000
vt 0.125000 0.125000
vt 0.125000 0.125000
vt 0.125000 0.125000
vt 0.125000 0.125000
vt 0.125000 0.125000
vt 0.125000 0.125000
vt 0.125000 0.125000
vt 0.125000 0.125000
vt 0.125000 0.125000
vt 0.625000 0.125000
vt 0.625000 0.125000
vt 0.625000 0.125000
vt 0.625000 0.125000
vt 0.625000 0.125000
vt 0.625000 0.125000
vt 0.625000 0.125000
vt 0.625000 0.125000
vn -1.0000 0.0000 0.0000
vn 0.0000 1.0000 0.0000
vn 1.0000 0.0000 0.0000
vn 0.0000 -1.0000 -0.0000
vn 0.0000 -0.8172 -0.5763
vn 0.0000 -0.8172 0.5763
vn 0.0000 -0.9322 -0.3620
vn 0.0000 -0.9024 -0.4308
vn 0.0000 -0.9029 -0.4298
vn 0.0000 -0.8842 -0.4671
vn 0.0000 -0.8936 -0.4489
vn 0.0000 -0.8936 0.4489
vn 0.0000 -0.8842 0.4671
vn 0.0000 -0.9029 0.4298
vn 0.0000 -0.9024 0.4308
vn 0.0000 -0.9322 0.3620
vn 0.0000 0.0000 -1.0000
vn 0.0000 0.0000 1.0000
vn 0.9977 -0.0661 0.0167
vn -0.9982 -0.0560 -0.0224
vn -0.9977 -0.0661 0.0167
vn 0.9964 -0.0832 -0.0176
vn 0.3827 0.0000 -0.9239
vn 0.9239 0.0000 -0.3827
vn 0.9239 0.0000 0.3827
vn 0.3827 0.0000 0.9239
vn -0.3827 0.0000 0.9239
vn -0.9239 0.0000 0.3827
vn -0.9239 0.0000 -0.3827
vn -0.3827 0.0000 -0.9239
vn 0.9981 -0.0591 -0.0159
vn -0.9957 -0.0889 -0.0246
vn 0.9920 -0.1029 0.0726
vn -0.9902 -0.1144 0.0806
vn 0.9932 -0.0952 -0.0671
vn -0.9932 -0.0952 -0.0671
vn -0.9979 -0.0643 0.0002
vn 0.9979 -0.0643 0.0000
usemtl Material
s off
f 62/1/1 70/2/1 54/3/1
f 6/4/2 2/5/2 72/6/2 77/7/2
f 24/8/3 32/9/3 16/10/3
f 7/11/4 3/12/4 74/13/4 75/14/4
f 55/15/5 39/16/5 5/17/5 1/18/5
f 8/19/2 4/20/2 2/5/2 6/4/2
f 47/21/6 23/22/6 39/16/6 55/15/6
f 63/23/7 31/24/7 23/22/7 47/21/7
f 43/25/6 15/26/6 31/24/6 63/23/6
f 59/27/8 35/28/8 15/26/8 43/25/8
f 51/29/6 19/30/6 35/28/6 59/27/6
f 67/31/9 27/32/9 19/30/9 51/29/9
f 41/33/6 11/34/6 27/32/6 67/31/6
f 57/35/10 37/36/10 11/34/10 41/33/10
f 49/37/6 21/38/6 37/36/6 57/35/6
f 65/39/11 29/40/11 21/38/11 49/37/11
f 45/41/6 13/42/6 29/40/6 65/39/6
f 61/43/5 33/44/5 13/42/5 45/41/5
f 53/45/6 17/46/6 33/44/6 61/43/6
f 69/47/5 25/48/5 17/46/5 53/45/5
f 40/49/6 9/50/6 25/48/6 69/47/6
f 56/51/5 38/52/5 9/50/5 40/49/5
f 48/53/6 22/54/6 38/52/6 56/51/6
f 64/55/5 30/56/5 22/54/5 48/53/5
f 44/57/6 14/58/6 30/56/6 64/55/6
f 60/59/5 34/60/5 14/58/5 44/57/5
f 52/61/12 18/62/12 34/60/12 60/59/12
f 68/63/5 26/64/5 18/62/5 52/61/5
f 42/65/13 10/66/13 26/64/13 68/63/13
f 58/67/5 36/68/5 10/66/5 42/65/5
f 50/69/14 20/70/14 36/68/14 58/67/14
f 66/71/5 28/72/5 20/70/5 50/69/5
f 46/73/15 12/74/15 28/72/15 66/71/15
f 62/1/5 32/9/5 12/74/5 46/73/5
f 54/3/16 16/10/16 32/9/16 62/1/16
f 70/2/5 24/8/5 16/10/5 54/3/5
f 3/12/6 7/11/6 24/8/6 70/2/6
f 112/75/17 73/76/17 76/77/17 113/78/17
f 78/79/18 77/7/18 72/6/18 71/80/18
f 5/17/19 116/81/19 6/4/19 77/7/19 78/79/19
f 4/20/2 8/19/2 76/77/2 73/76/2
f 111/82/20 4/20/20 73/76/20 112/75/20
f 2/5/21 115/83/21 1/18/21 71/80/21 72/6/21
f 1/18/4 5/17/4 78/79/4 71/80/4
f 113/78/22 114/84/22 7/11/22 75/14/22
f 79/85/23 80/86/23 82/87/23 81/88/23
f 81/88/24 82/87/24 84/89/24 83/90/24
f 83/90/25 84/89/25 86/91/25 85/92/25
f 85/92/26 86/91/26 88/93/26 87/94/26
f 87/94/27 88/93/27 90/95/27 89/96/27
f 89/96/28 90/95/28 92/97/28 91/98/28
f 82/87/2 80/86/2 94/99/2 92/97/2 90/95/2 88/93/2 86/91/2 84/89/2
f 91/98/29 92/97/29 94/99/29 93/100/29
f 93/100/30 94/99/30 80/86/30 79/85/30
f 79/101/4 81/102/4 83/103/4 85/104/4 87/105/4 89/106/4 91/107/4 93/108/4
f 95/109/27 96/110/27 98/111/27 97/112/27
f 97/112/28 98/111/28 100/113/28 99/114/28
f 99/114/29 100/113/29 102/115/29 101/116/29
f 101/116/30 102/115/30 104/117/30 103/118/30
f 103/118/23 104/117/23 106/119/23 105/120/23
f 105/120/24 106/119/24 108/121/24 107/122/24
f 98/111/2 96/110/2 110/123/2 108/121/2 106/119/2 104/117/2 102/115/2 100/113/2
f 107/122/25 108/121/25 110/123/25 109/124/25
f 109/124/26 110/123/26 96/110/26 95/109/26
f 95/125/4 97/126/4 99/127/4 101/128/4 103/129/4 105/130/4 107/131/4 109/132/4
f 32/9/3 28/72/3 12/74/3
f 28/72/3 36/68/3 20/70/3
f 36/68/3 26/64/3 10/66/3
f 8/19/31 114/84/31 113/78/31 76/77/31
f 74/13/17 112/75/17 113/78/17 75/14/17
f 3/12/32 111/82/32 112/75/32 74/13/32
f 7/11/33 114/84/33 24/8/33
f 66/71/1 62/1/1 46/73/1
f 58/67/1 66/71/1 50/69/1
f 68/63/1 58/67/1 42/65/1
f 60/59/1 68/63/1 52/61/1
f 64/55/1 60/59/1 44/57/1
f 26/64/3 34/60/3 18/62/3
f 34/60/3 30/56/3 14/58/3
f 56/51/1 64/55/1 48/53/1
f 30/56/3 38/52/3 22/54/3
f 69/47/1 56/51/1 40/49/1
f 38/52/3 25/48/3 9/50/3
f 61/43/1 69/47/1 53/45/1
f 25/48/3 33/44/3 17/46/3
f 65/39/1 61/43/1 45/41/1
f 33/44/3 29/40/3 13/42/3
f 57/35/1 65/39/1 49/37/1
f 29/40/3 37/36/3 21/38/3
f 67/31/1 57/35/1 41/33/1
f 37/36/3 27/32/3 11/34/3
f 59/27/1 67/31/1 51/29/1
f 27/32/3 35/28/3 19/30/3
f 63/23/1 59/27/1 43/25/1
f 35/28/3 31/24/3 15/26/3
f 55/15/1 63/23/1 47/21/1
f 31/24/3 39/16/3 23/22/3
f 70/2/34 111/82/34 3/12/34
f 39/16/35 116/81/35 5/17/35
f 1/18/36 115/83/36 55/15/36
f 115/83/37 2/5/37 4/20/37 111/82/37 70/2/37 62/1/37 66/71/37 58/67/37 68/63/37 60/59/37 64/55/37 56/51/37 69/47/37 61/43/37 65/39/37 57/35/37 67/31/37 59/27/37 63/23/37 55/15/37
f 8/19/38 6/4/38 116/81/38 39/16/38 31/24/38 35/28/38 27/32/38 37/36/38 29/40/38 33/44/38 25/48/38 38/52/38 30/56/38 34/60/38 26/64/38 36/68/38 28/72/38 32/9/38 24/8/38 114/84/38
